<?xml version="1.0" encoding="utf-8"?>
<!-- Generator: Adobe Illustrator 27.2.0, SVG Export Plug-In . SVG Version: 6.00 Build 0)  -->
<svg version="1.1" id="_x32_" xmlns="http://www.w3.org/2000/svg" xmlns:xlink="http://www.w3.org/1999/xlink" x="0px" y="0px"
	 viewBox="0 0 512 512" style="enable-background:new 0 0 512 512;" xml:space="preserve">
<g>
	<rect x="187.9" y="369.7" width="48.2" height="48.2"/>
	<rect x="187.9" y="281.8" width="48.2" height="48.2"/>
	<rect x="100" y="369.7" width="48.2" height="48.2"/>
	<rect x="100" y="281.8" width="48.2" height="48.2"/>
	<rect x="363.8" y="193.9" width="48.2" height="48.2"/>
	<rect x="275.9" y="193.9" width="48.2" height="48.2"/>
	<rect x="275.9" y="281.8" width="48.2" height="48.2"/>
	<rect x="363.8" y="369.7" width="48.2" height="48.2"/>
	<rect x="363.8" y="281.8" width="48.2" height="48.2"/>
	<rect x="275.9" y="369.7" width="48.2" height="48.2"/>
	<rect x="187.9" y="193.9" width="48.2" height="48.2"/>
	<rect x="100" y="193.9" width="48.2" height="48.2"/>
	<path d="M118.6,89.3c9.5,0,17.2-7.7,17.2-17.2v-55c0-9.5-7.7-17.2-17.2-17.2c-9.5,0-17.2,7.7-17.2,17.2v55
		C101.4,81.6,109.1,89.3,118.6,89.3z"/>
	<path d="M427,44.9h-2.7v27.2c0,17-13.9,30.9-30.9,30.9c-17,0-30.9-13.9-30.9-30.9V44.9h-75.6h-61.8h-75.6v27.2
		c0,17-13.9,30.9-30.9,30.9c-17,0-30.9-13.9-30.9-30.9V44.9H85C47.9,44.9,17.9,75,17.9,112v332.8c0,37.1,30.1,67.1,67.1,67.1h342
		c37.1,0,67.1-30.1,67.1-67.1V112C494.1,75,464.1,44.9,427,44.9z M466.6,439.8c0,24.7-20,44.8-44.7,44.8H90.1
		c-24.7,0-44.8-20-44.8-44.8V127.3h421.3V439.8z"/>
	<path d="M393.4,89.3c9.5,0,17.2-7.7,17.2-17.2v-55c0-9.5-7.7-17.2-17.2-17.2c-9.5,0-17.2,7.7-17.2,17.2v55
		C376.2,81.6,383.9,89.3,393.4,89.3z"/>
</g>
</svg>
