<svg xmlns="http://www.w3.org/2000/svg" xmlns:xlink="http://www.w3.org/1999/xlink" width="493.405" height="196.862" viewBox="0 0 493.405 196.862"><defs><clipPath id="a"><rect width="493.405" height="196.862" fill="none"/></clipPath></defs><g clip-path="url(#a)"><path d="M46.27,152.854a13.323,13.323,0,0,0-1.113,4.08c-3.86,18.361-12.422,30.424-28.268,39.928A31.691,31.691,0,0,0,9.28,189.2c7.675-3.721,13.847-8.522,17.727-13.847a62.28,62.28,0,0,0-11.324-5.734l5.069-7.813a79.2,79.2,0,0,1,11.142,5.184,43.231,43.231,0,0,0,3.613-10.9l-15.6,1.984A61.088,61.088,0,0,1,8.882,174.891,28.457,28.457,0,0,0,0,169.493c7.793-7.509,13.046-17.117,14.422-26.146l10.328.764c-.436,1.139-1.036,2.812-1.836,5.2l13.064-1.679.959-.116a36.553,36.553,0,0,0-3.1-4.431l5.51-2.205a37.171,37.171,0,0,1,5.024,8.033l-1.849.794Zm.843-14.911a41.378,41.378,0,0,1,5.059,7.856l-5.266,2.348a46.137,46.137,0,0,0-5.029-8.09Z" fill="#132b53"/><path d="M95.808,143.43c2.706-.324,3.426-.525,4.549-1.174l4.805,3.827c-.45,1.026-.515,1.434-.547,3.554-.127,7.049-.833,11.651-2.463,16.192a35.018,35.018,0,0,1-12.67,16.9,58.719,58.719,0,0,1-10.688,6.256,31.4,31.4,0,0,0-7.456-8.771c8.227-2.93,13.392-6.121,17.04-10.5,3.848-4.635,5.658-10.056,5.616-17.085l-24.411,2.926.6,5.016a55.361,55.361,0,0,0,.935,5.893l-10.542,1.263a50.474,50.474,0,0,0-.4-6.242l-.939-7.836c-.277-2.311-.579-3.876-1.012-6.053a57.556,57.556,0,0,0,7.088-.507l10.091-1.21-.412-3.439a37.918,37.918,0,0,0-.96-5.145l10.824-1.3a34.835,34.835,0,0,0,.39,5.158l.419,3.495Z" fill="#132b53"/><path d="M119.966,135.045c7.6,3.321,11.579,5.474,16.827,9.191l-5.6,9.592a60.645,60.645,0,0,0-16.76-10.058Zm-1.724,35.718a56.953,56.953,0,0,0,16.482-6.093,34.129,34.129,0,0,0,14.849-15.9,52.255,52.255,0,0,0,4.2-11.711c3.161,3,4.593,3.967,9.193,6.561-3.8,11.72-8.358,19.014-15.642,25.034-5.616,4.676-10.722,7.4-20.917,11.084-2.138.771-2.469.868-3.937,1.5Z" fill="#132b53"/><path d="M185.93,169.628l.466,3.889-10.26,1.23a72.285,72.285,0,0,0-.651-9.243l-3.472-28.977c-.291-2.424-.557-4.165-1-6.456a66.344,66.344,0,0,0,6.848-.592l30.386-3.641a64.61,64.61,0,0,0,6.964-1.063c.123,1.986.311,4.023.628,6.672l3.425,28.582a76.289,76.289,0,0,0,1.51,9.254l-10.205,1.224-.452-3.778Zm20.407-34.412-24.185,2.9,2.7,22.493,24.184-2.9Z" fill="#132b53"/><path d="M226.264,139.233a80.285,80.285,0,0,0,11.618-.878l26.947-3.229a93.1,93.1,0,0,0,11.5-1.893l1.3,10.881a109.494,109.494,0,0,0-11.653,1.053l-26.834,3.216c-6.315.757-8.168,1.036-11.573,1.73Z" fill="#132b53"/><path d="M295.458,161.648c-.058-2.395-.2-4.037-.7-8.666l-3.932-32.809a59.339,59.339,0,0,0-1.374-8.127l10.88-1.3c-.05,1.491.059,2.393.7,8.264l.926,7.723a120.914,120.914,0,0,1,27.056,8.652l-4.208,10.225a106.633,106.633,0,0,0-18.933-7.681,17.564,17.564,0,0,1-2.131-.6,1.572,1.572,0,0,1-.541-.222l1.756,14.658a71.539,71.539,0,0,0,1.372,8.585Zm19.914-49.506a40.5,40.5,0,0,1,6.548,7.393l-5.046,3.235a38.487,38.487,0,0,0-6.567-7.563Zm7.093-4.282a40,40,0,0,1,6.576,7.161l-4.883,3.158a43.58,43.58,0,0,0-6.49-7.4Z" fill="#132b53"/><path d="M354.715,104.968c-.194,3.625.934,18.759,2.062,28.173.675,5.638,1.1,7.3,2.245,8.71,1.273,1.562,3.818,2.286,6.92,1.915,5.805-.7,9.9-4.675,11.373-11.027a43.214,43.214,0,0,0,1.032-10.474c4.563,2.769,6.565,3.73,10.348,4.764-1.127,8.712-2.495,13.051-5.183,16.861-3.872,5.382-9.445,8.509-16.83,9.394-5.75.689-10.2-.207-13.593-2.717-3.585-2.716-5.088-6.2-6.034-14.088-.176-1.466-.176-1.466-1.252-12.83-.569-5.708-1.1-11.077-1.362-13.275a26.667,26.667,0,0,0-.8-4.251Z" fill="#132b53"/><path d="M425.044,110.607a96.515,96.515,0,0,1,14.837-2.636c.394-.047,1.578-.189,2.769-.275l1.311,9.508a51.084,51.084,0,0,0-7.432.49A76.2,76.2,0,0,0,420.856,121l-1.522-7.938c-2.673.606-3.342.744-5.076,1.066-.323,5.414-.838,9.707-1.714,15.759-.815,5.13-1.005,6.411-2.557,13.974-.578,2.814-.578,2.814-.81,4.215l-10.825-2.535c2.855-7.662,5.174-19.319,6.011-30l-.9.108c-1.8.217-2.995.3-5.433.48l-.563.068a11.554,11.554,0,0,0-1.29.211l-.932-9.208a59.157,59.157,0,0,0,8.637-.465l1.07-.128a54.784,54.784,0,0,0-.054-8.571c-.021-.169-.054-.45-.1-.845l10.637-.474a17.931,17.931,0,0,0-.341,3.357c-.017.345-.158,2.021-.321,4.956a64.18,64.18,0,0,0,9.07-2.573Zm3.831,15.267c-1.839,2.793-2.518,4.762-2.309,6.509.311,2.594,2.772,3.556,7.507,2.989a42.7,42.7,0,0,0,13.04-3.792l1.859,9.784c-1.114.247-1.614.364-2.946.7a69.573,69.573,0,0,1-10.885,2.22q-16.575,1.986-17.851-8.669c-.393-3.27.525-6.582,3.086-11.464Z" fill="#132b53"/><path d="M471.941,124.487a14.982,14.982,0,0,0-.2-2.607c-.466-3.89-.058-6.226,1.482-8.641,1.164-1.741,1.574-2.133,5.286-5.037,2.567-1.965,3.327-3.257,3.1-5.118-.317-2.649-2.479-3.992-5.861-3.586-2.538.3-4.289,1.428-5.151,3.3a7.61,7.61,0,0,0-.6,3.562l-11.742.32c.078-4.127.717-6.433,2.574-9.058,2.824-4.112,7.612-6.631,14.1-7.408C485.3,88.976,492.369,93.1,493.3,100.882a10.7,10.7,0,0,1-2.5,8.708c-1.2,1.4-1.721,1.863-6.26,5.5-2.185,1.806-2.855,3.373-2.545,5.965a17.006,17.006,0,0,0,.433,2.178Zm11.4,2.522,1.277,10.655-11.331,1.358-1.277-10.655Z" fill="#132b53"/><path d="M32.936,34.512l19.189.614L50.51,48.872c8.421-.99,12.4-1.618,20.558-3l-.356,17.4c-7.091,1.166-14.959,2.2-22.2,2.965l-.758,7.341c6.269-.658,16.364-2.351,23.227-3.6L70.6,88.226C59.307,89.94,50.25,91.1,45.818,91.568c.034,1.365-.007,3.053.223,5.239.393,3.747,1.225,11.659,17.439,9.955,11.457-1.205,18.674-5.331,17.722-14.387-.525-5-3.32-9.755-6.482-13.843l17.006-7.681c4.83,6.439,8.168,13.244,9,21.156,2.987,28.417-29.224,31.8-34.737,32.382-5.837.614-36.1,3.794-39.024-24a65.041,65.041,0,0,1-.214-7.239c-11.751.5-14.9-.328-18.163-1.248L9.969,73.866c3.028.734,6.954,1.69,18.5,1.318l.856-7.456a110.15,110.15,0,0,1-18.412-.486L12.35,49.726c7,1.054,12.444.9,18.876.752Z" fill="#132b53"/><path d="M122.968,100.825c22.073-2.11,49.662-9.956,47.7-28.589-.985-9.368-8.758-9.5-15.027-8.839-13.512,1.42-38.58,11.421-46.748,14.806l-7.709-18.239c17.214-5.7,38.232-12.648,52.5-14.148,6.377-.67,33.616-3.533,36.461,23.531,2.188,20.819-11.355,31.294-17.274,35.283-13.664,9.329-31.5,12.256-41.41,13.614Zm44.111-57.574c-7.3.241-31.512.681-49.321-2.394l4.66-17.013c16.23,2.61,27.992,3.267,45.537,2.792Z" fill="#132b53"/><path d="M226.658,90.618,213.315,66.081l9.155-.963,7.585,14.777,4.347-16.03,9.155-.963-13.231,44.807-8.949.94Z" fill="#132b53"/><path d="M276.278,59.463l3.129,29.767-8.384.881-.281-2.675c-1,1.407-2.67,3.786-7.659,4.31-5.3.557-8.4-2.221-9.515-3.957-1.366-2.11-1.884-4.559-2.326-8.769l-1.76-16.741,8.8-.924,1.791,17.038c.224,2.13.6,5.695,4.816,5.252.72-.076,4.921-.667,4.338-6.214l-1.79-17.038Z" fill="#132b53"/><path d="M295.138,69.048l8.055-12.414,9.72-1.022-8.932,13.959L318.1,85.163l-10.6,1.114L295.43,71.821l1.634,15.553-8.846.929-4.394-41.8,8.847-.93Z" fill="#132b53"/><path d="M329.98,50.614l-9.566,1.005-.895-8.519,9.566-1Zm3.1,32.974-8.846.93-3.129-29.767,8.846-.93Z" fill="#132b53"/><path d="M349.535,77.7,336.192,53.166l9.155-.963,7.585,14.777,4.347-16.03,9.155-.963L353.2,94.794l-8.949.94Z" fill="#132b53"/><path d="M372.891,51.362a23.479,23.479,0,0,1,10.859-4.046c2.109-.221,7.838-.624,11.757,3.021,1.272,1.218,2.663,3.075,3.189,8.078l1.062,10.1c.557,5.3,1.454,6.908,2.021,7.85l-8.28.87a6.794,6.794,0,0,1-.821-2.367,12.88,12.88,0,0,1-8.456,4.144c-6.12.643-10.98-2.552-11.594-8.4-.865-8.222,7.136-10.265,11.486-11.423,4.911-1.267,5.77-1.508,5.64-2.746-.1-.941-1.15-2.033-4.853-1.643a21.2,21.2,0,0,0-10.5,4.508Zm17.777,12.3c-1.413.9-1.876.948-5.928,1.975-1.522.36-4.253,1.1-3.966,3.822.166,1.585,1.32,2.665,3.48,2.438,1.183-.124,4.459-.618,6.773-4.818Z" fill="#132b53"/><path d="M426.776,73.74l-1.8-17.137c-.193-1.832-.594-5.646-4.348-5.252-1.029.109-4.633.938-4.092,6.089l1.806,17.187-8.846.929L406.367,45.79l8.383-.882.281,2.675a9.492,9.492,0,0,1,7.191-4.311A8.674,8.674,0,0,1,430.09,46.4a12.031,12.031,0,0,1,8.852-4.836c2.726-.287,7.6.052,10.035,3.952,1.428,2.2,1.766,4.923,2.078,7.894L452.9,70.994l-8.846.93-1.8-17.137c-.2-1.882-.594-5.647-4.5-5.235-4.166.438-4.073,4.784-3.917,6.27l1.786,16.988Z" fill="#132b53"/><path d="M459.7,42.237a23.479,23.479,0,0,1,10.859-4.046c2.108-.221,7.838-.623,11.757,3.021,1.272,1.218,2.663,3.075,3.189,8.078l1.062,10.1c.557,5.3,1.454,6.907,2.021,7.849l-8.28.871a6.808,6.808,0,0,1-.821-2.368,12.873,12.873,0,0,1-8.456,4.144c-6.121.643-10.98-2.552-11.6-8.4-.864-8.222,7.137-10.265,11.487-11.423,4.911-1.267,5.77-1.508,5.64-2.746-.1-.941-1.15-2.032-4.853-1.643a21.2,21.2,0,0,0-10.5,4.508Zm17.777,12.3c-1.413.9-1.876.949-5.928,1.975-1.523.36-4.253,1.1-3.967,3.822.167,1.585,1.321,2.665,3.481,2.438,1.183-.124,4.459-.618,6.773-4.818Z" fill="#132b53"/><path d="M196.313,96.534a72.488,72.488,0,0,1,17.2,11.428l-6.709,8.186A72.97,72.97,0,0,0,190.444,104.5Z" fill="#132b53"/><path d="M209.82,33.592c-1.013.121-1.56.2-2.054.3l-.261-2.18a17.681,17.681,0,0,0,2.175-.156l9.013-1.08a20.1,20.1,0,0,0,2.167-.365l.26,2.181c-.621.039-1.07.076-2.065.195l-3.536.424.058.48,4.789-.574a14,14,0,0,0,1.759-.28,14.975,14.975,0,0,0,.137,1.724l.175,1.459a9.722,9.722,0,0,0,.295,1.584l-2.473.3-.337-2.815-4.119.493.24,2.009a13.121,13.121,0,0,0,.264,1.622l-2.626.315a13.19,13.19,0,0,0-.127-1.639l-.24-2.008-3.88.465.34,2.832-2.42.29a10.253,10.253,0,0,0-.1-1.572l-.181-1.511a15.808,15.808,0,0,0-.275-1.708,14.768,14.768,0,0,0,1.777-.143l4.514-.541-.057-.481Zm9.6,7.346-8.668,1.038c-.635.076-1.268.17-1.846.291l-.253-2.111a14.453,14.453,0,0,0,2.125-.15l9.3-1.115c.6-.072,1.162-.175,1.706-.292.043.8.085,1.3.141,1.759l.444,3.708c.082.687.16,1.183.324,1.964l-2.662.319-.074-.618-8.617,1.032c-.686.083-1.4.2-2.064.353l-.264-2.2c.536-.031,1.365-.095,1.982-.168l8.754-1.05-.063-.531L211.074,44.2a13.639,13.639,0,0,0-1.606.262l-.222-1.854a14.161,14.161,0,0,0,1.674-.131l8.565-1.026Zm-6.377-3.519a7.4,7.4,0,0,0-.881.053l-1.132.136a7.476,7.476,0,0,0-.887.158l-.162-1.356c.19-.006.57-.033.9-.072l1.133-.136c.344-.041.668-.1.871-.139Zm.21,1.75a6.839,6.839,0,0,0-.881.054l-1.132.135a6.826,6.826,0,0,0-.887.159l-.162-1.356c.156,0,.553-.032.9-.073l1.133-.135c.343-.042.667-.1.871-.14Zm6.382-2.54a7.2,7.2,0,0,0-.881.053l-1.339.16a7.624,7.624,0,0,0-.886.159l-.163-1.356c.191-.006.571-.033.9-.073l1.339-.16c.326-.039.668-.1.871-.139Zm.21,1.75a6.839,6.839,0,0,0-.881.054l-1.34.16a6.791,6.791,0,0,0-.885.159l-.164-1.357c.158,0,.572-.033.9-.072l1.339-.16c.325-.039.667-.1.871-.14Z" fill="#132b53"/><path d="M230.116,30.777a12.9,12.9,0,0,0-.345-1.857l3.022-.362a13.129,13.129,0,0,0,.1,1.886l1.243,10.368,3.331-.4-.91-7.587c-.074-.618-.17-1.129-.287-1.672l2.9-.347c.02.607.049,1.142.118,1.71l1.054,8.805a22.671,22.671,0,0,0,.409,2.389l-2.849.341-.122-1.013-9.2,1.1.121,1.012-2.816.338a21.546,21.546,0,0,0-.2-2.4l-1.054-8.806c-.069-.566-.173-1.146-.292-1.706l2.883-.346a14.867,14.867,0,0,0,.136,1.708l.907,7.57,3.089-.37Z" fill="#132b53"/><path d="M241.708,29.143a16.809,16.809,0,0,0,3.581-.185l.481-.058a6.314,6.314,0,0,0,.3-1.969l3.169-.137a5.17,5.17,0,0,0-.264.85c-.164.525-.233.812-.247.848.17-.037.17-.037,1.039-.194a25.221,25.221,0,0,0,4.278-1.07l.43,2.717q-.789.174-1.527.34c-1.2.266-3.335.644-5.08.905a9.374,9.374,0,0,1-.671,1.369,5.1,5.1,0,0,1,2.119-.776,2.412,2.412,0,0,1,2.825,1.35c.279-.137.279-.137,1.153-.556.05-.023.494-.233,1.022-.471a7.176,7.176,0,0,0,1.312-.679L257,34.013a28.492,28.492,0,0,0-4.235,1.692c.071.461.073.479.164,1.234a10.634,10.634,0,0,0,.245,1.468l-2.788.421a14.172,14.172,0,0,0-.132-1.83l-.146.088a3.925,3.925,0,0,0-1.116.865,1.19,1.19,0,0,0-.341.928c.078.653.744.834,2.409.635A16.339,16.339,0,0,0,256.453,38l.56,3.067a11.192,11.192,0,0,0-1.51.338,34.082,34.082,0,0,1-4.106.753,7.879,7.879,0,0,1-4.179-.3,2.775,2.775,0,0,1-1.648-2.275,3.211,3.211,0,0,1,.581-2.264,7.611,7.611,0,0,1,2.253-2.132c.386-.256.549-.345,1.2-.736a.715.715,0,0,0-.739-.347A5.71,5.71,0,0,0,245.8,36.14a10.925,10.925,0,0,0-1.441,1.931l-2.438-1.9a11.8,11.8,0,0,0,1.6-2c.323-.508.89-1.585,1.1-2.028.2-.46.2-.46.259-.589l-.548.066c-.739.089-.739.089-1.48.16-.242.011-.362.025-.6.054l-.258.031Z" fill="#132b53"/><path d="M267.759,33.822c-.052-.429-.081-.669-.14-1.306a19.288,19.288,0,0,1-6.391,7.1,8.031,8.031,0,0,0-2.336-2.349c3.269-2.064,5.2-4.072,6.49-6.716l-3.536.424a24.823,24.823,0,0,0-2.58.414l-.354-2.953a20.6,20.6,0,0,0,2.66-.18l5.374-.644-.121-.855a17.9,17.9,0,0,0-.336-1.928l3.21-.385a15.758,15.758,0,0,0,.131,1.674c0,.034.021.172.031.257l.107.893,1.082-.13a14.961,14.961,0,0,0,2.438-.431l.352,2.935a20.735,20.735,0,0,0-2.414.2l-1.1.131.973,7.389a23.487,23.487,0,0,0,.4,2.354l-3.3.4a12.43,12.43,0,0,0-.114-2.11c-.008-.069-.017-.155-.028-.241l-.425-3.257Z" fill="#132b53"/><path d="M277.919,24.316a25.179,25.179,0,0,1,5.124,2.8l-1.7,2.921a18.406,18.406,0,0,0-5.1-3.063Zm-.524,10.876a17.381,17.381,0,0,0,5.019-1.855,10.4,10.4,0,0,0,4.52-4.843,15.92,15.92,0,0,0,1.28-3.566,11.167,11.167,0,0,0,2.8,2c-1.157,3.568-2.545,5.789-4.764,7.622a18.715,18.715,0,0,1-6.368,3.375c-.651.235-.752.265-1.2.457Z" fill="#132b53"/><path d="M293.692,26.187a18.437,18.437,0,0,0,2.78-.193l8.617-1.033a2.816,2.816,0,0,0,1.351-.354l1.512,1.281a3.477,3.477,0,0,0-.352,1.14,13.029,13.029,0,0,1-3.1,6.344,15.594,15.594,0,0,1-4.572,3.264,9.66,9.66,0,0,0-2.259-2.585,11.912,11.912,0,0,0,4.291-2.551,7.523,7.523,0,0,0,2.231-3.75l-7.432.891a25.9,25.9,0,0,0-2.717.43Zm.911-4.462a15.851,15.851,0,0,0,2.539-.165l5.477-.656a16.746,16.746,0,0,0,2.677-.46l.346,2.883c-.658.027-1.469.089-2.654.231l-5.561.667a22.534,22.534,0,0,0-2.478.383Z" fill="#132b53"/><path d="M324.46,19.661a6.3,6.3,0,0,0-.594.715,28.878,28.878,0,0,1-3.552,3.926l.792,6.609a24.992,24.992,0,0,0,.437,2.768l-3.33.4a23.485,23.485,0,0,0-.229-2.776l-.567-4.738a29.4,29.4,0,0,1-5.309,3.214,9.253,9.253,0,0,0-1.978-2.567,25.022,25.022,0,0,0,8.579-5.555,12.665,12.665,0,0,0,2.748-3.516Z" fill="#132b53"/><path d="M329.415,18.145a25.168,25.168,0,0,1,5.123,2.8l-1.7,2.921a18.406,18.406,0,0,0-5.1-3.063Zm-.525,10.876a17.381,17.381,0,0,0,5.019-1.855,10.4,10.4,0,0,0,4.521-4.843,15.95,15.95,0,0,0,1.279-3.566,11.148,11.148,0,0,0,2.8,2c-1.157,3.568-2.545,5.79-4.763,7.623a18.731,18.731,0,0,1-6.369,3.374c-.65.235-.752.265-1.2.458Z" fill="#132b53"/><path d="M344.13,17.147c.294-.018.517-.044.655-.061.446-.053,1.06-.162,2.916-.506,2.454-.451,4.108-.736,7.355-1.247l1.76-.281.717-.12c.581-.088.683-.118.769-.128a1.413,1.413,0,0,0,.386-.116l.527,3.089a2.557,2.557,0,0,0-.485.023,8.1,8.1,0,0,0-3.787,1.673c-1.591,1.253-2.43,2.816-2.263,4.224a2.213,2.213,0,0,0,1.7,1.955,9.1,9.1,0,0,0,3.352.225c.138-.016.258-.031.514-.078l0,3.308a4.505,4.505,0,0,0-.645-.009,13.058,13.058,0,0,1-4.458-.441,4.916,4.916,0,0,1-3.636-4.335,5.913,5.913,0,0,1,.994-4.054A7.057,7.057,0,0,1,352,18.606l-.8.183c-.374.08-.969.2-4.148.846a19.251,19.251,0,0,0-2.38.615ZM356.769,19.6a11.146,11.146,0,0,1,1.964,2.29l-1.557.953a10.808,10.808,0,0,0-1.97-2.342Zm2.181-1.271a12.016,12.016,0,0,1,1.973,2.219l-1.508.929a12.36,12.36,0,0,0-1.928-2.276Z" fill="#132b53"/><path d="M372.3,19.622a8.971,8.971,0,0,0,2.765-.889,5.959,5.959,0,0,1,1.886,3.674,4.3,4.3,0,0,1-1.344,3.609,6.846,6.846,0,0,1-4.025,1.719,5.981,5.981,0,0,1-4.3-.861,4.1,4.1,0,0,1-1.584-3.048c-.046-.378-.074-.758-.1-1.277a18.772,18.772,0,0,1-2.255-.078,4.275,4.275,0,0,0-.751-.014l-.123-2.771a11.94,11.94,0,0,0,3.059.242c0-.174.012-.767.035-1.745a22.972,22.972,0,0,1-2.417-.111c-.263-.02-.368-.025-.633-.046l-.129-2.683a14.435,14.435,0,0,0,3.176.211,15.264,15.264,0,0,0-.036-2.486c-.007-.051-.016-.137-.029-.24l3.207-.122a13.279,13.279,0,0,0-.2,2.565,16.88,16.88,0,0,0,3.674-.875l.238,2.861c-.39.082-.39.082-1.223.251a25.486,25.486,0,0,1-2.8.457,6.674,6.674,0,0,1-.019.856c-.007.228-.008.368-.008.941l.36-.043a14.618,14.618,0,0,0,3.506-.82Zm.192,2.049c-.169.038-.187.04-.54.134a22.86,22.86,0,0,1-2.675.495c-.172.02-.292.035-.775.075.011.226.032.554.065.828a1.863,1.863,0,0,0,.709,1.413,2.716,2.716,0,0,0,1.922.344c1.87-.225,2.888-1.182,2.723-2.555a4.207,4.207,0,0,0-1.6-2.577Z" fill="#132b53"/><path d="M383.155,20.673c.5-1.472.527-2.571.088-6.384-.341.058-.6.106-.819.15l-1.118,1.422a16.838,16.838,0,0,0-3.394-2.9l1.732-2.106a21.688,21.688,0,0,1,2.533,1.96l-.1-.858a10.311,10.311,0,0,0,1.727-.12l.086-.01-.025-.206a5.415,5.415,0,0,0-.258-1.275l2.73-.327a5.34,5.34,0,0,0,.049,1.283l.027.222a11.479,11.479,0,0,0,1.383-.235l.158,1.322a9.6,9.6,0,0,0,.7-3.061l2.674.081c-.137.608-.181.822-.277,1.182l1.58-.19A7.223,7.223,0,0,0,394,10.37l.3,2.489c-.433.017-.831.047-1.4.115l-2.593.31c-.133.347-.147.367-.269.66l2.592-.311a4.756,4.756,0,0,0,.82-.133l1.1,1.069c-.106.135-.18.249-.326.475a16.631,16.631,0,0,1-1.337,1.779l.025.206.772-.093a6.112,6.112,0,0,0,1.091-.2l.286,2.386a6.483,6.483,0,0,0-.933.06l-.944.113.162,1.356a1.575,1.575,0,0,1-.479,1.52,4.782,4.782,0,0,1-2.163.555c-.154.019-.378.045-.774.075a6.205,6.205,0,0,0-.768-2.049,9.018,9.018,0,0,0,1.437-.068c.188-.023.249-.1.223-.322l-.093-.773-.481.057a7.66,7.66,0,0,0-1.159.209l-.287-2.4a8.09,8.09,0,0,0,1.175-.071l.48-.058a3.367,3.367,0,0,0-.144-.626l.532-.064a3.052,3.052,0,0,0,.5-.653l-1.236.149a7.62,7.62,0,0,0-1.108.2l-.168-1.408c-.242-.127-.336-.186-.612-.31.012.381.042.779.1,1.243.4,3.364.519,5.491.338,6.158-.2.685-.747,1.029-1.915,1.169a6.689,6.689,0,0,1-.727.035,10.208,10.208,0,0,0-.578-1.776,8.81,8.81,0,0,1-.69,1.946,14.108,14.108,0,0,0-1.467-1.635l.124,1.03c1.094,1,1.784,1.092,5.166.686a65.937,65.937,0,0,0,7.183-1.227,10.69,10.69,0,0,0-.293,2.787c-1.091.183-3.938.559-6.873.911-3.553.425-4.67.263-6.027-.9a15.575,15.575,0,0,1-1.334,1.362c-.314.282-.348.3-.489.424a1.844,1.844,0,0,0-.27.224l-1.449-2.647a7.132,7.132,0,0,0,1.895-1.482l-.4-3.311-.636.075a6.26,6.26,0,0,0-1.07.216l-.311-2.592a8.883,8.883,0,0,0,1.453-.087l1.493-.179a9.981,9.981,0,0,0,1.313-.227,18.166,18.166,0,0,0,.164,1.948Zm2.393-5.738L386.7,14.8c.635-.077,1.027-.141,1.452-.227a5.212,5.212,0,0,0-1.031-.329l.277-.451-1.94.232Zm.183,2.241a15.973,15.973,0,0,1-.189,3.8,4.56,4.56,0,0,0,.573-.016c.359-.043.446-.193.468-.736a29.907,29.907,0,0,0-.217-3.125Z" fill="#132b53"/><path d="M395.5,10.242a4.8,4.8,0,0,0,.881-.053,20.392,20.392,0,0,0,5.169-1.177l1.775,2.452a8.623,8.623,0,0,0-1.956,2.132,7.242,7.242,0,0,0-1.488,4.879,2.429,2.429,0,0,0,2.78,2.419,3,3,0,0,0,2.5-2.25,10.083,10.083,0,0,0,.158-4.059,13.093,13.093,0,0,0-1.383-4.709l2.8-1.155a12.435,12.435,0,0,0,5.223,5.956l-1.1,3.023-.172-.137-.27-.212a12.483,12.483,0,0,1-2.5-2.59,11.838,11.838,0,0,1,.294,1.585,7.608,7.608,0,0,1-.742,4.7,5.659,5.659,0,0,1-4.379,2.84,6.105,6.105,0,0,1-3.438-.511,5.678,5.678,0,0,1-2.793-4.418,8.661,8.661,0,0,1,1.268-5.394c.249-.4.442-.679.892-1.273a15.5,15.5,0,0,1-2.2.559,7.937,7.937,0,0,0-.912.231Zm12.843-2.811a12.155,12.155,0,0,1,1.48,2.609l-1.3.592a13.066,13.066,0,0,0-1.466-2.645Zm2.136,2.27a11.448,11.448,0,0,0-1.418-2.529l1.278-.519a10.1,10.1,0,0,1,1.426,2.458Z" fill="#132b53"/><path d="M419.343,13.183a44.349,44.349,0,0,1,4.708,1.508,13.167,13.167,0,0,1-1.045-2.469l-5.75.689a20.418,20.418,0,0,1-.271,5.152,12.331,12.331,0,0,1-1.338,3.8,13.5,13.5,0,0,0-2.245-2.169,8.125,8.125,0,0,0,1.016-2.855,25.6,25.6,0,0,0-.151-7.364,16.445,16.445,0,0,0-.385-2.34,23.091,23.091,0,0,0,2.45-.189L424.9,5.918c.91-.109,1.576-.223,2.17-.346a16.225,16.225,0,0,0,.141,1.759l.311,2.592A15.34,15.34,0,0,0,427.8,11.7c-.484.023-1.225.094-2.066.2l-.1.012a9.194,9.194,0,0,0,1.56,2.861A8.818,8.818,0,0,0,430,17.13a14.766,14.766,0,0,0-1.072,2.827,12.4,12.4,0,0,1-3.1-2.658,14.758,14.758,0,0,1-1.415-1.937l-1.035,1.97a32.289,32.289,0,0,0-5.4-1.93Zm5.484-3.495L424.673,8.4l-7.776.932.1.807c.025.206.043.36.058.48Zm-6.238,7.956c1.31.174,1.787.239,3.854.635,1.248.234,2,.422,4,.948l-1.067,2.584a38.619,38.619,0,0,0-7.989-1.724Z" fill="#132b53"/><path d="M442.341,5.308a17.06,17.06,0,0,0-1.96,2.1c-.891.995-2.147,2.277-3.807,3.834-.422.4-.513.515-.495.669.026.206.026.206,1.781,1.2,2.034,1.131,3.635,2.141,5.74,3.578.113.073.281.175.586.382l-2.156,2.8a12.91,12.91,0,0,0-1.923-1.667,55.4,55.4,0,0,0-5.568-3.6,4.445,4.445,0,0,1-1.559-1.24,2.809,2.809,0,0,1-.393-1.1,2.526,2.526,0,0,1,.438-1.724,11.936,11.936,0,0,1,1.408-1.475,38.246,38.246,0,0,0,4.059-4.334,6.307,6.307,0,0,0,.74-1.1Z" fill="#132b53"/><path d="M452.537,2.78a20.236,20.236,0,0,0,.2,3.127c1.761-.28,2.444-.4,4.338-.711-.01-.086-.017-.137-.022-.188-.125-1.048-.351-2.344-.49-2.919l2.953-.354a12.251,12.251,0,0,0,.108,1.624l.136,1.132c0,.035.016.138.033.275,2.527-.407,2.527-.407,3.086-.544l.367,2.916c-.588.036-.9.056-1.448.121-.224.027-.276.034-1.681.219.307,2.558.235,3.559-.329,4.375a2.724,2.724,0,0,1-1.992.953,8.155,8.155,0,0,1-2.674-.219c-.022-.189-.032-.275-.051-.43a12.561,12.561,0,0,0-.489-2.344,6.068,6.068,0,0,0,2.4.392c.549-.066.613-.4.415-2.348-1.574.241-3.024.484-4.372.715a31.959,31.959,0,0,0,.742,5.03c.331.866,1.011,1.029,3.226.763a16.464,16.464,0,0,0,5.279-1.416l.569,3.136c-.716.138-.716.138-1.679.375a35.13,35.13,0,0,1-3.972.719,11.411,11.411,0,0,1-3.672,0,3.21,3.21,0,0,1-2.488-2.591,38.711,38.711,0,0,1-.7-4.5c-.026-.223-.072-.6-.125-1.047a25.846,25.846,0,0,0-2.888.607L446.8,6.81a3.879,3.879,0,0,0,.587-.035c.258-.031,1.078-.164,2.495-.4-.027-.224-.045-.378-.062-.515a14.948,14.948,0,0,0-.463-2.7Z" fill="#132b53"/><path d="M466.248,1.4a19.4,19.4,0,0,0,2.487-.176c1.526-.183,3.424-.48,5.141-.825a3.483,3.483,0,0,0,1.277-.4l1.656,1.909a18.536,18.536,0,0,0-2.495,2.58c-.817.881-1.1,1.175-2.144,2.154a8.291,8.291,0,0,1,2.315-.59,5.3,5.3,0,0,1,3.812.727,3.838,3.838,0,0,1,1.61,2.819,4.516,4.516,0,0,1-1.886,4.318,9.381,9.381,0,0,1-4.419,1.626c-2.9.348-4.807-.59-5.034-2.495-.192-1.6,1.094-2.917,3.087-3.156a3.979,3.979,0,0,1,4.182,2.215,1.941,1.941,0,0,0,1.131-2.034c-.143-1.2-1.4-1.8-3.3-1.571a9.942,9.942,0,0,0-5.1,2.213,12.777,12.777,0,0,0-1.493,1.485l-1.91-2.418a38.092,38.092,0,0,0,6.651-6.543c-.9.211-1.58.328-3.986.738-.461.073-.783.146-1.123.222Zm5.6,10.682c-.4.047-.643.3-.6.647.055.463.639.689,1.567.579a2.635,2.635,0,0,0,.559-.121c-.321-.8-.855-1.186-1.524-1.105" fill="#132b53"/></g></svg>