<svg id="グループ_6" data-name="グループ 6" xmlns="http://www.w3.org/2000/svg" width="177.99" height="21.959" viewBox="0 0 177.99 21.959">
  <g id="グループ_5" data-name="グループ 5" transform="translate(0 0)">
    <path id="合体_1" data-name="合体 1" d="M13.373,18.59,24.4,6.952l5.064-5.024L34.542,0,40.28,5.556l2.205-2.328L42.706,3l3.749,3.957L57.482,18.589H55.776L46.99,11.635l-.442,1.351-4.422-6.3L40.8,8.032l1.769,4.5L33.283,6.682l-5.306-.45L14.655,18.59ZM0,18.59,5.49,12.8,9.772,8.277,11.2,9.783,13.4,12.1l1.1-1.159.109-.116,1.688,1.781-.244.257-.4.418-.791-.835-2.8,2.789-1.326-2.7-5.306,3.6.064-1.991L1.28,18.59Z" transform="translate(0 1.915)" fill="#224d8d"/>
    <path id="合体_2" data-name="合体 2" d="M50.871,21.959l3.138-5.432L49.548,5.607h3.124l3.084,7.969L60.27,5.607h3.349L54.2,21.959Zm-49.548,0,3.138-5.432L0,5.607H3.124l3.084,7.969,4.514-7.969h3.349L4.653,21.959Zm99.469-5.273a6.141,6.141,0,0,1-1.562-4.355,7.243,7.243,0,0,1,1.787-5.057A6.029,6.029,0,0,1,105.664,5.3a5.373,5.373,0,0,1,2.277.437,6.358,6.358,0,0,1,1.946,1.509l.2-1.642h2.925l-1.535,12.469h-2.926l.172-1.35a5.879,5.879,0,0,1-3.892,1.641A5.259,5.259,0,0,1,100.792,16.686Zm2.488-7.651a4.715,4.715,0,0,0-1.112,3.177A3.9,3.9,0,0,0,103.1,14.9a3.038,3.038,0,0,0,2.383,1.046,3.639,3.639,0,0,0,2.793-1.311,4.611,4.611,0,0,0,1.178-3.15A3.805,3.805,0,0,0,108.5,8.8a3.179,3.179,0,0,0-2.462-1.046A3.5,3.5,0,0,0,103.281,9.035ZM65.116,16.686a6.141,6.141,0,0,1-1.562-4.355,7.243,7.243,0,0,1,1.787-5.057A6.028,6.028,0,0,1,69.987,5.3a5.373,5.373,0,0,1,2.277.437A6.361,6.361,0,0,1,74.21,7.248l.2-1.642h2.925L75.8,18.076H72.873l.172-1.35a5.878,5.878,0,0,1-3.892,1.641A5.259,5.259,0,0,1,65.116,16.686ZM67.6,9.035a4.715,4.715,0,0,0-1.112,3.177,3.9,3.9,0,0,0,.926,2.687A3.038,3.038,0,0,0,69.8,15.945a3.638,3.638,0,0,0,2.793-1.311,4.609,4.609,0,0,0,1.178-3.15A3.806,3.806,0,0,0,72.82,8.8a3.179,3.179,0,0,0-2.462-1.046A3.5,3.5,0,0,0,67.6,9.035ZM16.745,17.189A4.006,4.006,0,0,1,15.369,14q0-.3.033-.715t.1-.94l.821-6.738h2.925l-.861,7q-.053.451-.08.788t-.026.563q0,1.973,2.316,1.972a2.4,2.4,0,0,0,1.853-.649,4.146,4.146,0,0,0,.795-2.277l.913-7.4H27.07l-.887,7.254a14.687,14.687,0,0,1-.265,1.615,8.033,8.033,0,0,1-.344,1.152A3.95,3.95,0,0,1,24.33,17.2a6.142,6.142,0,0,1-3.9,1.165A5.466,5.466,0,0,1,16.745,17.189Zm26.317.887L44.6,5.607h2.926l-1.536,12.47Zm-5.771,0-4.541-5.93-.728,5.93H29.1L31.322,0h2.926L32.962,10.452,38.2,5.607h3.905L35.569,11.3l5.255,6.778Zm56.022,0,.9-7.214a13.956,13.956,0,0,0,.119-1.482A1.445,1.445,0,0,0,92.69,7.751a3.012,3.012,0,0,0-1.125.191,2.043,2.043,0,0,0-.814.6,3.242,3.242,0,0,0-.556,1.045,8.182,8.182,0,0,0-.337,1.529l-.847,6.962H86.084l.913-7.4q.119-1.005.119-1.377,0-1.549-1.681-1.549-2.435,0-2.846,3.375l-.861,6.949H78.8L80.339,5.607h3.018l-.132,1.165a4.708,4.708,0,0,1,3.429-1.482,3.185,3.185,0,0,1,1.813.436,3.449,3.449,0,0,1,1.138,1.549,5.45,5.45,0,0,1,4-1.972q3.707,0,3.706,3.4,0,.345-.06.967t-.166,1.536l-.847,6.87ZM45.193,2.931a1.651,1.651,0,0,1-.463-1.152,1.494,1.494,0,0,1,.45-1.1,1.5,1.5,0,0,1,1.1-.463A1.52,1.52,0,0,1,47.4.707a1.533,1.533,0,0,1,.49,1.138,1.5,1.5,0,0,1-.463,1.1,1.516,1.516,0,0,1-1.112.463A1.539,1.539,0,0,1,45.193,2.931Z" transform="translate(64.98 0)" fill="#224d8d"/>
  </g>
</svg>
