<svg xmlns="http://www.w3.org/2000/svg" width="27.913" height="30.693" viewBox="0 0 27.913 30.693">
  <g id="Group_250" data-name="Group 250" transform="translate(0 0)">
    <path id="Path_1981" data-name="Path 1981" d="M1685.14,313.161c-.078-.845-.157-1.491.941-1.952a4.661,4.661,0,0,0,2.292-5.892,4.786,4.786,0,0,0-5.726-2.92c-.331.087-.671.174-1.089.288a7.77,7.77,0,0,0-1.412-4.907,6.071,6.071,0,0,0-6.136-2.38,5.729,5.729,0,0,0-4.672,3.94c-.4,1.124-.932,1.491-1.987,1.377-.061-2.9,2.388-6.023,5.823-6.9a7.751,7.751,0,0,1,6.5,1.177,8.571,8.571,0,0,1,3.486,5.5c4.986-.044,7.453,3.382,7.148,7.13-.235,2.868-2.842,5.753-5.178,5.561Z" transform="translate(-1662.42 -293.546)" fill="#fff"/>
    <path id="Path_1982" data-name="Path 1982" d="M1665.02,314.111a5.465,5.465,0,0,1-3.321-4.82,2.684,2.684,0,0,1,.6-1.778c1.229-1.386,2.589-2.658,3.9-3.966a4.629,4.629,0,0,1,.619-.558c.724-.506,1.176-.314,1.351.549a6.513,6.513,0,0,1,.122.723c.018.166,0,.34,0,.619-.34.017-.636.044-.941.052a3.971,3.971,0,0,0-3.452,5.944,27.284,27.284,0,0,1,1.116,3.234Z" transform="translate(-1661.694 -294.723)" fill="#fff"/>
    <path id="Path_1983" data-name="Path 1983" d="M1672.784,328.506h-1.534V326.78h1.534Z" transform="translate(-1662.921 -297.813)" fill="#fff"/>
    <path id="Path_1984" data-name="Path 1984" d="M1681.969,318.279h1.787a5.178,5.178,0,0,1-.227,1.578,1.252,1.252,0,0,1-1.116.009,5.063,5.063,0,0,1-.453-1.6Z" transform="translate(-1664.296 -296.72)" fill="#fff"/>
    <path id="Path_1985" data-name="Path 1985" d="M1676.53,324a3.519,3.519,0,0,1,.4-1.351.879.879,0,0,1,1.238,1.212,3.543,3.543,0,0,1-1.334.444c-.1-.1-.2-.2-.305-.3Z" transform="translate(-1663.599 -297.269)" fill="#fff"/>
    <path id="Path_1986" data-name="Path 1986" d="M1683.737,314.2v1.447h-1.517V314.2Z" transform="translate(-1664.329 -296.198)" fill="#fff"/>
    <path id="Path_1987" data-name="Path 1987" d="M1678.4,318.927c-.052.854-.418,1.159-1.063,1.037-.27-.052-.5-.392-.741-.6l1.151-1.133c.218.227.436.462.654.689Z" transform="translate(-1663.608 -296.715)" fill="#fff"/>
    <path id="Path_1988" data-name="Path 1988" d="M1676.666,309.889h1.491c.244,1.525.078,1.682-1.464,1.368-.018-.209-.052-.445-.052-.68,0-.2.017-.41.035-.7Z" transform="translate(-1663.613 -295.643)" fill="#fff"/>
    <path id="Path_1989" data-name="Path 1989" d="M1672.8,324.167h-1.421c.523-.558.906-.959,1.421-1.517Z" transform="translate(-1662.938 -297.282)" fill="#fff"/>
    <path id="Path_1990" data-name="Path 1990" d="M1683.05,309.96c.916,0,.95.087.436,1.456C1683.346,310.945,1683.207,310.474,1683.05,309.96Z" transform="translate(-1664.436 -295.653)" fill="#fff"/>
  </g>
</svg>
