<svg id="Group_925" data-name="Group 925" xmlns="http://www.w3.org/2000/svg" xmlns:xlink="http://www.w3.org/1999/xlink" width="25.189" height="21.547" viewBox="0 0 25.189 21.547">
  <defs>
    <clipPath id="clip-path">
      <rect id="Rectangle_567" data-name="Rectangle 567" width="25.189" height="21.547" fill="none"/>
    </clipPath>
  </defs>
  <g id="Group_923" data-name="Group 923" clip-path="url(#clip-path)">
    <path id="Path_2928" data-name="Path 2928" d="M23.018.049C16.994,3.461,12.127,9.687,10.736,11.573a.609.609,0,0,1-.907.082L4.146,6.339a.637.637,0,0,0-.875,0L.2,9.278a.637.637,0,0,0-.057.86l8.926,11.1a.842.842,0,0,0,.7.313l2.954-.163a.844.844,0,0,0,.75-.57A51.633,51.633,0,0,1,25.076,1.4a.377.377,0,0,0-.105-.61l-1.6-.755a.38.38,0,0,0-.348.012" transform="translate(0 0)" fill="#0072ba"/>
  </g>
</svg>
