<svg xmlns="http://www.w3.org/2000/svg" width="51.506" height="16.352" viewBox="0 0 51.506 16.352">
  <path id="Path_2869" data-name="Path 2869" d="M308.362,4276.546l.356-.368.219-.225-1.512-1.565-.1.1-.984,1.019-1.969-2.038-1.281-1.324-3.836,3.973-4.915,5.092h1.144l3.771-3.906-.059,1.748,4.755-3.166,1.186,2.377,2.508-2.455.706.736Zm27.594-5.567-3.356-3.48-.2.2-1.974,2.046-5.141-4.886-4.548,1.7-4.536,4.418-9.878,10.233h1.15l11.935-10.868,4.755.4,8.318,5.146-1.583-3.96,1.186-1.186,3.961,5.544.4-1.186,7.868,6.119h1.53l-9.878-10.233Z" transform="translate(-294.34 -4264.859)" fill="#153666" opacity="0.626"/>
</svg>
