<svg xmlns="http://www.w3.org/2000/svg" width="80" height="70" viewBox="0 0 80 70"><g transform="translate(-579 -4395)"><rect width="80" height="70" transform="translate(579 4395)" fill="none"/><g transform="translate(595 4406)"><g transform="translate(0)"><path d="M1357.747,558.094a23.6,23.6,0,1,1,23.6-23.6A23.628,23.628,0,0,1,1357.747,558.094Zm0-44.924a21.322,21.322,0,1,0,21.322,21.322A21.346,21.346,0,0,0,1357.747,513.17Z" transform="translate(-1334.145 -510.891)" fill="#153666"/></g><g transform="translate(11.809 21.355)"><ellipse cx="2.246" cy="2.246" rx="2.246" ry="2.246" fill="#153666"/><g transform="translate(9.546)"><ellipse cx="2.246" cy="2.246" rx="2.246" ry="2.246" fill="#153666"/></g><g transform="translate(19.093)"><ellipse cx="2.246" cy="2.246" rx="2.246" ry="2.246" fill="#153666"/></g></g></g></g></svg>