<svg xmlns="http://www.w3.org/2000/svg" width="23.373" height="23.352" viewBox="0 0 23.373 23.352">
  <g id="Group_9" data-name="Group 9" transform="translate(0)">
    <path id="Path_163" data-name="Path 163" d="M1520.128,398.445c-4.1-.326-10.086,1.035-13.429-1.541-3.755-3.14-1.982-9.84-2.38-14.261.2-8.965,7.85-7.308,14.311-7.423,5.347-.318,9.073,1.859,8.906,7.64-.268,6.613,2.084,15.433-7.416,15.585Zm-4.175-21.163v.051c-4.341.1-9.464-.926-9.449,5.108-.043,2.438-.051,4.877-.043,7.315-.1,2.742.354,5.969,3.632,6.367a101.761,101.761,0,0,0,11.019.1c4.573-.217,4.37-4.377,4.327-7.85-.333-3.987,1.476-10.658-4.349-10.947-1.708-.087-3.422-.1-5.137-.145Z" transform="translate(-1504.239 -375.168)" fill="#153666"/>
    <path id="Path_164" data-name="Path 164" d="M1524.117,389.028c-.123,7.857-11.815,7.872-11.967.022C1512.172,381.207,1524.081,381.2,1524.117,389.028Zm-2.134.022c0-5.057-7.669-5.05-7.7-.051C1514.27,394.071,1521.961,394.071,1521.983,389.05Z" transform="translate(-1506.426 -377.378)" fill="#153666"/>
    <path id="Path_165" data-name="Path 165" d="M1529.852,382.2a1.411,1.411,0,0,1-2.822-.029A1.411,1.411,0,0,1,1529.852,382.2Z" transform="translate(-1510.54 -376.726)" fill="#153666"/>
  </g>
</svg>
