<svg xmlns="http://www.w3.org/2000/svg" width="80" height="70" viewBox="0 0 80 70"><g transform="translate(-73 -4395)"><rect width="80" height="70" transform="translate(73 4395)" fill="none"/><g transform="translate(85 4407)"><path d="M403.611,638.89c-.2-.225-5.039-5.54-7.527-8.028a24.129,24.129,0,0,0-10.3-6.308,43.772,43.772,0,0,0-10.272-1.283,31.959,31.959,0,0,0-10.874,1.563c-8.974,3.076-16.71,12.961-17.035,13.38a1.207,1.207,0,0,0,1.908,1.479c.075-.1,7.625-9.735,15.91-12.576a29.794,29.794,0,0,1,10.091-1.432,41.334,41.334,0,0,1,9.694,1.213,21.94,21.94,0,0,1,9.169,5.671c2.447,2.447,7.4,7.89,7.448,7.945a1.207,1.207,0,0,0,1.786-1.624Z" transform="translate(-347.353 -596.197)" fill="#153666"/><path d="M499.652,649.026a10.581,10.581,0,0,0-3.747,5.366,18.58,18.58,0,0,0-1.069,5.918,1.218,1.218,0,0,0,1.218,1.2h.016a1.22,1.22,0,0,0,1.2-1.233,16.387,16.387,0,0,1,.927-5.065,8.493,8.493,0,0,1,2.743-4.118,1.219,1.219,0,0,0-1.292-2.067Z" transform="translate(-462.154 -616.1)" fill="#153666"/><path d="M374.743,524.671a65.267,65.267,0,0,1,7.522-7.042,18.607,18.607,0,0,1,8.542-2.849l.35-.017c3.2-.157,11.7-.576,15.275,1.634,5.349,3.3,12.173,10.467,12.241,10.538A1.189,1.189,0,1,0,420.4,525.3c-.287-.3-7.1-7.458-12.716-10.925-2.78-1.717-7.526-2.112-11.5-2.13l-.219-5.034a1.567,1.567,0,0,0,.281.012l4.741-.242a1.517,1.517,0,0,0,1.436-1.605l-.173-2.848a1.526,1.526,0,0,0-1.619-1.427l-5.3.348a1.456,1.456,0,0,0-.46.106,1,1,0,0,0-.164-.009,1.008,1.008,0,0,0-.963,1.051l.421,9.67c-1.219.029-2.3.082-3.125.123l-.348.017a20.772,20.772,0,0,0-9.884,3.345,67.825,67.825,0,0,0-7.825,7.322,1.189,1.189,0,0,0,1.76,1.6Z" transform="translate(-367.063 -501.095)" fill="#153666"/><path d="M500.373,572.546c-2.357,1.7-3.64,6.611-3.778,7.165a1.189,1.189,0,0,0,2.307.578c.444-1.769,1.614-4.912,2.864-5.814a1.189,1.189,0,1,0-1.393-1.928Z" transform="translate(-463.495 -556.537)" fill="#153666"/></g></g></svg>