<svg xmlns="http://www.w3.org/2000/svg" width="80" height="70" viewBox="0 0 80 70"><g transform="translate(-490 -4395)"><rect width="80" height="70" transform="translate(490 4395)" fill="none"/><g transform="translate(505 4407)"><path d="M1046.873,511.053l-12.278-.026a1.035,1.035,0,0,1-1.029-1.031V499.164a1.028,1.028,0,0,0-.548-.9,1.167,1.167,0,0,0-.206-.216l-8.616-7.24a1.4,1.4,0,0,0-1.727,0l-8.616,7.24a1.175,1.175,0,0,0-.2.213,1.028,1.028,0,0,0-.553.906V510a1.035,1.035,0,0,1-1.029,1.031l-12.275.026a1.035,1.035,0,0,0-1.029,1.031v23.378a1.032,1.032,0,0,0,1.029,1.029h18.189a1.032,1.032,0,0,0,1.029-1.029v-7.191a1.032,1.032,0,0,1,1.029-1.029h6.584a1.032,1.032,0,0,1,1.029,1.029v7.191a1.032,1.032,0,0,0,1.029,1.029h18.191a1.032,1.032,0,0,0,1.029-1.029V512.085A1.035,1.035,0,0,0,1046.873,511.053Zm-38.014,19.9a.206.206,0,0,1-.206.206h-3.4a.206.206,0,0,1-.206-.206v-3.786a.206.206,0,0,1,.206-.206h3.4a.206.206,0,0,1,.206.206Zm0-10.741a.206.206,0,0,1-.206.206h-3.4a.207.207,0,0,1-.206-.206v-3.787a.206.206,0,0,1,.206-.206h3.4a.206.206,0,0,1,.206.206Zm16.381,0a.206.206,0,0,1-.206.206h-3.4a.207.207,0,0,1-.206-.206v-3.787a.206.206,0,0,1,.206-.206h3.4a.206.206,0,0,1,.206.206Zm-1.907-11.442A3.667,3.667,0,1,1,1027,505.1,3.672,3.672,0,0,1,1023.332,508.769Zm18.289,22.183a.207.207,0,0,1-.206.206h-3.406a.206.206,0,0,1-.206-.206v-3.786a.206.206,0,0,1,.206-.206h3.406a.207.207,0,0,1,.206.206Zm0-10.741a.207.207,0,0,1-.206.206h-3.406a.207.207,0,0,1-.206-.206v-3.787a.206.206,0,0,1,.206-.206h3.406a.207.207,0,0,1,.206.206Z" transform="translate(-998.763 -490.505)" fill="#fff"/><path d="M1109.093,547.668a.6.6,0,0,0-1.206,0v2h-1.425a.632.632,0,1,0,0,1.264h1.881a.639.639,0,0,0,.348-.1.6.6,0,0,0,.4-.566h0Z" transform="translate(-1083.795 -535.426)" fill="#fff"/></g></g></svg>