<svg xmlns="http://www.w3.org/2000/svg" width="25.905" height="29.069" viewBox="0 0 25.905 29.069">
  <path id="Path_1991" data-name="Path 1991" d="M1676.359,348.76v4.358c.959-.549,1.822-1.046,2.745-1.569.271.471.523.906.811,1.386-1.072.619-2.083,1.229-3.112,1.8a.79.79,0,0,0-.462.811c.026,1.918.009,3.844.009,5.761,0,.166.017.331.034.584.732-.418,1.395-.8,2.057-1.185,1.15-.662,2.319-1.316,3.452-2.013a.993.993,0,0,0,.4-.7c.043-1.2.018-2.406.018-3.635h1.586v3.173c1.325-.767,2.536-1.464,3.774-2.17.27.471.531.915.8,1.395-1.22.715-2.423,1.412-3.73,2.179.941.549,1.813,1.063,2.754,1.612-.261.453-.506.889-.8,1.395-1.045-.6-2.066-1.168-3.068-1.778a.876.876,0,0,0-1.037,0c-1.769,1.055-3.556,2.074-5.421,3.155.462.27.836.505,1.22.732,1.377.8,2.763,1.578,4.114,2.406a1.008,1.008,0,0,0,1.212-.017c.95-.593,1.926-1.124,2.963-1.717.262.445.523.872.828,1.377-.906.532-1.787,1.046-2.771,1.621,1.281.75,2.484,1.456,3.731,2.179-.262.462-.514.906-.793,1.395-1.229-.706-2.441-1.4-3.757-2.162v3.164H1682.3c0-1.159-.026-2.319.009-3.469a.92.92,0,0,0-.558-.959c-1.778-.994-3.53-2.031-5.413-3.112v.967c0,1.787.018,3.582-.009,5.369a.837.837,0,0,0,.5.854c1.011.558,2.013,1.151,3.077,1.769-.261.471-.514.906-.793,1.395-.906-.523-1.778-1.02-2.737-1.569v4.288h-1.656v-4.306c-.994.558-1.874,1.055-2.789,1.578-.271-.462-.523-.889-.8-1.377,1.054-.61,2.065-1.22,3.085-1.787a.849.849,0,0,0,.5-.863c-.026-2.066-.009-4.14-.009-6.276a4.753,4.753,0,0,0-.444.192c-1.691.976-3.382,1.961-5.082,2.929a.75.75,0,0,0-.436.767c.026,1.185,0,2.371,0,3.591h-1.586v-3.164c-1.325.767-2.528,1.456-3.765,2.17-.262-.453-.523-.9-.811-1.386,1.22-.715,2.44-1.43,3.73-2.179-.941-.558-1.822-1.072-2.754-1.621.27-.462.523-.906.793-1.386,1.1.628,2.153,1.246,3.225,1.83a.754.754,0,0,0,.619.07c1.874-1.055,3.722-2.135,5.648-3.242a3.611,3.611,0,0,0-.427-.331c-1.691-.976-3.391-1.944-5.073-2.937a.68.68,0,0,0-.811.009c-1.028.619-2.074,1.2-3.181,1.83-.27-.462-.523-.9-.8-1.386.915-.532,1.8-1.046,2.763-1.613-1.29-.75-2.5-1.464-3.74-2.179.279-.479.531-.924.8-1.395,1.229.706,2.432,1.4,3.722,2.153v-3.138h1.639c0,1.212-.018,2.414.018,3.617a.881.881,0,0,0,.348.662c1.752,1.046,3.521,2.057,5.291,3.086a2.129,2.129,0,0,0,.305.122v-3.6c0-.924-.018-1.857,0-2.78a.7.7,0,0,0-.41-.715c-1.046-.584-2.074-1.2-3.155-1.839.261-.462.505-.889.793-1.395.907.523,1.787,1.02,2.754,1.578V348.76h1.674Z" transform="translate(-1662.57 -348.76)" fill="#fff"/>
</svg>
