<svg xmlns="http://www.w3.org/2000/svg" width="45" height="53" viewBox="0 0 45 53">
  <g id="icon-rift" transform="translate(-578 -4130)">
    <rect id="Rectangle_740" data-name="Rectangle 740" width="45" height="53" transform="translate(578 4130)" fill="rgba(255,255,255,0)"/>
    <g id="Group_689" data-name="Group 689" transform="translate(586 4139.552)">
      <ellipse id="Ellipse_187" data-name="Ellipse 187" cx="3.023" cy="3.023" rx="3.023" ry="3.023" transform="translate(11.377 7.682)" fill="#224d8d"/>
      <path id="Path_2876" data-name="Path 2876" d="M-1174.776,590.8a2.587,2.587,0,0,0-2.463-1.064c-1.4,0-2.3,3.3-2.3,3.3s-.728,2.743-1.064,3.751-.336,3.079,1.68,3.359c1.117.155,4.81.31,6.305.368a.657.657,0,0,1,.631.664l-.1,4.85a.4.4,0,0,0,.5.389l1.156-.374a.707.707,0,0,0,.524-.633c.1-1.481.45-5.725-.112-6.55-.84-1.232-5.878-1.4-5.878-1.4l.784-3.247a40.35,40.35,0,0,0,4.479,3.135c1.12.448.784-1.008.784-1.008a19.528,19.528,0,0,0-1.847-1.847A40.613,40.613,0,0,1-1174.776,590.8Z" transform="translate(1189.96 -575.339)" fill="#224d8d"/>
      <path id="Path_2877" data-name="Path 2877" d="M-1168.7,489.335a.739.739,0,0,0,.364-.98.739.739,0,0,0-.98-.364l-8.122,3.72.613,1.346Z" transform="translate(1187.106 -487.923)" fill="#224d8d"/>
      <path id="Path_2878" data-name="Path 2878" d="M-1245.346,538.7a.739.739,0,0,0-.364.98.739.739,0,0,0,.673.432.735.735,0,0,0,.307-.067l2.124-.973-.613-1.346Z" transform="translate(1245.777 -530.68)" fill="#224d8d"/>
      <path id="Path_2879" data-name="Path 2879" d="M-1154.342,665.274a.74.74,0,0,0-.794.679c0,.026-.229,2.594-2.129,3.408-1.626.7-15.057,5.646-15.192,5.7a.739.739,0,0,0-.438.949.74.74,0,0,0,.694.484.742.742,0,0,0,.255-.046c.555-.2,13.6-5.013,15.263-5.725,2.733-1.171,3.011-4.514,3.021-4.656A.738.738,0,0,0-1154.342,665.274Z" transform="translate(1183.243 -640.19)" fill="#224d8d"/>
      <path id="Path_2880" data-name="Path 2880" d="M-1206.191,542.185V557.4c0,3.244,1.96,4.2,3.6,4.427,1.978.276,3.453.366,4.334.419.205.012.381.023.528.034l.055,0a.74.74,0,0,0,.737-.685.74.74,0,0,0-.683-.792c-.152-.011-.334-.022-.547-.035-.86-.052-2.3-.14-4.22-.407-1.611-.225-2.33-1.139-2.33-2.963v-15.89Z" transform="translate(1211.79 -533.933)" fill="#224d8d"/>
      <path id="Path_2881" data-name="Path 2881" d="M-1216.794,514.534a.179.179,0,0,0,.089-.237l-1.306-2.869a.18.18,0,0,0-.238-.089l-4.616,2.1a.18.18,0,0,0-.089.238l1.307,2.868a.179.179,0,0,0,.238.089l.813-.37,1.479-.673Z" transform="translate(1226.196 -508.014)" fill="#224d8d"/>
    </g>
  </g>
</svg>
