<svg xmlns="http://www.w3.org/2000/svg" width="90" height="90" viewBox="0 0 90 90">
  <g id="Group_1345" data-name="Group 1345" transform="translate(-892 -4022)">
    <rect id="Rectangle_752" data-name="Rectangle 752" width="90" height="90" transform="translate(892 4022)" fill="none"/>
    <g id="Group_1343" data-name="Group 1343" transform="translate(900 4028)">
      <path id="パス_1992" data-name="パス 1992" d="M1090.555,795.152c3-3.758,5.941-7.435,8.986-11.255-.713-.4-1.324-.778-1.952-1.07-4.325-2.122-8.675-4.179-12.959-6.342-3.487-1.765-5.164-4.451-4.285-7.415a20.852,20.852,0,0,1,2.876-4.977c.146-.231.988-.231,1.385-.065a100.345,100.345,0,0,1,25.242,14.51,4.441,4.441,0,0,1,.34,7.014c-3.734,3.863-7.52,7.686-11.279,11.509-.38.377-.737.8-1.219,1.358,1.847.839,3.548,1.616,5.269,2.394,5.985,2.716,11.951,5.479,17.932,8.188a18.557,18.557,0,0,0,2.75.944,2.431,2.431,0,0,0,3.056-1.324,2.038,2.038,0,0,1,3.151-1.018c1.3.8,1.093,2.017.441,3.212a6.572,6.572,0,0,1-7.286,3.317,18.313,18.313,0,0,1-3.612-1.219q-28.179-12.82-56.324-25.7a3.856,3.856,0,0,1-2.016-2.057c-.482-1.68,1.45-2.716,3.395-1.847,4.831,2.163,9.639,4.39,14.47,6.573q5.8,2.645,11.615,5.293Z" transform="translate(-1057.526 -735.864)" fill="#626161"/>
      <path id="パス_1993" data-name="パス 1993" d="M1061.461,719.211c5.9,2.669,11.716,5.293,17.536,7.9a5.341,5.341,0,0,0,6.383-1.069c1.555-1.47,3.055-3,4.62-4.451a6.96,6.96,0,0,1,11.761,2c1.847,3.507,3.734,7.014,5.479,10.562a2.268,2.268,0,0,0,2.394,1.45c3.527,0,7.075.085,10.606.19,2.438.064,3.884,1.358,3.928,3.422s-1.3,3.422-3.7,3.718c-4.893.607-9.789,1.219-14.68,1.871a4.55,4.55,0,0,1-4.472-1.871c-1.911-2.377-3.887-4.682-6.05-7.265-1.405,2.583-3.086,1.358-4.787.588q-15.309-6.929-30.681-13.838c-1.134.988-1.3,3.8-3.7,2.377-1.741-1.049-.316-2.478.146-3.9q-1.528-.723-3.056-1.45c-1.019-.482-1.6-1.429-.944-2.353a2.683,2.683,0,0,1,2.248-.862,16,16,0,0,1,3.395,1.406c1.049-1.093,1.358-3.612,3.592-2.393,1.826,1.018.339,2.584-.065,3.989Z" transform="translate(-1051.974 -705.641)" fill="#626161"/>
      <path id="パス_1994" data-name="パス 1994" d="M1174.357,698.534a7.955,7.955,0,1,1,0,.144C1174.356,698.63,1174.357,698.582,1174.357,698.534Z" transform="translate(-1127.447 -690.739)" fill="#626161"/>
    </g>
  </g>
</svg>
