<svg xmlns="http://www.w3.org/2000/svg" width="45" height="53" viewBox="0 0 45 53">
  <g id="icon-snow-cover" transform="translate(-195 -4130)">
    <rect id="Rectangle_738" data-name="Rectangle 738" width="45" height="53" transform="translate(195 4130)" fill="rgba(255,255,255,0)"/>
    <path id="Path_171" data-name="Path 171" d="M746.664,2039.7v3.922c.867-.493,1.647-.939,2.474-1.416.247.421.477.819.724,1.249-.971.565-1.878,1.106-2.809,1.615a.727.727,0,0,0-.422.732c.024,1.727.008,3.461.008,5.187,0,.152.016.295.032.533.66-.382,1.257-.724,1.854-1.066,1.042-.6,2.084-1.185,3.111-1.814a.879.879,0,0,0,.358-.628c.04-1.082.016-2.164.016-3.278h1.432v2.864c1.193-.684,2.283-1.313,3.4-1.957.246.429.477.827.724,1.257-1.106.645-2.188,1.273-3.365,1.957.851.493,1.631.955,2.482,1.456-.231.406-.461.8-.716,1.257-.939-.541-1.862-1.058-2.761-1.6a.788.788,0,0,0-.939,0c-1.591.955-3.207,1.87-4.885,2.848.414.247.756.454,1.1.661,1.241.716,2.49,1.416,3.707,2.163a.9.9,0,0,0,1.09-.015c.851-.533,1.742-1.011,2.673-1.544.239.4.469.787.74,1.241-.812.478-1.607.939-2.5,1.464,1.154.677,2.236,1.313,3.358,1.966-.239.414-.462.811-.716,1.257l-3.381-1.949v2.848H752c0-1.042-.024-2.085.008-3.127a.823.823,0,0,0-.5-.859c-1.6-.9-3.182-1.83-4.877-2.809v.875c0,1.615.016,3.23-.008,4.837a.758.758,0,0,0,.446.772c.915.5,1.814,1.043,2.769,1.6-.239.422-.461.82-.716,1.257-.82-.469-1.6-.914-2.466-1.416v3.858h-1.488v-3.874c-.891.5-1.687.955-2.514,1.416-.247-.422-.469-.8-.724-1.241.955-.556,1.862-1.1,2.785-1.607a.753.753,0,0,0,.446-.771c-.024-1.862-.008-3.732-.008-5.649-.167.071-.286.111-.4.166-1.528.876-3.047,1.767-4.575,2.634a.674.674,0,0,0-.4.693c.024,1.066,0,2.132,0,3.238h-1.432v-2.857c-1.194.693-2.276,1.313-3.4,1.958-.239-.406-.47-.8-.732-1.249,1.106-.645,2.2-1.281,3.366-1.965-.851-.5-1.639-.971-2.483-1.464.239-.422.469-.812.716-1.249.995.565,1.941,1.122,2.9,1.647a.67.67,0,0,0,.557.063c1.687-.947,3.358-1.926,5.092-2.927a3.827,3.827,0,0,0-.382-.295c-1.527-.883-3.055-1.75-4.575-2.649a.621.621,0,0,0-.732.008c-.923.557-1.87,1.082-2.864,1.647-.239-.413-.469-.811-.724-1.249.819-.478,1.615-.947,2.49-1.456-1.162-.676-2.252-1.312-3.365-1.965.247-.43.477-.827.724-1.257,1.106.636,2.188,1.265,3.358,1.933v-2.825h1.472c0,1.09-.016,2.18.016,3.262a.806.806,0,0,0,.31.6c1.575.947,3.175,1.854,4.766,2.776.063.032.135.056.271.112v-3.247c0-.835-.016-1.671,0-2.506a.614.614,0,0,0-.366-.636c-.939-.525-1.87-1.082-2.848-1.655.239-.421.453-.8.708-1.249.82.469,1.607.923,2.482,1.424v-3.923h1.512Z" transform="translate(-528.22 2105.069)" fill="#224d8d"/>
  </g>
</svg>
