<svg xmlns="http://www.w3.org/2000/svg" width="94.845" height="40.836" viewBox="0 0 94.845 40.836">
  <g id="Group_718" data-name="Group 718" transform="translate(-3347.284 -744.907)">
    <path id="Union_3" data-name="Union 3" d="M13.762,18.785,25.11,7.025l5.212-5.077L35.548,0l5.905,5.614,2.27-2.353.227-.235,3.858,4L59.157,18.784H57.4l-9.042-7.028L47.9,13.122l-4.551-6.37L41.988,8.117l1.82,4.55L34.252,6.752,28.791,6.3,15.082,18.785ZM0,18.785l5.65-5.854,4.407-4.566,1.468,1.522,2.261,2.341,1.13-1.171.113-.117,1.737,1.8-.251.26-.408.423-.814-.843L12.409,15.4l-1.365-2.73-5.46,3.64L5.65,14.3,1.317,18.785Z" transform="translate(3365.128 744.907)" fill="#052143"/>
    <path id="Union_4" data-name="Union 4" d="M42.694,18.429l2.633-4.558L41.584,4.706h2.622l2.589,6.688,3.789-6.688h2.811l-7.9,13.723Zm-41.584,0,2.634-4.558L0,4.706H2.622l2.589,6.688L9,4.706H11.81l-7.9,13.723ZM84.591,14a5.156,5.156,0,0,1-1.311-3.656,6.077,6.077,0,0,1,1.5-4.243,5.059,5.059,0,0,1,3.9-1.655,4.51,4.51,0,0,1,1.911.367,5.331,5.331,0,0,1,1.632,1.266l.167-1.378h2.455L93.557,15.171H91.1l.145-1.133a4.935,4.935,0,0,1-3.266,1.378A4.415,4.415,0,0,1,84.591,14ZM86.68,7.583a3.958,3.958,0,0,0-.933,2.666,3.274,3.274,0,0,0,.778,2.255,2.548,2.548,0,0,0,2,.878,3.051,3.051,0,0,0,2.344-1.1,3.867,3.867,0,0,0,.989-2.644,3.194,3.194,0,0,0-.8-2.255A2.668,2.668,0,0,0,88.991,6.5,2.937,2.937,0,0,0,86.68,7.583ZM54.649,14a5.156,5.156,0,0,1-1.311-3.656,6.075,6.075,0,0,1,1.5-4.243,5.058,5.058,0,0,1,3.9-1.655,4.508,4.508,0,0,1,1.911.367,5.333,5.333,0,0,1,1.633,1.266l.167-1.378H64.9L63.615,15.171H61.159l.145-1.133a4.934,4.934,0,0,1-3.266,1.378A4.414,4.414,0,0,1,54.649,14Zm2.089-6.421A3.953,3.953,0,0,0,55.8,10.25a3.271,3.271,0,0,0,.778,2.255,2.549,2.549,0,0,0,2,.878,3.054,3.054,0,0,0,2.344-1.1,3.869,3.869,0,0,0,.989-2.644,3.194,3.194,0,0,0-.8-2.255A2.67,2.67,0,0,0,59.049,6.5,2.937,2.937,0,0,0,56.738,7.583ZM14.054,14.427A3.362,3.362,0,0,1,12.9,11.749q0-.255.028-.6t.084-.789L13.7,4.705h2.455l-.722,5.877q-.044.378-.067.661t-.022.473q0,1.655,1.944,1.655a2.018,2.018,0,0,0,1.556-.544,3.48,3.48,0,0,0,.666-1.911l.767-6.211H22.72l-.745,6.088a12.356,12.356,0,0,1-.222,1.356,6.619,6.619,0,0,1-.289.966,3.305,3.305,0,0,1-1.044,1.322,5.152,5.152,0,0,1-3.277.978A4.588,4.588,0,0,1,14.054,14.427Zm64.26.744.755-6.055a11.852,11.852,0,0,0,.1-1.244A1.213,1.213,0,0,0,77.791,6.5a2.515,2.515,0,0,0-.944.162,1.717,1.717,0,0,0-.684.5,2.73,2.73,0,0,0-.466.878,6.854,6.854,0,0,0-.284,1.283L74.7,15.171H72.248l.766-6.21q.1-.844.1-1.156,0-1.3-1.411-1.3-2.045,0-2.389,2.834l-.722,5.833H66.137L67.426,4.705h2.533l-.111.978a3.95,3.95,0,0,1,2.877-1.244,2.671,2.671,0,0,1,1.522.367,2.891,2.891,0,0,1,.956,1.3A4.574,4.574,0,0,1,78.558,4.45q3.11,0,3.11,2.855,0,.289-.05.811t-.139,1.289l-.711,5.766Zm-42.174,0L37.429,4.706h2.456L38.6,15.171Zm-4.843,0-3.811-4.977-.611,4.977H24.419L26.288,0h2.456l-1.08,8.772,4.4-4.066H35.34L29.852,9.483l4.41,5.688ZM37.929,2.46a1.384,1.384,0,0,1-.389-.966,1.254,1.254,0,0,1,.377-.922,1.289,1.289,0,0,1,1.866.022,1.286,1.286,0,0,1,.411.955,1.263,1.263,0,0,1-.389.923,1.275,1.275,0,0,1-.934.389A1.29,1.29,0,0,1,37.929,2.46Z" transform="translate(3347.284 767.313)" fill="#052143"/>
  </g>
</svg>
