<?xml version="1.0" encoding="UTF-8" standalone="no"?><!DOCTYPE svg PUBLIC "-//W3C//DTD SVG 1.1//EN" "http://www.w3.org/Graphics/SVG/1.1/DTD/svg11.dtd"><svg width="100px" height="80px" version="1.1" xmlns="http://www.w3.org/2000/svg" xmlns:xlink="http://www.w3.org/1999/xlink" xml:space="preserve" xmlns:serif="http://www.serif.com/" style="fill-rule:evenodd;clip-rule:evenodd;stroke-linejoin:round;stroke-miterlimit:2;"><g transform="matrix(0.930406,0,0,0.798642,0,0)"><rect id="Artboard1" x="0" y="0" width="107.48" height="100.17" style="fill:none;"/><g id="Artboard11" serif:id="Artboard1"><g id="_パス_1340_" serif:id="_パス_1340" transform="matrix(0.717797,0,0,0.836222,15.1596,8.21028)"><path d="M28,96.61C38.96,93.85 50.06,91.58 60.82,88.2C68.94,85.45 76.85,82.11 84.5,78.23C86.93,77.06 88.53,74.21 90.52,72.12C88.46,70.23 86.25,68.52 83.91,66.99C80.61,65.2 76.98,64.01 73.52,62.5C70.79,61.32 68.02,60.19 65.39,58.8C54.9,53.26 54.55,45.61 64.54,39.03C71.32,34.57 79.09,33.09 87.01,32.18C88.46,32.01 89.91,31.85 91.73,31.64C89.02,26.79 86.37,22.38 84.05,17.81C81.01,11.74 83.46,4.35 89.53,1.31C95.19,-1.53 102.08,0.4 105.45,5.76C107.92,9.36 108.15,14.05 106.03,17.87C103.25,23.14 100.34,28.35 97.17,33.39C96.07,34.57 94.6,35.32 93,35.51C85.65,37.05 78.11,37.98 70.92,40.03C67.77,40.93 64.97,43.74 62.46,46.15C60.78,47.58 60.57,50.1 62,51.78C62.32,52.16 62.7,52.47 63.14,52.7C65.76,54.54 68.53,56.14 71.44,57.48C75.27,59.29 79.25,60.76 83.14,62.42C84.72,63.09 86.29,63.8 87.8,64.62C96.27,69.26 96.65,74.54 88.67,80.09C79.86,85.93 70.07,90.15 59.77,92.56C48.37,95.52 36.73,97.5 25.23,100C23.41,100.54 21.48,99.56 20.86,97.76C14.99,87.26 8.97,76.83 3.15,66.31C-1.68,58.03 -0.86,47.61 5.22,40.19C13.32,30.16 28.02,28.6 38.05,36.7C47.21,44.1 49.42,57.16 43.22,67.16C38.51,75.42 33.81,83.69 29.14,91.97C28.54,93.04 27.99,94.14 27.42,95.23C27.63,95.68 27.84,96.11 28.05,96.56L28,96.61ZM35.46,55.25C35.46,48.42 29.92,42.88 23.08,42.89C16.25,42.89 10.71,48.43 10.72,55.27C10.73,62.11 16.26,67.64 23.1,67.63C29.93,67.63 35.46,62.09 35.46,55.27L35.46,55.25ZM99.97,12.49C99.91,9.77 97.65,7.62 94.94,7.69C92.22,7.75 90.08,10.01 90.14,12.72C90.2,15.37 92.35,17.49 95,17.52C97.76,17.49 99.97,15.24 99.97,12.49Z" style="fill:rgb(248,182,45);fill-rule:nonzero;"/></g></g></g></svg>