<svg xmlns="http://www.w3.org/2000/svg" xmlns:xlink="http://www.w3.org/1999/xlink" width="193.32" height="57.28" viewBox="0 0 193.32 57.28"><defs><linearGradient id="a" x1="0.807" y1="0.5" x2="-1.573" y2="0.5" gradientUnits="objectBoundingBox"><stop offset="0" stop-color="#fd0"/><stop offset="0.075" stop-color="#fed400"/><stop offset="0.48" stop-color="#f9ad00"/><stop offset="0.803" stop-color="#f69400"/><stop offset="1" stop-color="#f68c00"/></linearGradient><linearGradient id="b" x1="0.862" y1="0.178" x2="-0.501" y2="1.948" gradientUnits="objectBoundingBox"><stop offset="0" stop-color="#df242b"/><stop offset="1" stop-color="#b90056"/></linearGradient><linearGradient id="c" x1="-0.507" y1="-0.956" x2="0.606" y2="0.489" gradientUnits="objectBoundingBox"><stop offset="0" stop-color="#208b53"/><stop offset="0.077" stop-color="#288e51"/><stop offset="0.481" stop-color="#4fa14b"/><stop offset="0.803" stop-color="#68ac47"/><stop offset="1" stop-color="#71b146"/></linearGradient></defs><rect width="193.319" height="57.28" rx="6.21" transform="translate(0)" fill="#070203"/><g transform="translate(0 0.001)"><path d="M570.494,5658.37a6.021,6.021,0,0,1,6.014,6.016v42.96a6.021,6.021,0,0,1-6.014,6.014h-179a6.022,6.022,0,0,1-6.014-6.014v-42.96a6.022,6.022,0,0,1,6.014-6.016h179m0-1.144h-179a7.181,7.181,0,0,0-7.16,7.16v42.96a7.18,7.18,0,0,0,7.16,7.159h179a7.18,7.18,0,0,0,7.16-7.159v-42.96a7.18,7.18,0,0,0-7.16-7.16Z" transform="translate(-384.335 -5657.227)" fill="#9f9d98"/></g><path d="M469.222,5673.893a5.324,5.324,0,1,0,5.343,5.323A5.247,5.247,0,0,0,469.222,5673.893Zm0,8.549a3.234,3.234,0,1,1,3-3.227A3.079,3.079,0,0,1,469.222,5682.442Zm-11.658-8.549a5.324,5.324,0,1,0,5.344,5.323A5.247,5.247,0,0,0,457.563,5673.893Zm0,8.549a3.234,3.234,0,1,1,3-3.227A3.08,3.08,0,0,1,457.563,5682.442Zm-13.867-6.917v2.258h5.4a4.709,4.709,0,0,1-1.23,2.844,5.533,5.533,0,0,1-4.174,1.654,6.01,6.01,0,0,1,0-12.019,5.763,5.763,0,0,1,4.074,1.613l1.594-1.593A7.881,7.881,0,0,0,443.7,5668a8.269,8.269,0,1,0,0,16.536,7.557,7.557,0,0,0,5.767-2.319,7.464,7.464,0,0,0,1.957-5.283,7.366,7.366,0,0,0-.121-1.412Zm56.712,1.754a4.947,4.947,0,0,0-4.557-3.387,5.058,5.058,0,0,0-5.021,5.323,5.21,5.21,0,0,0,5.283,5.325,5.3,5.3,0,0,0,4.436-2.359l-1.814-1.21a3.042,3.042,0,0,1-2.622,1.471,2.708,2.708,0,0,1-2.582-1.613l7.119-2.943Zm-7.259,1.775a2.919,2.919,0,0,1,2.783-3.1,2.059,2.059,0,0,1,1.975,1.128Zm-5.787,5.161H489.7V5668.57h-2.338Zm-3.831-9.133h-.081a3.685,3.685,0,0,0-2.8-1.19,5.329,5.329,0,0,0,0,10.647,3.631,3.631,0,0,0,2.8-1.21h.081v.766c0,2.038-1.09,3.125-2.843,3.125a2.944,2.944,0,0,1-2.682-1.9l-2.037.848a5.075,5.075,0,0,0,4.719,3.146c2.742,0,5.061-1.614,5.061-5.545v-9.559H483.53Zm-2.682,7.359a3.237,3.237,0,0,1,0-6.451,3.251,3.251,0,0,1,0,6.451Zm30.517-13.872h-5.6v15.646H508.1v-5.927h3.261a4.867,4.867,0,1,0,0-9.719Zm.061,7.542H508.1v-5.364h3.322a2.683,2.683,0,1,1,0,5.364Zm14.433-2.248a4.385,4.385,0,0,0-4.167,2.4l2.073.865a2.215,2.215,0,0,1,2.134-1.148,2.248,2.248,0,0,1,2.456,2.014v.162a5.147,5.147,0,0,0-2.435-.6c-2.234,0-4.509,1.228-4.509,3.523a3.614,3.614,0,0,0,3.884,3.442,3.293,3.293,0,0,0,2.979-1.53h.081v1.209h2.255v-6C530.611,5675.414,528.537,5673.864,525.86,5673.864Zm-.281,8.576c-.766,0-1.832-.383-1.832-1.33,0-1.207,1.328-1.671,2.476-1.671a4.147,4.147,0,0,1,2.134.524A2.831,2.831,0,0,1,525.578,5682.44Zm13.246-8.234-2.677,6.785h-.081l-2.777-6.785h-2.517l4.168,9.482-2.376,5.275H535l6.422-14.757Zm-21.037,10.01h2.335V5668.57h-2.335Z" transform="translate(-376.535 -5655.576)" fill="#fff"/><g transform="translate(14.281 10.239)"><path d="M397.383,5666.612a2.863,2.863,0,0,0-.662,2.01v31.644a2.864,2.864,0,0,0,.662,2.011l.106.1,17.726-17.728v-.417l-17.726-17.727Z" transform="translate(-396.721 -5666.044)" fill="#4ebdf0"/><path d="M418.669,5689l-5.908-5.911v-.417l5.909-5.91.134.076,7,3.978c2,1.136,2,2.994,0,4.13l-7,3.979Z" transform="translate(-394.267 -5664.477)" fill="url(#a)"/><path d="M421.17,5688.109l-6.043-6.044L397.3,5699.9c.659.7,1.748.784,2.974.088l20.9-11.876" transform="translate(-396.633 -5663.664)" fill="url(#b)"/><path d="M421.17,5678.463l-20.9-11.877c-1.226-.7-2.314-.61-2.974.088l17.832,17.832Z" transform="translate(-396.633 -5666.106)" fill="url(#c)"/></g><g transform="translate(58.724 36.489)"><path d="M436.4,5690.892c.838-.078,3.249-.31,5.6-.515,1.392-.116,2.591-.182,3.442-.22v1.031a10.5,10.5,0,0,0-2.5.208,4.462,4.462,0,0,0-2.914,4.034c0,2.489,2.32,3.275,4.4,3.353l-.375,1.083c-2.359-.1-5.053-1.366-5.053-4.216a5.158,5.158,0,0,1,2.372-4.3c-1.122.128-4.6.463-5.982.748l-.116-1.136C435.756,5690.943,436.155,5690.918,436.4,5690.892Zm8.289,3.648-.657.309a11.929,11.929,0,0,0-1.057-1.816l.657-.284A15.086,15.086,0,0,1,444.69,5694.54Zm1.47-.553-.67.308a11.539,11.539,0,0,0-1.1-1.792l.645-.3A19.161,19.161,0,0,1,446.16,5693.987Z" transform="translate(-435.266 -5688.675)" fill="#fff" stroke="#fff" stroke-miterlimit="10" stroke-width="0.327"/><path d="M457.35,5696.427h-5.285v2.861c0,.684-.206.967-.684,1.122a10.088,10.088,0,0,1-2.655.167,4.817,4.817,0,0,0-.413-.954c1.083.04,2.088.026,2.384.012s.4-.09.4-.36v-2.848h-5.3v-.941h5.3v-2.09h-4.435v-.914H451.1V5690.5c-1.418.157-2.876.245-4.2.309a4.361,4.361,0,0,0-.246-.851,42.7,42.7,0,0,0,8.716-1.082l.722.76a24.062,24.062,0,0,1-4.022.759v2.09h4.564v.914h-4.564v2.09h5.285Z" transform="translate(-433.654 -5688.873)" fill="#fff" stroke="#fff" stroke-miterlimit="10" stroke-width="0.327"/><path d="M459.467,5689.833c-.077.219-.194.632-.244.864a29.282,29.282,0,0,0-.619,4.886,13.194,13.194,0,0,0,.1,1.754c.218-.581.5-1.33.708-1.833l.556.412a27.6,27.6,0,0,0-.9,2.863,3.141,3.141,0,0,0-.065.569l.038.449-.928.064a16.024,16.024,0,0,1-.464-4.1,35.509,35.509,0,0,1,.566-5.117,7.555,7.555,0,0,0,.091-.9Zm2.914,6.188a4.773,4.773,0,0,0-.167,1.173c0,.581.386,1.149,2.139,1.149a13.853,13.853,0,0,0,3.159-.336l.013,1.083a16.841,16.841,0,0,1-3.183.26c-2.141,0-3.095-.71-3.095-1.91a7.357,7.357,0,0,1,.206-1.507Zm-.5-5.207a22.4,22.4,0,0,0,5.247,0v1.056a32.194,32.194,0,0,1-5.235,0Z" transform="translate(-431.841 -5688.738)" fill="#fff" stroke="#fff" stroke-miterlimit="10" stroke-width="0.327"/><path d="M474.212,5689.531a11.037,11.037,0,0,0,5.349,10.147,4.567,4.567,0,0,0-.774.8,11.123,11.123,0,0,1-5.118-7.18,11.388,11.388,0,0,1-5.144,7.194,6.234,6.234,0,0,0-.864-.76c2.85-1.484,4.436-4.075,5.222-7.685l.567.091a16.286,16.286,0,0,1-.167-1.651h-3.172v-.955Z" transform="translate(-430.309 -5688.771)" fill="#fff" stroke="#fff" stroke-miterlimit="10" stroke-width="0.327"/><path d="M490.428,5698.529a3.267,3.267,0,0,1-2.346,1.07c-.838,0-1.418-.567-1.418-1.625,0-1.419.477-3.519.477-4.756a.91.91,0,0,0-1.018-1.044c-1.032,0-2.579,1.2-3.752,2.462-.025.542-.038,1.042-.038,1.5,0,1.161,0,1.933.05,3.08.015.22.039.543.067.774h-1.122c.013-.181.037-.555.037-.76.013-1.225.013-1.857.039-3.275,0-.128.013-.3.013-.49-.619.94-1.456,2.166-2.075,3.017l-.645-.888c.709-.889,2.179-2.876,2.824-3.882.025-.413.052-.825.077-1.224-.58.063-1.689.218-2.488.323l-.1-1.072a5.765,5.765,0,0,0,.838-.012c.413-.025,1.161-.1,1.818-.206.039-.607.063-1.058.063-1.2a4.753,4.753,0,0,0-.052-.954l1.226.04c-.065.309-.168,1.031-.257,1.919l.065-.025.372.452c-.153.232-.372.58-.566.889-.026.233-.039.478-.063.723.99-.915,2.629-2.14,3.905-2.14a1.6,1.6,0,0,1,1.8,1.715c0,1.275-.477,3.48-.477,4.77,0,.437.206.772.658.772a2.808,2.808,0,0,0,1.92-1.057Z" transform="translate(-428.621 -5688.797)" fill="#fff" stroke="#fff" stroke-miterlimit="10" stroke-width="0.327"/><path d="M495.8,5693.06c0,.837.064,2.075.128,3.185a10.119,10.119,0,0,1,3.971,2.178l-.619.953a8.919,8.919,0,0,0-3.313-2.1c.013.333.025.618.025.85,0,1.044-.644,1.945-2.346,1.945-1.753,0-3.055-.566-3.055-2.023,0-1.148,1.007-2.1,3.211-2.1a7.909,7.909,0,0,1,1.082.076c-.052-1.031-.1-2.2-.1-2.964,0-.735,0-1.792-.014-2.333a9.425,9.425,0,0,0-.1-1.263H495.9a11.3,11.3,0,0,0-.1,1.263c-.013.348,0,.8,0,1.3,1.018-.026,2.629-.091,3.777-.244l.039.978c-1.136.1-2.772.181-3.816.207Zm-.877,3.932a5.759,5.759,0,0,0-1.25-.129c-1.316,0-2.063.451-2.063,1.148s.709,1.095,1.934,1.095c.94,0,1.392-.438,1.392-1.314C494.936,5697.584,494.923,5697.314,494.923,5696.992Z" transform="translate(-426.801 -5688.782)" fill="#fff" stroke="#fff" stroke-miterlimit="10" stroke-width="0.327"/><path d="M505.963,5693.393a11.906,11.906,0,0,0-3.481.657c-.387.1-.761.258-1.07.373l-.323-1.187c.348-.036.788-.115,1.161-.193a17.05,17.05,0,0,1,3.816-.617c1.816,0,3.17,1.019,3.17,2.836,0,2.771-2.461,4.344-5.776,4.835l-.605-.981c3.095-.387,5.287-1.6,5.287-3.893A1.927,1.927,0,0,0,505.963,5693.393Zm2.255-3.327-.153.993c-1.419-.09-4-.349-5.441-.605l.167-.98A34.078,34.078,0,0,0,508.218,5690.066Z" transform="translate(-425.194 -5688.779)" fill="#fff" stroke="#fff" stroke-miterlimit="10" stroke-width="0.327"/></g></svg>