<svg xmlns="http://www.w3.org/2000/svg" width="90" height="90" viewBox="0 0 90 90">
  <g id="Group_1346" data-name="Group 1346" transform="translate(-984 -4022)">
    <rect id="Rectangle_753" data-name="Rectangle 753" width="90" height="90" transform="translate(984 4022)" fill="none"/>
    <g id="Group_1344" data-name="Group 1344" transform="translate(995 4030)">
      <ellipse id="Ellipse_223" data-name="Ellipse 223" cx="7.755" cy="7.755" rx="7.755" ry="7.755" transform="translate(18.333 2.367) rotate(-8.78)" fill="#626161"/>
      <path id="Path_4166" data-name="Path 4166" d="M1346.427,460.489a5.985,5.985,0,0,0-7.045-4.25l-12.961,2.688-6.539-12.908a2.931,2.931,0,0,0-2.1-1.561l-8.6-1.534c-.014-.091-.024-.175-.04-.268-.337-1.938-.764-4.709-1.144-7.259a2.137,2.137,0,0,1,1.693-2.41,79.6,79.6,0,0,0,10.051-2.935c2.669-.974,6.08-2.43,6.224-2.492a2.931,2.931,0,0,0-2.305-5.39c-.034.014-3.411,1.456-5.927,2.374a30.021,30.021,0,0,1-11.984.894c-4.5-.642-9.1-2.991-13.047-5.144-3.17-1.726-7.752-6.219-9.249-7.8a2.931,2.931,0,0,0-4.262,4.024c.246.26,6.713,7.893,11.353,10.42.415.226.8.461,1.162.7a3.672,3.672,0,0,1,1.648,2.959,65.751,65.751,0,0,0,.691,8.752c.913,5.01,2.04,9.659,3.532,11.04l3.32,5.22-5.627,9.253a2.961,2.961,0,0,0-.27.581l-11.186,2.319a7.713,7.713,0,0,0-5.876,7.22h0a4.7,4.7,0,0,0,5.876,4.783l58.119-12.05A5.877,5.877,0,0,0,1346.427,460.489Zm-38.025-2.624a2.931,2.931,0,0,0-.031-3.1l-1.815-4.249.316-.342,6.51.93a3.321,3.321,0,0,1,2.37,1.565l4.562,7.519-16.577,3.437Z" transform="translate(-1277.935 -406.196)" fill="#626161"/>
    </g>
  </g>
</svg>
