<svg xmlns="http://www.w3.org/2000/svg" width="45" height="53" viewBox="0 0 45 53">
  <g id="icon-course" transform="translate(-446 -4130)">
    <rect id="Rectangle_736" data-name="Rectangle 736" width="45" height="53" transform="translate(446 4130)" fill="rgba(255,255,255,0)"/>
    <g id="Group_724" data-name="Group 724" transform="translate(454 4142.77)">
      <path id="Path_2882" data-name="Path 2882" d="M160.537,531.122a17.582,17.582,0,0,0-8.236-10.893l.386-1.14a5.848,5.848,0,0,0,3.064-.369.182.182,0,0,0,.06-.256,8.332,8.332,0,0,1-1.376-2.8,2.539,2.539,0,0,0,1.386-.121.147.147,0,0,0,.051-.2,9.383,9.383,0,0,1-1.182-2.836,1.5,1.5,0,0,0,1.133-.066.078.078,0,0,0,.027-.111,8.705,8.705,0,0,1-1.457-3.379.07.07,0,0,0-.129-.033,8.7,8.7,0,0,1-2.906,2.258.078.078,0,0,0-.03.111,1.5,1.5,0,0,0,.961.6,9.388,9.388,0,0,1-2.4,1.915.147.147,0,0,0-.053.2,2.541,2.541,0,0,0,1.156.774,8.331,8.331,0,0,1-2.557,1.793.182.182,0,0,0-.071.253,5.846,5.846,0,0,0,2.506,1.8l-.159.89a12.452,12.452,0,0,0-3.513-.762.261.261,0,0,0-.219.425,10.15,10.15,0,0,1,.907,1.274,1.526,1.526,0,0,1-.325,1.966c-.541.629-2.217,1.365-2.12,2.49.162,1.887,5.139,2.085,4.489,5.387a2.1,2.1,0,0,1-.589.905.205.205,0,0,0,.143.352h10.734A.333.333,0,0,0,160.537,531.122Z" transform="translate(-132.143 -508.88)" fill="#224d8d"/>
      <path id="Path_2883" data-name="Path 2883" d="M31.474,606.357c.748-.508,2.278-.97,2.927-1.914.475-.69-.729-1.562-1.145-2a.258.258,0,0,0-.218-.077c-5.89.75-10.771,5.7-12.641,12.374a.28.28,0,0,0,.271.354h7.608a3.146,3.146,0,0,0,1.3-.28c1-.451,2.584-1.26,2.607-2.643a5.005,5.005,0,0,0-1.428-2.644C29.89,608.491,30.151,607.256,31.474,606.357Z" transform="translate(-20.386 -592.43)" fill="#224d8d"/>
      <path id="Path_2884" data-name="Path 2884" d="M71.4,531.323a.7.7,0,1,0-.894-.432A.7.7,0,0,0,71.4,531.323Z" transform="translate(-65.14 -527.717)" fill="#224d8d"/>
      <ellipse id="Ellipse_188" data-name="Ellipse 188" cx="0.702" cy="0.702" rx="0.702" ry="0.702" transform="translate(8.674 3.977)" fill="#224d8d"/>
      <path id="Path_2885" data-name="Path 2885" d="M61.452,562.094a.7.7,0,1,0-.894-.432A.7.7,0,0,0,61.452,562.094Z" transform="translate(-56.253 -555.217)" fill="#224d8d"/>
      <path id="Path_2886" data-name="Path 2886" d="M47.142,595.172a.7.7,0,1,0-.894-.432A.7.7,0,0,0,47.142,595.172Z" transform="translate(-43.464 -584.78)" fill="#224d8d"/>
      <path id="Path_2887" data-name="Path 2887" d="M88.609,580.73a.7.7,0,1,0-.894-.432A.7.7,0,0,0,88.609,580.73Z" transform="translate(-80.523 -571.872)" fill="#224d8d"/>
      <path id="Path_2888" data-name="Path 2888" d="M130.074,566.288a.7.7,0,1,0-.894-.432A.7.7,0,0,0,130.074,566.288Z" transform="translate(-117.581 -558.965)" fill="#224d8d"/>
    </g>
  </g>
</svg>
