<?xml version="1.0" encoding="UTF-8" standalone="no"?>
<!DOCTYPE svg PUBLIC "-//W3C//DTD SVG 1.1//EN" "http://www.w3.org/Graphics/SVG/1.1/DTD/svg11.dtd">
<svg width="36px" height="36px" version="1.1" xmlns="http://www.w3.org/2000/svg" xmlns:xlink="http://www.w3.org/1999/xlink" xml:space="preserve" xmlns:serif="http://www.serif.com/" style="fill-rule:evenodd;clip-rule:evenodd;stroke-linejoin:round;stroke-miterlimit:2;">
    <g transform="matrix(1,0,0,1,-246,-906)">
        <g>
            <clipPath id="_clip1">
                <path d="M246.5,923.563C246.5,922.413 246.612,921.275 246.836,920.148C247.06,919.021 247.392,917.927 247.832,916.865C248.272,915.804 248.811,914.795 249.449,913.84C250.088,912.884 250.813,912.001 251.626,911.188C252.438,910.376 253.322,909.65 254.277,909.012C255.233,908.373 256.241,907.834 257.303,907.395C258.365,906.955 259.459,906.623 260.586,906.399C261.713,906.175 262.851,906.063 264,906.063C265.149,906.063 266.287,906.175 267.414,906.399C268.541,906.623 269.635,906.955 270.697,907.395C271.759,907.834 272.767,908.373 273.722,909.012C274.678,909.65 275.562,910.376 276.374,911.188C277.187,912.001 277.912,912.884 278.551,913.84C279.189,914.795 279.728,915.804 280.168,916.865C280.608,917.927 280.94,919.021 281.164,920.148C281.388,921.275 281.5,922.413 281.5,923.563C281.5,924.711 281.388,925.849 281.164,926.976C280.94,928.103 280.608,929.198 280.168,930.259C279.728,931.321 279.189,932.329 278.551,933.285C277.912,934.24 277.187,935.124 276.374,935.937C275.562,936.749 274.678,937.475 273.722,938.113C272.767,938.751 271.759,939.291 270.697,939.73C269.635,940.17 268.541,940.502 267.414,940.726C266.287,940.95 265.149,941.063 264,941.063C262.851,941.063 261.713,940.95 260.586,940.726C259.459,940.502 258.365,940.17 257.303,939.73C256.241,939.291 255.233,938.751 254.277,938.113C253.322,937.475 252.438,936.749 251.626,935.937C250.813,935.124 250.088,934.24 249.449,933.285C248.811,932.329 248.272,931.321 247.832,930.259C247.392,929.198 247.06,928.103 246.836,926.976C246.612,925.849 246.5,924.711 246.5,923.563Z" clip-rule="nonzero"/>
            </clipPath>
            <g clip-path="url(#_clip1)">
                <g>
                    <g>
                        <g>
                            <clipPath id="_clip2">
                                <path d="M248.245,902.984C245.592,902.984 243.422,905.155 243.422,907.807L243.422,939.318C243.422,941.97 245.592,944.141 248.245,944.141L279.755,944.141C282.408,944.141 284.578,941.97 284.578,939.318L284.578,907.807C284.578,905.155 282.408,902.984 279.755,902.984L248.245,902.984Z" clip-rule="nonzero"/>
                            </clipPath>
                            <g clip-path="url(#_clip2)">
                                <g>
                                    <g>
                                        <clipPath id="_clip3">
                                            <rect x="246.5" y="906" width="35" height="35.25" clip-rule="nonzero"/>
                                        </clipPath>
                                        <g clip-path="url(#_clip3)">
                                            <g transform="matrix(1,0,0,-1,247,940.212)">
                                                <rect x="-3.608" y="-3.619" width="42.798" height="40.887" style="fill:rgb(201,25,29);"/>
                                            </g>
                                            <g transform="matrix(1,0,0,-1,156.774,1075.86)">
                                                <path d="M118.143,152.297C118.143,150.595 118.141,148.791 117.761,147.137C117.493,145.977 116.543,145.12 115.401,144.992C112.694,144.69 109.953,144.688 107.225,144.69C104.497,144.688 101.756,144.69 99.049,144.992C97.906,145.12 96.958,145.977 96.69,147.137C96.31,148.791 96.31,150.595 96.31,152.297C96.31,154.001 96.314,155.805 96.695,157.459C96.962,158.619 97.911,159.477 99.054,159.604C101.761,159.908 104.502,159.909 107.229,159.908C109.957,159.909 112.699,159.908 115.405,159.604C116.547,159.477 117.498,158.619 117.765,157.459C118.144,155.805 118.143,154.001 118.143,152.297" style="fill:white;"/>
                                            </g>
                                            <g transform="matrix(1,0,0,-1,48.1125,1122.12)">
                                                <path d="M212.944,202.769L220.245,198.554L212.944,194.339L212.944,202.769Z" style="fill:rgb(219,0,22);"/>
                                            </g>
                                        </g>
                                    </g>
                                </g>
                            </g>
                        </g>
                    </g>
                </g>
            </g>
        </g>
    </g>
</svg>
