<svg xmlns="http://www.w3.org/2000/svg" width="46.353" height="56.88" viewBox="0 0 46.353 56.88">
  <g id="Group_670" data-name="Group 670" transform="translate(0)">
    <ellipse id="Ellipse_187" data-name="Ellipse 187" cx="4.737" cy="4.737" rx="4.737" ry="4.737" transform="translate(17.826 12.036)" fill="#fff"/>
    <path id="Path_2876" data-name="Path 2876" d="M-1171.382,591.406a4.053,4.053,0,0,0-3.86-1.667c-2.195,0-3.6,5.176-3.6,5.176s-1.14,4.3-1.667,5.877-.526,4.825,2.632,5.263c1.749.243,7.536.486,9.879.577a1.029,1.029,0,0,1,.989,1.04l-.163,7.6a.625.625,0,0,0,.786.609l1.811-.586a1.108,1.108,0,0,0,.82-.993c.162-2.321.706-8.97-.176-10.263-1.316-1.93-9.211-2.193-9.211-2.193l1.228-5.088s5.473,4.294,7.018,4.912c1.754.7,1.228-1.579,1.228-1.579a30.564,30.564,0,0,0-2.895-2.895C-1168.64,595.273-1169.421,593.646-1171.382,591.406Z" transform="translate(1195.172 -567.176)" fill="#fff"/>
    <path id="Path_2877" data-name="Path 2877" d="M-1163.75,490.135a1.158,1.158,0,0,0,.571-1.535,1.158,1.158,0,0,0-1.536-.571l-12.726,5.829.96,2.109Z" transform="translate(1192.584 -487.923)" fill="#fff"/>
    <path id="Path_2878" data-name="Path 2878" d="M-1245.1,539.249a1.158,1.158,0,0,0-.571,1.536,1.158,1.158,0,0,0,1.054.677,1.151,1.151,0,0,0,.482-.106l3.328-1.524-.96-2.109Z" transform="translate(1245.777 -526.687)" fill="#fff"/>
    <path id="Path_2879" data-name="Path 2879" d="M-1143.8,665.276a1.159,1.159,0,0,0-1.244,1.064c0,.041-.359,4.064-3.336,5.34-2.548,1.092-23.592,8.847-23.8,8.925a1.159,1.159,0,0,0-.686,1.488,1.159,1.159,0,0,0,1.087.758,1.16,1.16,0,0,0,.4-.072c.869-.32,21.313-7.854,23.916-8.97,4.282-1.835,4.718-7.073,4.734-7.295A1.157,1.157,0,0,0-1143.8,665.276Z" transform="translate(1189.082 -625.971)" fill="#fff"/>
    <path id="Path_2880" data-name="Path 2880" d="M-1206.191,542.567V566.41c0,5.082,3.071,6.578,5.648,6.937,3.1.433,5.411.573,6.792.657.322.019.6.036.827.053.029,0,.058,0,.087,0a1.159,1.159,0,0,0,1.154-1.073,1.159,1.159,0,0,0-1.07-1.241c-.238-.018-.524-.035-.857-.055-1.347-.082-3.6-.219-6.612-.638-2.525-.352-3.651-1.784-3.651-4.642v-24.9Z" transform="translate(1214.963 -529.637)" fill="#fff"/>
    <path id="Path_2881" data-name="Path 2881" d="M-1213.294,516.354a.281.281,0,0,0,.139-.372l-2.047-4.495a.281.281,0,0,0-.372-.139l-7.232,3.294a.281.281,0,0,0-.139.372l2.047,4.495a.281.281,0,0,0,.372.139l1.274-.58,2.317-1.055Z" transform="translate(1228.024 -506.138)" fill="#fff"/>
  </g>
</svg>
