<svg xmlns="http://www.w3.org/2000/svg" width="27.393" height="19.266" viewBox="0 0 27.393 19.266">
  <path id="Path_162" data-name="Path 162" d="M1676.314,375.95c3.095.1,6.19.182,9.278.314,2.555.107,3.816,1.343,4.118,4.086a47.8,47.8,0,0,1,.013,10.508,4.524,4.524,0,0,1-1.6,3.4,4.717,4.717,0,0,1-2.756.791c-2.2.088-4.394.144-6.6.157-3.013.019-6.02.025-9.033-.031a30.243,30.243,0,0,1-3.836-.352,2.9,2.9,0,0,1-2.523-2.078,16.393,16.393,0,0,1-.609-3.258,47.649,47.649,0,0,1,.126-9.027,7.751,7.751,0,0,1,.515-2.009c.64-1.632,2.034-2.122,3.628-2.184,3.088-.119,6.183-.207,9.272-.314Zm-2.931,5.744v7.677c2.442-1.312,4.8-2.586,7.244-3.9l-7.244-3.779Z" transform="translate(-1662.613 -375.95)" fill="#153666"/>
</svg>
