<svg xmlns="http://www.w3.org/2000/svg" width="45" height="53" viewBox="0 0 45 53">
  <g id="icon-weather" transform="translate(-100 -4130)">
    <rect id="Rectangle_737" data-name="Rectangle 737" width="45" height="53" transform="translate(100 4130)" fill="rgba(255,255,255,0)"/>
    <g id="Group_14" data-name="Group 14" transform="translate(108 4141.728)">
      <path id="Path_175" data-name="Path 175" d="M622.066,2060.054c-4.074.239-8.012-3.405-8-8.036a7.99,7.99,0,1,1,15.976.278C630.046,2056.41,626.068,2060.42,622.066,2060.054Zm5.967-7.932a6.142,6.142,0,0,0-5.975-6.1,6.291,6.291,0,0,0-6.039,6.11,6.059,6.059,0,0,0,6.094,5.975,5.929,5.929,0,0,0,5.911-5.975Z" transform="translate(-607.521 -2037.552)" fill="#224d8d" stroke="#fff" stroke-miterlimit="10" stroke-width="0.25"/>
      <path id="Path_176" data-name="Path 176" d="M636.6,2041.827a5.089,5.089,0,0,1-.493.8,13.878,13.878,0,0,1-1.9,1.9c-.35.254-.979.135-1.472.183.016-.5-.159-1.146.079-1.488a10.576,10.576,0,0,1,1.973-1.981,1.733,1.733,0,0,1,1.225-.223c.223.039.374.485.589.788Z" transform="translate(-611.327 -2036.924)" fill="#224d8d" stroke="#fff" stroke-miterlimit="10" stroke-width="0.25"/>
      <path id="Path_177" data-name="Path 177" d="M636.493,2065.828c-.135.183-.3.6-.525.645a1.69,1.69,0,0,1-1.209-.231,14,14,0,0,1-2.021-2.092,1.253,1.253,0,0,1-.1-1.177c.183-.255.939-.446,1.13-.287a36.031,36.031,0,0,1,2.618,2.562c.088.087.064.286.111.58Z" transform="translate(-611.295 -2041.344)" fill="#224d8d" stroke="#fff" stroke-miterlimit="10" stroke-width="0.25"/>
      <path id="Path_178" data-name="Path 178" d="M610.64,2065.7a6.108,6.108,0,0,1,.581-.915,12.138,12.138,0,0,1,1.838-1.79c.35-.239.971-.08,1.472-.1-.048.485.072,1.09-.175,1.44a9.956,9.956,0,0,1-1.862,1.933,1.634,1.634,0,0,1-1.209.255C611.038,2066.481,610.871,2066.019,610.64,2065.7Z" transform="translate(-606.82 -2041.393)" fill="#224d8d" stroke="#fff" stroke-miterlimit="10" stroke-width="0.25"/>
      <path id="Path_179" data-name="Path 179" d="M608.211,2054.906a5.725,5.725,0,0,1-1.567-.04,1.259,1.259,0,0,1-.8-.828,1.178,1.178,0,0,1,.652-.939,19.283,19.283,0,0,1,3.453,0c.271.023.684.637.66.947s-.485.716-.827.812a5.731,5.731,0,0,1-1.567.031Z" transform="translate(-605.839 -2039.382)" fill="#224d8d" stroke="#fff" stroke-miterlimit="10" stroke-width="0.25"/>
      <path id="Path_180" data-name="Path 180" d="M638.73,2054.894a5.423,5.423,0,0,1-1.567-.04c-.35-.1-.835-.533-.843-.835a1.192,1.192,0,0,1,.756-.9,15.875,15.875,0,0,1,3.254-.064c.342.032.645.589.963.907-.366.31-.676.748-1.1.9a4.443,4.443,0,0,1-1.456.032v-.008Z" transform="translate(-612.068 -2039.377)" fill="#224d8d" stroke="#fff" stroke-miterlimit="10" stroke-width="0.25"/>
      <path id="Path_181" data-name="Path 181" d="M622.888,2038.266a4.834,4.834,0,0,1,.04-1.559,1.447,1.447,0,0,1,.963-.828c.247-.04.812.477.835.788a15.954,15.954,0,0,1,0,3.262,1.179,1.179,0,0,1-.867.756,1.236,1.236,0,0,1-.9-.74,6.2,6.2,0,0,1-.04-1.679h-.04Z" transform="translate(-609.314 -2035.877)" fill="#224d8d" stroke="#fff" stroke-miterlimit="10" stroke-width="0.25"/>
      <path id="Path_182" data-name="Path 182" d="M624.8,2069.068a4.144,4.144,0,0,1-.032,1.337,1.591,1.591,0,0,1-.851.954c-.231.064-.875-.445-.907-.747a16.918,16.918,0,0,1-.016-3.358c.024-.271.621-.7.931-.684a1.242,1.242,0,0,1,.828.8,6.548,6.548,0,0,1,.04,1.679Z" transform="translate(-609.329 -2042.15)" fill="#224d8d" stroke="#fff" stroke-miterlimit="10" stroke-width="0.25"/>
      <path id="Path_183" data-name="Path 183" d="M612.253,2040.7c.493.581.82.971,1.345,1.583-.557.23-1.353.8-1.583.612-.843-.652-.2-1.352.239-2.2Z" transform="translate(-607.017 -2036.861)" fill="#224d8d" stroke="#fff" stroke-miterlimit="10" stroke-width="0.25"/>
      <path id="Path_184" data-name="Path 184" d="M613.18,2044.667c.493-.485.907-.9,1.344-1.337.788.486,1.106,1.074.589,1.711C614.524,2045.773,613.88,2045.447,613.18,2044.667Z" transform="translate(-607.339 -2037.4)" fill="#224d8d" stroke="#fff" stroke-miterlimit="10" stroke-width="0.25"/>
    </g>
  </g>
</svg>
