<svg xmlns="http://www.w3.org/2000/svg" width="193.32" height="57.278" viewBox="0 0 193.32 57.278"><g transform="translate(0 0)"><path d="M393.413,5714.5H213.742a6.786,6.786,0,0,1-6.772-6.778v-43.734a6.777,6.777,0,0,1,6.772-6.766H393.413a6.87,6.87,0,0,1,6.877,6.766v43.734a6.879,6.879,0,0,1-6.877,6.778" transform="translate(-206.97 -5657.227)" fill="#b2b2b3"/><path d="M398.735,5707.56a5.484,5.484,0,0,1-5.49,5.485H213.574a5.491,5.491,0,0,1-5.5-5.485v-43.735a5.5,5.5,0,0,1,5.5-5.493h179.67a5.49,5.49,0,0,1,5.489,5.493v43.735Z" transform="translate(-206.801 -5657.058)" fill="#070303"/><path d="M247.682,5683.205a8.3,8.3,0,0,1,3.954-6.965,8.5,8.5,0,0,0-6.7-3.619c-2.818-.3-5.548,1.685-6.984,1.685-1.463,0-3.673-1.657-6.054-1.607a8.921,8.921,0,0,0-7.5,4.577c-3.245,5.617-.824,13.874,2.284,18.414,1.554,2.223,3.371,4.708,5.75,4.619,2.327-.1,3.2-1.482,6-1.482,2.782,0,3.6,1.482,6.025,1.427,2.5-.04,4.07-2.233,5.57-4.479a18.4,18.4,0,0,0,2.548-5.187,8.025,8.025,0,0,1-4.9-7.381" transform="translate(-204.539 -5654.875)" fill="#fff"/><path d="M241.14,5670.8a8.172,8.172,0,0,0,1.869-5.855,8.313,8.313,0,0,0-5.381,2.785,7.774,7.774,0,0,0-1.919,5.639,6.878,6.878,0,0,0,5.431-2.568" transform="translate(-202.579 -5656.045)" fill="#fff"/><path d="M275.952,5680.8H273.08l-1.575-4.947h-5.472l-1.5,4.947h-2.8l5.423-16.843h3.35Zm-4.922-7.021-1.424-4.4q-.225-.674-.85-3.173h-.05q-.251,1.072-.8,3.173l-1.4,4.4Z" transform="translate(-198.591 -5656.196)" fill="#fff"/><path d="M287.688,5673.984a6.871,6.871,0,0,1-1.683,4.9,4.935,4.935,0,0,1-3.743,1.6,3.747,3.747,0,0,1-3.468-1.724v6.373h-2.7v-13.076q0-1.944-.1-3.992h2.374l.15,1.925h.05a4.8,4.8,0,0,1,7.685-.475,6.7,6.7,0,0,1,1.435,4.472m-2.746.1a5.018,5.018,0,0,0-.8-2.924,2.765,2.765,0,0,0-2.349-1.2,2.8,2.8,0,0,0-1.813.663,3.06,3.06,0,0,0-1.063,1.735,3.493,3.493,0,0,0-.123.825v2.024a3.228,3.228,0,0,0,.812,2.236,2.693,2.693,0,0,0,2.111.912,2.765,2.765,0,0,0,2.375-1.174,5.19,5.19,0,0,0,.85-3.1" transform="translate(-196.409 -5655.605)" fill="#fff"/><path d="M299.8,5673.984a6.876,6.876,0,0,1-1.683,4.9,4.939,4.939,0,0,1-3.744,1.6,3.75,3.75,0,0,1-3.468-1.724v6.373h-2.7v-13.076q0-1.944-.1-3.992h2.373l.15,1.925h.051a4.8,4.8,0,0,1,7.684-.475,6.7,6.7,0,0,1,1.437,4.472m-2.748.1a5.01,5.01,0,0,0-.8-2.924,2.762,2.762,0,0,0-2.349-1.2,2.8,2.8,0,0,0-1.811.663,3.053,3.053,0,0,0-1.063,1.735,3.5,3.5,0,0,0-.125.825v2.024a3.228,3.228,0,0,0,.813,2.236,2.69,2.69,0,0,0,2.11.912,2.763,2.763,0,0,0,2.375-1.174,5.174,5.174,0,0,0,.85-3.1" transform="translate(-194.555 -5655.605)" fill="#fff"/><path d="M316.108,5676.107a4.491,4.491,0,0,1-1.5,3.5,6.634,6.634,0,0,1-4.588,1.475,8.009,8.009,0,0,1-4.361-1.05l.624-2.249a7.523,7.523,0,0,0,3.9,1.05,3.672,3.672,0,0,0,2.373-.689,2.237,2.237,0,0,0,.851-1.834,2.347,2.347,0,0,0-.7-1.727,6.544,6.544,0,0,0-2.323-1.3q-4.424-1.647-4.424-4.823a4.252,4.252,0,0,1,1.562-3.4,6.179,6.179,0,0,1,4.135-1.324,8.178,8.178,0,0,1,3.823.8l-.676,2.2a6.7,6.7,0,0,0-3.237-.774,3.294,3.294,0,0,0-2.232.7,2,2,0,0,0-.677,1.524,2.065,2.065,0,0,0,.775,1.649,8.8,8.8,0,0,0,2.449,1.3,8.268,8.268,0,0,1,3.2,2.048,4.293,4.293,0,0,1,1.026,2.925" transform="translate(-191.869 -5656.231)" fill="#fff"/><path d="M323.462,5670.454h-2.974v5.9q0,2.253,1.574,2.25a4.831,4.831,0,0,0,1.2-.125l.074,2.049a6.12,6.12,0,0,1-2.1.3,3.227,3.227,0,0,1-2.5-.974,4.778,4.778,0,0,1-.9-3.273v-6.123h-1.773v-2.024h1.773v-2.225l2.65-.8v3.023h2.974Z" transform="translate(-190.277 -5655.974)" fill="#fff"/><path d="M335.675,5674.033a6.667,6.667,0,0,1-1.6,4.6,5.709,5.709,0,0,1-4.447,1.848,5.428,5.428,0,0,1-4.26-1.774,6.456,6.456,0,0,1-1.588-4.473,6.6,6.6,0,0,1,1.638-4.623,5.665,5.665,0,0,1,4.408-1.8,5.552,5.552,0,0,1,4.3,1.776,6.4,6.4,0,0,1,1.55,4.446m-2.8.063a5.418,5.418,0,0,0-.725-2.866,2.67,2.67,0,0,0-2.422-1.444,2.708,2.708,0,0,0-2.474,1.444,5.523,5.523,0,0,0-.724,2.917,5.413,5.413,0,0,0,.724,2.864,2.764,2.764,0,0,0,4.871-.024,5.4,5.4,0,0,0,.751-2.891" transform="translate(-189.097 -5655.605)" fill="#fff"/><path d="M342.563,5670.437a4.516,4.516,0,0,0-.849-.076,2.553,2.553,0,0,0-2.2,1.075,4.052,4.052,0,0,0-.673,2.4v6.371h-2.7v-8.32q0-2.1-.075-3.824h2.349l.1,2.324h.074a4.143,4.143,0,0,1,1.349-1.924,3.269,3.269,0,0,1,1.95-.65,4.006,4.006,0,0,1,.673.051Z" transform="translate(-187.217 -5655.605)" fill="#fff"/><path d="M353.6,5673.563a6.422,6.422,0,0,1-.1,1.224h-8.1a3.525,3.525,0,0,0,1.174,2.749,4.018,4.018,0,0,0,2.648.849,8.94,8.94,0,0,0,3.273-.574l.425,1.874a10.183,10.183,0,0,1-4.074.75,5.889,5.889,0,0,1-4.435-1.663,6.125,6.125,0,0,1-1.612-4.46,6.977,6.977,0,0,1,1.5-4.573,5.18,5.18,0,0,1,4.249-1.95,4.524,4.524,0,0,1,3.973,1.95,6.552,6.552,0,0,1,1.075,3.824m-2.573-.7a3.681,3.681,0,0,0-.525-2.074,2.355,2.355,0,0,0-2.149-1.124,2.564,2.564,0,0,0-2.149,1.1,4.024,4.024,0,0,0-.8,2.1Z" transform="translate(-186.185 -5655.609)" fill="#fff"/><path d="M265.021,5691.182a32.475,32.475,0,0,0,.67-3.87l1.441.184c-.167,1.189-.4,2.4-.686,3.585.435-.033.821-.051,1.139-.051,2.3,0,3.336,1.208,3.336,3.72a13.134,13.134,0,0,1-1.072,5.867,2.18,2.18,0,0,1-2.162,1.122,11.422,11.422,0,0,1-2.431-.284l.1-1.357a7.1,7.1,0,0,0,2.044.319,1.169,1.169,0,0,0,1.207-.554c.536-.789.888-2.8.888-5.063,0-1.826-.553-2.445-1.995-2.445-.4,0-.871.017-1.374.049a29.287,29.287,0,0,1-3.67,8.632l-1.273-.686a24.28,24.28,0,0,0,3.5-7.828c-1.156.134-2.362.317-3.418.52l-.252-1.341c1.191-.2,2.665-.385,4.005-.521m10.994,5.781-1.441.353a11.634,11.634,0,0,0-3.067-6.537l1.174-.754a13.1,13.1,0,0,1,3.334,6.938" transform="translate(-198.7 -5652.623)" fill="#fff"/><path d="M277.664,5695.929a10.343,10.343,0,0,1,5.564-1.977c2.6,0,4.173,1.256,4.173,3.419,0,2.683-2.2,4.374-7.407,4.374-.218,0-.52,0-.789-.016l-.3-1.358c.4.018.905.034,1.222.034,4.191,0,5.8-1.191,5.8-3,0-1.476-.972-2.246-3-2.246a9.119,9.119,0,0,0-5.6,2.6l-1.156-.5c0-3.621.386-5.364,1.66-7.191l1.323.452a8.313,8.313,0,0,0-1.491,5.414m-.151-7.307.37-1.339a49.868,49.868,0,0,1,7.507,1.741l-.385,1.325a42.133,42.133,0,0,0-7.492-1.728" transform="translate(-196.381 -5652.627)" fill="#fff"/><path d="M292.4,5693.133a38.433,38.433,0,0,1,3.94,2.582,13.782,13.782,0,0,0,2.062-4.894H292.99a20.859,20.859,0,0,1-4.375,5.08l-1.123-.958a18.786,18.786,0,0,0,5.6-7.506l1.407.485c-.2.5-.452,1.022-.737,1.576h5.4l1.073.585c-1.174,5.4-4.341,9.923-9.234,11.9l-1.022-1.239a13.13,13.13,0,0,0,5.479-3.855,28.753,28.753,0,0,0-3.955-2.665Zm6.621-6.251a12.942,12.942,0,0,1,1.761,2.247l-.755.538a11.245,11.245,0,0,0-1.726-2.229Zm2.179-.486a11.645,11.645,0,0,1,1.742,2.279l-.787.52a10.321,10.321,0,0,0-1.693-2.279Z" transform="translate(-194.649 -5652.764)" fill="#fff"/><path d="M307.53,5690.226v-2.9h1.525v2.9h4.39l1.274.518c-.419,5.113-2.431,9.084-7.793,11.027l-.922-1.3c4.945-1.678,6.721-4.979,6.973-8.849h-8.95v3.854h-1.508v-5.246Z" transform="translate(-192.35 -5652.62)" fill="#fff"/><path d="M321.011,5691.592l-.989,1.222a27.384,27.384,0,0,0-4.324-3.016l.939-1.208a38.817,38.817,0,0,1,4.375,3m6.452.033.972,1.138a21.921,21.921,0,0,1-11.581,8.665l-.755-1.44a19.957,19.957,0,0,0,11.364-8.362" transform="translate(-190.333 -5652.428)" fill="#fff"/><path d="M341.354,5700.417H329.387v-11.246h11.967Zm-1.543-9.837H330.9v8.4h8.916Z" transform="translate(-188.239 -5652.338)" fill="#fff"/><rect width="13.641" height="1.541" transform="translate(156.563 41.175)" fill="#fff"/><path d="M367.515,5696.192l-.971,1.239a45.588,45.588,0,0,0-6.654-3.837v8.145h-1.542v-14.412h1.542v4.642a59.8,59.8,0,0,1,7.625,4.224m-3.9-7.09a12.193,12.193,0,0,1,1.658,2.229l-.736.47a10.838,10.838,0,0,0-1.609-2.228Zm1.759-1.056a13.951,13.951,0,0,1,1.677,2.212l-.738.468a11.69,11.69,0,0,0-1.626-2.195Z" transform="translate(-183.807 -5652.619)" fill="#fff"/></g></svg>