<?xml version="1.0" encoding="UTF-8" standalone="no"?>
<!DOCTYPE svg PUBLIC "-//W3C//DTD SVG 1.1//EN" "http://www.w3.org/Graphics/SVG/1.1/DTD/svg11.dtd">
<svg width="100%" height="100%" viewBox="0 0 424 77" version="1.1" xmlns="http://www.w3.org/2000/svg" xmlns:xlink="http://www.w3.org/1999/xlink" xml:space="preserve" xmlns:serif="http://www.serif.com/" style="fill-rule:evenodd;clip-rule:evenodd;stroke-linejoin:round;stroke-miterlimit:2;">
    <g transform="matrix(1,0,0,1.01037,0,0)">
        <rect id="Artboard1" x="0" y="0" width="424" height="76.21" style="fill:none;"/>
        <g>
            <clipPath id="_clip1">
                <rect x="0" y="0" width="424" height="76.21"/>
            </clipPath>
            <g clip-path="url(#_clip1)">
                <g transform="matrix(6.42415,0,0,2.38156,0.0128586,0)">
                    <rect x="-0.002" y="0" width="66.002" height="32" style="fill:none;"/>
                </g>
                <g transform="matrix(1,0,0,0.989738,2.136e-08,0)">
                    <path d="M385.71,60.5C385.19,60.18 384.6,60.02 384,60.02C383.4,60.02 382.8,60.19 382.29,60.5L361.14,73.45L366.92,49.34C367.21,48.14 366.8,46.89 365.86,46.08L347,29.97L371.72,28.02C372.96,27.92 374.02,27.15 374.49,26.01L383.99,3.1L393.49,26.01C393.96,27.15 395.02,27.92 396.26,28.02L420.98,29.97L402.13,46.08C401.19,46.88 400.78,48.13 401.07,49.34L406.85,73.45L385.7,60.5L385.71,60.5Z" style="fill:rgb(255,172,34);fill-rule:nonzero;"/>
                </g>
                <g transform="matrix(1,0,0,0.989738,2.136e-08,0)">
                    <path d="M391.66,26.77C392.42,28.6 394.14,29.85 396.11,30L415.24,31.51C415.54,31.53 415.66,31.91 415.43,32.11L400.84,44.57C399.34,45.85 398.68,47.87 399.14,49.8L403.6,68.41C403.67,68.72 403.33,68.97 403.06,68.8L386.74,58.8C385.91,58.29 384.96,58.03 383.99,58.03C383.02,58.03 382.07,58.3 381.24,58.8L364.92,68.8C364.65,68.97 364.31,68.72 364.38,68.41L368.84,49.8C369.3,47.88 368.65,45.86 367.14,44.57L352.55,32.11C352.32,31.91 352.44,31.54 352.74,31.51L371.87,30C373.84,29.84 375.56,28.6 376.32,26.77L383.7,8.96C383.8,8.71 384.16,8.71 384.26,8.96L391.64,26.77L391.66,26.77ZM384,0C383.51,0 383.03,0.27 382.81,0.8L372.67,25.25C372.48,25.7 372.06,26.01 371.58,26.04L345.19,28.12C344.04,28.21 343.58,29.64 344.45,30.39L364.57,47.58C364.94,47.9 365.1,48.39 364.99,48.86L358.82,74.6C358.61,75.47 359.3,76.2 360.08,76.2C360.3,76.2 360.53,76.14 360.75,76.01L383.32,62.19C383.53,62.06 383.76,62 384,62C384.24,62 384.47,62.06 384.68,62.19L407.25,76.01C407.47,76.14 407.7,76.2 407.92,76.2C408.7,76.2 409.39,75.47 409.18,74.6L403.01,48.86C402.9,48.39 403.06,47.89 403.43,47.58L423.55,30.39C424.43,29.64 423.96,28.21 422.81,28.12L396.42,26.04C395.94,26 395.51,25.7 395.33,25.25L385.19,0.8C384.97,0.27 384.48,0 384,0Z" style="fill:rgb(255,172,34);fill-rule:nonzero;"/>
                </g>
                <g transform="matrix(1,0,0,0.989738,2.136e-08,0)">
                    <path d="M299.71,60.5C299.19,60.18 298.6,60.02 298,60.02C297.4,60.02 296.8,60.19 296.29,60.5L275.14,73.45L280.92,49.34C281.21,48.14 280.8,46.89 279.86,46.08L261,29.97L285.72,28.02C286.96,27.92 288.02,27.15 288.49,26.01L297.99,3.1L307.49,26.01C307.96,27.15 309.02,27.92 310.26,28.02L334.98,29.97L316.13,46.08C315.19,46.88 314.78,48.13 315.07,49.34L320.85,73.45L299.7,60.5L299.71,60.5Z" style="fill:rgb(255,172,34);fill-rule:nonzero;"/>
                </g>
                <g transform="matrix(1,0,0,0.989738,2.136e-08,0)">
                    <path d="M305.66,26.77C306.42,28.6 308.14,29.85 310.11,30L329.24,31.51C329.54,31.53 329.66,31.91 329.43,32.11L314.84,44.57C313.34,45.85 312.68,47.87 313.14,49.8L317.6,68.41C317.67,68.72 317.33,68.97 317.06,68.8L300.74,58.8C299.91,58.29 298.96,58.03 297.99,58.03C297.02,58.03 296.07,58.3 295.24,58.8L278.92,68.8C278.65,68.97 278.31,68.72 278.38,68.41L282.84,49.8C283.3,47.88 282.65,45.86 281.14,44.57L266.55,32.11C266.32,31.91 266.44,31.54 266.74,31.51L285.87,30C287.84,29.84 289.56,28.6 290.32,26.77L297.7,8.96C297.8,8.71 298.16,8.71 298.26,8.96L305.64,26.77L305.66,26.77ZM298,0C297.51,0 297.03,0.27 296.81,0.8L286.67,25.25C286.48,25.7 286.06,26.01 285.58,26.04L259.19,28.12C258.04,28.21 257.58,29.64 258.45,30.39L278.57,47.58C278.94,47.9 279.1,48.39 278.99,48.86L272.82,74.6C272.61,75.47 273.3,76.2 274.08,76.2C274.3,76.2 274.53,76.14 274.75,76.01L297.32,62.19C297.53,62.06 297.76,62 298,62C298.24,62 298.47,62.06 298.68,62.19L321.25,76.01C321.47,76.14 321.7,76.2 321.92,76.2C322.7,76.2 323.39,75.47 323.18,74.6L317.01,48.86C316.9,48.39 317.06,47.89 317.43,47.58L337.55,30.39C338.43,29.64 337.96,28.21 336.81,28.12L310.42,26.04C309.94,26 309.51,25.7 309.33,25.25L299.19,0.8C298.97,0.27 298.48,0 298,0Z" style="fill:rgb(255,172,34);fill-rule:nonzero;"/>
                </g>
                <g transform="matrix(1,0,0,0.989738,2.136e-08,0)">
                    <path d="M213.71,60.5C213.19,60.18 212.6,60.02 212,60.02C211.4,60.02 210.8,60.19 210.29,60.5L189.14,73.45L194.92,49.34C195.21,48.14 194.8,46.89 193.86,46.08L175,29.97L199.72,28.02C200.96,27.92 202.02,27.15 202.49,26.01L211.99,3.1L221.49,26.01C221.96,27.15 223.02,27.92 224.26,28.02L248.98,29.97L230.13,46.08C229.19,46.88 228.78,48.13 229.07,49.34L234.85,73.45L213.7,60.5L213.71,60.5Z" style="fill:rgb(255,172,34);fill-rule:nonzero;"/>
                </g>
                <g transform="matrix(1,0,0,0.989738,2.136e-08,0)">
                    <path d="M219.66,26.77C220.42,28.6 222.14,29.85 224.11,30L243.24,31.51C243.54,31.53 243.66,31.91 243.43,32.11L228.84,44.57C227.34,45.85 226.68,47.87 227.14,49.8L231.6,68.41C231.67,68.72 231.33,68.97 231.06,68.8L214.74,58.8C213.91,58.29 212.96,58.03 211.99,58.03C211.02,58.03 210.07,58.3 209.24,58.8L192.92,68.8C192.65,68.97 192.31,68.72 192.38,68.41L196.84,49.8C197.3,47.88 196.65,45.86 195.14,44.57L180.55,32.11C180.32,31.91 180.44,31.54 180.74,31.51L199.87,30C201.84,29.84 203.56,28.6 204.32,26.77L211.7,8.96C211.8,8.71 212.16,8.71 212.26,8.96L219.64,26.77L219.66,26.77ZM212,0C211.51,0 211.03,0.27 210.81,0.8L200.67,25.25C200.48,25.7 200.06,26.01 199.58,26.04L173.19,28.12C172.04,28.21 171.58,29.64 172.45,30.39L192.57,47.58C192.94,47.9 193.1,48.39 192.99,48.86L186.82,74.6C186.61,75.47 187.3,76.2 188.08,76.2C188.3,76.2 188.53,76.14 188.75,76.01L211.32,62.19C211.53,62.06 211.76,62 212,62C212.24,62 212.47,62.06 212.68,62.19L235.25,76.01C235.47,76.14 235.7,76.2 235.92,76.2C236.7,76.2 237.39,75.47 237.18,74.6L231.01,48.86C230.9,48.39 231.06,47.89 231.43,47.58L251.55,30.39C252.43,29.64 251.96,28.21 250.81,28.12L224.42,26.04C223.94,26 223.51,25.7 223.33,25.25L213.19,0.8C212.97,0.27 212.48,0 212,0Z" style="fill:rgb(255,172,34);fill-rule:nonzero;"/>
                </g>
                <g transform="matrix(1,0,0,0.989738,2.136e-08,0)">
                    <path d="M127.71,60.5C127.19,60.18 126.6,60.02 126,60.02C125.4,60.02 124.8,60.19 124.29,60.5L103.14,73.45L108.92,49.34C109.21,48.14 108.8,46.89 107.86,46.08L89,29.97L113.72,28.02C114.96,27.92 116.02,27.15 116.49,26.01L125.99,3.1L135.49,26.01C135.96,27.15 137.02,27.92 138.26,28.02L162.98,29.97L144.13,46.08C143.19,46.88 142.78,48.13 143.07,49.34L148.85,73.45L127.7,60.5L127.71,60.5Z" style="fill:rgb(255,172,34);fill-rule:nonzero;"/>
                </g>
                <g transform="matrix(1,0,0,0.989738,2.136e-08,0)">
                    <path d="M133.66,26.77C134.42,28.6 136.14,29.85 138.11,30L157.24,31.51C157.54,31.53 157.66,31.91 157.43,32.11L142.84,44.57C141.34,45.85 140.68,47.87 141.14,49.8L145.6,68.41C145.67,68.72 145.33,68.97 145.06,68.8L128.74,58.8C127.91,58.29 126.96,58.03 125.99,58.03C125.02,58.03 124.07,58.3 123.24,58.8L106.92,68.8C106.65,68.97 106.31,68.72 106.38,68.41L110.84,49.8C111.3,47.88 110.65,45.86 109.14,44.57L94.55,32.11C94.32,31.91 94.44,31.54 94.74,31.51L113.87,30C115.84,29.84 117.56,28.6 118.32,26.77L125.7,8.96C125.8,8.71 126.16,8.71 126.26,8.96L133.64,26.77L133.66,26.77ZM126,0C125.51,0 125.03,0.27 124.81,0.8L114.67,25.25C114.48,25.7 114.06,26.01 113.58,26.04L87.19,28.12C86.04,28.21 85.58,29.64 86.45,30.39L106.57,47.58C106.94,47.9 107.1,48.39 106.99,48.86L100.82,74.6C100.61,75.47 101.3,76.2 102.08,76.2C102.3,76.2 102.53,76.14 102.75,76.01L125.32,62.19C125.53,62.06 125.76,62 126,62C126.24,62 126.47,62.06 126.68,62.19L149.25,76.01C149.47,76.14 149.7,76.2 149.92,76.2C150.7,76.2 151.39,75.47 151.18,74.6L145.01,48.86C144.9,48.39 145.06,47.89 145.43,47.58L165.55,30.39C166.43,29.64 165.96,28.21 164.81,28.12L138.42,26.04C137.94,26 137.51,25.7 137.33,25.25L127.19,0.8C126.97,0.27 126.48,0 126,0Z" style="fill:rgb(255,172,34);fill-rule:nonzero;"/>
                </g>
                <g transform="matrix(1,0,0,0.989738,2.136e-08,0)">
                    <path d="M41.71,60.5C41.19,60.18 40.6,60.02 40,60.02C39.4,60.02 38.8,60.19 38.29,60.5L17.14,73.45L22.92,49.34C23.21,48.14 22.8,46.89 21.86,46.08L3.01,29.97L27.73,28.02C28.97,27.92 30.03,27.15 30.5,26.01L40,3.1L49.5,26.01C49.97,27.15 51.03,27.92 52.27,28.02L76.99,29.97L58.14,46.08C57.2,46.88 56.79,48.13 57.08,49.34L62.86,73.45L41.71,60.5Z" style="fill:rgb(255,172,34);fill-rule:nonzero;"/>
                </g>
                <g transform="matrix(1,0,0,0.989738,2.136e-08,0)">
                    <path d="M47.66,26.77C48.42,28.6 50.14,29.85 52.11,30L71.24,31.51C71.54,31.53 71.66,31.91 71.43,32.11L56.84,44.57C55.34,45.85 54.68,47.87 55.14,49.8L59.6,68.41C59.67,68.72 59.33,68.97 59.06,68.8L42.74,58.8C41.91,58.29 40.96,58.03 39.99,58.03C39.02,58.03 38.07,58.3 37.24,58.8L20.92,68.8C20.65,68.97 20.31,68.72 20.38,68.41L24.84,49.8C25.3,47.88 24.65,45.86 23.14,44.57L8.55,32.11C8.32,31.91 8.44,31.54 8.74,31.51L27.87,30C29.84,29.84 31.56,28.6 32.32,26.77L39.7,8.96C39.8,8.71 40.16,8.71 40.26,8.96L47.64,26.77L47.66,26.77ZM40,0C39.51,0 39.03,0.27 38.81,0.8L28.67,25.25C28.48,25.7 28.06,26.01 27.58,26.04L1.19,28.13C0.04,28.22 -0.42,29.65 0.45,30.4L20.57,47.59C20.94,47.91 21.1,48.4 20.99,48.87L14.82,74.61C14.61,75.48 15.3,76.21 16.08,76.21C16.3,76.21 16.53,76.15 16.75,76.02L39.32,62.2C39.53,62.07 39.76,62.01 40,62.01C40.24,62.01 40.47,62.07 40.68,62.2L63.25,76.02C63.47,76.15 63.7,76.21 63.92,76.21C64.7,76.21 65.39,75.48 65.18,74.61L59.01,48.87C58.9,48.4 59.06,47.9 59.43,47.59L79.55,30.4C80.43,29.65 79.96,28.22 78.81,28.13L52.42,26.05C51.94,26.01 51.51,25.71 51.33,25.26L41.19,0.8C40.97,0.27 40.48,0 40,0Z" style="fill:rgb(255,172,34);fill-rule:nonzero;"/>
                </g>
            </g>
        </g>
    </g>
</svg>
