<?xml version="1.0" encoding="UTF-8" standalone="no"?>
<!DOCTYPE svg PUBLIC "-//W3C//DTD SVG 1.1//EN" "http://www.w3.org/Graphics/SVG/1.1/DTD/svg11.dtd">
<svg width="56px" height="18px" version="1.1" xmlns="http://www.w3.org/2000/svg" xmlns:xlink="http://www.w3.org/1999/xlink" xml:space="preserve" xmlns:serif="http://www.serif.com/" style="fill-rule:evenodd;clip-rule:evenodd;stroke-linejoin:round;stroke-miterlimit:2;">
    <g transform="matrix(1,0,0,1,-571,-106)">
        <g transform="matrix(1,0,0,-1,277.589,4388.12)">
            <path d="M309.08,4269.76L309.454,4270.15L309.685,4270.39L308.095,4272.03L307.989,4271.93L306.955,4270.86L304.885,4273L303.539,4274.39L299.507,4270.21L294.34,4264.86L295.543,4264.86L299.507,4268.96L299.444,4267.13L304.443,4270.45L305.689,4267.96L308.326,4270.54L309.067,4269.76L309.08,4269.76ZM338.086,4275.61L334.559,4279.27L334.353,4279.06L332.278,4276.91L326.874,4282.05L322.094,4280.27L317.326,4275.62L306.942,4264.86L308.151,4264.86L320.697,4276.29L325.696,4275.87L334.44,4270.46L332.776,4274.62L334.023,4275.87L338.186,4270.04L338.604,4271.29L346.874,4264.86L348.482,4264.86L338.099,4275.61L338.086,4275.61Z" style="fill:rgb(21,54,102);fill-rule:nonzero;"/>
        </g>
    </g>
</svg>
