<?xml version="1.0" encoding="UTF-8" standalone="no"?>
<!DOCTYPE svg PUBLIC "-//W3C//DTD SVG 1.1//EN" "http://www.w3.org/Graphics/SVG/1.1/DTD/svg11.dtd">
<svg width="35px" height="35px" version="1.1" xmlns="http://www.w3.org/2000/svg" xmlns:xlink="http://www.w3.org/1999/xlink" xml:space="preserve" xmlns:serif="http://www.serif.com/" style="fill-rule:evenodd;clip-rule:evenodd;stroke-linejoin:round;stroke-miterlimit:2;">
    <g transform="matrix(1,0,0,1,-246,-970)">
        <g>
            <g transform="matrix(1,0,0,-1,246,1005)">
                <path d="M17.5,35C18.073,35 18.645,34.972 19.215,34.916C19.786,34.86 20.352,34.776 20.914,34.664C21.476,34.552 22.032,34.413 22.58,34.246C23.128,34.08 23.667,33.887 24.197,33.668C24.726,33.449 25.244,33.204 25.749,32.934C26.255,32.663 26.746,32.369 27.222,32.051C27.699,31.732 28.159,31.391 28.602,31.028C29.045,30.664 29.469,30.28 29.874,29.874C30.28,29.469 30.664,29.045 31.028,28.602C31.391,28.159 31.732,27.699 32.051,27.222C32.369,26.746 32.663,26.255 32.934,25.749C33.204,25.244 33.449,24.726 33.668,24.197C33.887,23.667 34.08,23.128 34.246,22.58C34.413,22.032 34.552,21.476 34.664,20.914C34.776,20.352 34.86,19.786 34.916,19.215C34.972,18.645 35,18.073 35,17.5C35,16.927 34.972,16.355 34.916,15.785C34.86,15.214 34.776,14.648 34.664,14.086C34.552,13.524 34.413,12.968 34.246,12.42C34.08,11.872 33.887,11.333 33.668,10.803C33.449,10.274 33.204,9.756 32.934,9.251C32.663,8.745 32.369,8.254 32.051,7.778C31.732,7.301 31.391,6.841 31.028,6.398C30.664,5.955 30.28,5.531 29.874,5.126C29.469,4.72 29.045,4.336 28.602,3.972C28.159,3.609 27.699,3.268 27.222,2.949C26.746,2.631 26.255,2.337 25.749,2.066C25.244,1.796 24.726,1.551 24.197,1.332C23.667,1.113 23.128,0.92 22.58,0.754C22.032,0.587 21.476,0.448 20.914,0.336C20.352,0.224 19.786,0.14 19.215,0.084C18.645,0.028 18.073,0 17.5,0C16.927,0 16.355,0.028 15.785,0.084C15.214,0.14 14.648,0.224 14.086,0.336C13.524,0.448 12.968,0.587 12.42,0.754C11.872,0.92 11.333,1.113 10.803,1.332C10.274,1.551 9.756,1.796 9.251,2.066C8.745,2.337 8.254,2.631 7.778,2.949C7.301,3.268 6.841,3.609 6.398,3.972C5.955,4.336 5.531,4.72 5.126,5.126C4.72,5.531 4.336,5.955 3.972,6.398C3.609,6.841 3.268,7.301 2.949,7.778C2.631,8.254 2.337,8.745 2.066,9.251C1.796,9.756 1.551,10.274 1.332,10.803C1.113,11.333 0.92,11.872 0.754,12.42C0.587,12.968 0.448,13.524 0.336,14.086C0.224,14.648 0.14,15.214 0.084,15.785C0.028,16.355 0,16.927 0,17.5C0,18.073 0.028,18.645 0.084,19.215C0.14,19.786 0.224,20.352 0.336,20.914C0.448,21.476 0.587,22.032 0.754,22.58C0.92,23.128 1.113,23.667 1.332,24.197C1.551,24.726 1.796,25.244 2.066,25.749C2.337,26.255 2.631,26.746 2.949,27.222C3.268,27.699 3.609,28.159 3.972,28.602C4.336,29.045 4.72,29.469 5.126,29.874C5.531,30.28 5.955,30.664 6.398,31.028C6.841,31.391 7.301,31.732 7.778,32.051C8.254,32.369 8.745,32.663 9.251,32.934C9.756,33.204 10.274,33.449 10.803,33.668C11.333,33.887 11.872,34.08 12.42,34.246C12.968,34.413 13.524,34.552 14.086,34.664C14.648,34.776 15.214,34.86 15.785,34.916C16.355,34.972 16.927,35 17.5,35Z" style="fill:rgb(82,202,255);fill-rule:nonzero;"/>
            </g>
            <g transform="matrix(1,0,0,-1,252.063,998.937)">
                <g>
                    <path d="M22.874,11.425C22.878,13.819 22.146,16.034 20.897,17.87C20.695,18.167 20.48,18.452 20.251,18.729C18.156,21.26 14.991,22.871 11.449,22.875C7.908,22.879 4.74,21.274 2.638,18.745C2.409,18.471 2.193,18.185 1.989,17.889C0.737,16.056 0.002,13.842 -0,11.451C-0.003,9.062 0.727,6.846 1.973,5.01C2.177,4.713 2.39,4.428 2.619,4.151C4.714,1.62 7.879,0.004 11.425,-0C14.97,-0.004 18.139,1.607 20.241,4.134C20.469,4.409 20.683,4.694 20.888,4.991C22.137,6.823 22.872,9.039 22.874,11.425M19.022,18.007C18.36,17.666 17.62,17.373 16.832,17.126C16.315,18.673 15.592,19.978 14.73,20.923C16.406,20.339 17.884,19.324 19.022,18.007M12.016,12.019L12.019,15.189C13.432,15.226 14.787,15.399 16.039,15.697C16.328,14.55 16.494,13.307 16.533,12.014L12.016,12.019ZM16.531,10.856C16.491,9.561 16.32,8.319 16.03,7.17C14.778,7.47 13.425,7.646 12.011,7.686L12.015,10.86L16.531,10.856ZM10.857,10.862L10.853,7.689C9.441,7.651 8.087,7.477 6.834,7.177C6.545,8.327 6.378,9.57 6.34,10.866L10.857,10.862ZM6.341,12.024C6.383,13.318 6.552,14.561 6.842,15.709C8.094,15.407 9.447,15.229 10.862,15.191L10.858,12.02L6.341,12.024ZM14.867,18.742C15.196,18.159 15.474,17.508 15.709,16.817C14.557,16.546 13.315,16.385 12.021,16.346L12.025,21.346C13.06,21.097 14.052,20.196 14.867,18.742M8.02,18.749C8.839,20.202 9.834,21.099 10.867,21.346L10.861,16.349C9.57,16.388 8.325,16.552 7.176,16.826C7.412,17.517 7.69,18.166 8.02,18.749M8.163,20.931C7.298,19.987 6.574,18.683 6.053,17.136C5.263,17.385 4.523,17.681 3.862,18.024C5.006,19.337 6.485,20.35 8.163,20.931M3.139,17.093C3.916,16.673 4.787,16.313 5.725,16.02C5.411,14.79 5.219,13.444 5.175,12.026L1.418,12.03C1.528,13.9 2.143,15.634 3.139,17.093M1.416,10.87L5.173,10.867C5.213,9.449 5.404,8.099 5.715,6.869C4.779,6.579 3.909,6.219 3.131,5.799C2.134,7.261 1.522,9.001 1.416,10.87M3.852,4.869C4.513,5.211 5.253,5.503 6.042,5.749C6.561,4.202 7.284,2.898 8.146,1.951C6.469,2.536 4.993,3.553 3.852,4.869M8.005,4.135C7.677,4.72 7.401,5.37 7.166,6.059C8.316,6.331 9.559,6.492 10.853,6.529L10.846,1.534C9.813,1.782 8.821,2.683 8.005,4.135M14.853,4.131C14.034,2.678 13.04,1.78 12.005,1.534L12.011,6.528C13.303,6.489 14.546,6.323 15.696,6.05C15.459,5.36 15.182,4.712 14.853,4.131M17.157,16.007C18.094,16.298 18.965,16.655 19.743,17.072C20.739,15.612 21.353,13.876 21.457,12.008L17.698,12.013C17.659,13.43 17.468,14.777 17.157,16.007M14.706,1.945C15.571,2.888 16.296,4.192 16.818,5.739C17.606,5.49 18.344,5.195 19.004,4.852C17.863,3.54 16.386,2.527 14.706,1.945M19.727,5.787C18.952,6.209 18.083,6.567 17.148,6.86C17.462,8.088 17.655,9.435 17.697,10.854L21.455,10.85C21.347,8.982 20.727,7.247 19.727,5.787" style="fill:white;fill-rule:nonzero;"/>
                </g>
            </g>
        </g>
    </g>
</svg>
