<svg xmlns="http://www.w3.org/2000/svg" width="45" height="53" viewBox="0 0 45 53">
  <g id="icon-condition" transform="translate(-305 -4130)">
    <rect id="Rectangle_739" data-name="Rectangle 739" width="45" height="53" transform="translate(305 4130)" fill="rgba(255,255,255,0)"/>
    <g id="Group_13" data-name="Group 13" transform="translate(314 4144.475)">
      <path id="Path_172" data-name="Path 172" d="M888.444,2064.266c1.13-1.408,2.22-2.776,3.365-4.209-.271-.151-.493-.286-.732-.405-1.615-.8-3.238-1.567-4.845-2.371-1.3-.661-1.933-1.664-1.6-2.777a7.474,7.474,0,0,1,1.082-1.862c.056-.087.366-.087.525-.023a37.8,37.8,0,0,1,9.444,5.426,1.664,1.664,0,0,1,.127,2.626c-1.4,1.448-2.816,2.872-4.217,4.3-.143.143-.271.3-.462.5.692.31,1.329.6,1.965.9,2.236,1.018,4.471,2.053,6.707,3.063a6.549,6.549,0,0,0,1.026.35.9.9,0,0,0,1.146-.494.765.765,0,0,1,1.186-.382c.485.3.414.756.159,1.2a2.453,2.453,0,0,1-2.721,1.241,7.279,7.279,0,0,1-1.353-.454q-10.538-4.785-21.06-9.611a1.46,1.46,0,0,1-.756-.771c-.183-.628.549-1.019,1.273-.692,1.806.811,3.6,1.639,5.41,2.458,1.448.66,2.9,1.313,4.344,1.973Z" transform="translate(-876.108 -2042.036)" fill="#224d8d"/>
      <path id="Path_173" data-name="Path 173" d="M879.3,2045.374c2.212.995,4.384,1.981,6.556,2.96a1.992,1.992,0,0,0,2.387-.406c.581-.549,1.138-1.122,1.727-1.663a2.605,2.605,0,0,1,4.4.748c.692,1.313,1.392,2.618,2.053,3.947a.858.858,0,0,0,.9.541c1.321,0,2.642.032,3.97.072a1.325,1.325,0,0,1,1.472,1.281c.016.78-.485,1.281-1.384,1.392q-2.745.334-5.49.7a1.71,1.71,0,0,1-1.671-.7c-.708-.891-1.456-1.758-2.26-2.713-.525.962-1.153.509-1.79.215q-5.717-2.589-11.473-5.18c-.43.374-.493,1.424-1.377.891-.652-.4-.119-.923.056-1.464-.382-.183-.764-.358-1.146-.549s-.6-.533-.35-.883a1,1,0,0,1,.844-.318,5.932,5.932,0,0,1,1.273.525c.39-.414.509-1.353,1.337-.891.684.382.127.963-.024,1.5Z" transform="translate(-875.776 -2040.234)" fill="#224d8d"/>
      <path id="Path_174" data-name="Path 174" d="M897.81,2042.306a2.976,2.976,0,1,1,2.976,3.031,3,3,0,0,1-2.968-3.031Z" transform="translate(-880.279 -2039.33)" fill="#224d8d"/>
    </g>
  </g>
</svg>
