<svg xmlns="http://www.w3.org/2000/svg" width="10.484" height="22.252" viewBox="0 0 10.484 22.252">
  <path id="Path_166" data-name="Path 166" d="M1438.126,398.183V387.163h2.836c.181,0,.253-.051.268-.232.029-.318.073-.644.109-.962.087-.818.174-1.628.26-2.446.029-.239.022-.253-.217-.253h-3.256v-.412c.014-.724.029-1.454.058-2.178a.714.714,0,0,1,.55-.709,2.791,2.791,0,0,1,.731-.109c.622-.014,1.237,0,1.859-.007.268,0,.29-.014.29-.282v-3.35c0-.253-.022-.275-.282-.275-.883,0-1.765-.007-2.648,0a7.934,7.934,0,0,0-2.431.311,3.7,3.7,0,0,0-2.105,1.628,5.392,5.392,0,0,0-.673,2.583c-.036.89-.022,1.78-.029,2.663a1.058,1.058,0,0,1-.007.145h-2.048c-.188,0-.26.043-.26.246.007,1.129.007,2.265,0,3.393,0,.2.058.26.253.26.629-.007,1.266,0,1.9,0a1.068,1.068,0,0,1,.152.007c0,.036.007.058.007.08V398.2h4.674Z" transform="translate(-1431.13 -375.945)" fill="#153666"/>
</svg>
