<svg xmlns="http://www.w3.org/2000/svg" width="30.426" height="32.614" viewBox="0 0 30.426 32.614">
  <g id="Group_251" data-name="Group 251" transform="translate(0)">
    <path id="Path_1992" data-name="Path 1992" d="M1671.843,428.79c1.246-1.56,2.467-3.086,3.731-4.672-.3-.166-.549-.322-.811-.445-1.8-.88-3.6-1.735-5.378-2.632-1.447-.732-2.144-1.848-1.778-3.077a8.656,8.656,0,0,1,1.194-2.066c.061-.1.41-.1.576-.026a41.649,41.649,0,0,1,10.477,6.023,1.843,1.843,0,0,1,.14,2.911c-1.552,1.6-3.121,3.19-4.681,4.776-.157.157-.305.331-.505.558.767.349,1.473.671,2.188.994,2.484,1.133,4.959,2.275,7.444,3.4a7.67,7.67,0,0,0,1.142.392,1.009,1.009,0,0,0,1.272-.549.844.844,0,0,1,1.308-.427c.54.331.453.837.183,1.333a2.728,2.728,0,0,1-3.024,1.377,7.593,7.593,0,0,1-1.5-.506q-11.7-5.321-23.377-10.669a1.6,1.6,0,0,1-.837-.854c-.2-.7.6-1.133,1.412-.767,2,.9,4,1.822,6.005,2.728q2.406,1.1,4.821,2.2Z" transform="translate(-1658.131 -404.114)" fill="#fff"/>
    <path id="Path_1993" data-name="Path 1993" d="M1661.86,408.666c2.449,1.107,4.863,2.2,7.278,3.277a2.217,2.217,0,0,0,2.65-.445c.645-.61,1.264-1.246,1.917-1.848a2.888,2.888,0,0,1,4.881.828c.767,1.456,1.552,2.911,2.275,4.384a.94.94,0,0,0,.994.6c1.464,0,2.937.035,4.4.078,1.011.026,1.613.567,1.63,1.421.017.872-.541,1.421-1.534,1.543-2.031.253-4.062.506-6.093.776a1.889,1.889,0,0,1-1.856-.776c-.793-.985-1.613-1.944-2.511-3.016-.584,1.072-1.281.558-1.987.244q-6.354-2.876-12.734-5.744c-.471.41-.54,1.578-1.534.985-.724-.436-.131-1.029.061-1.621-.418-.2-.845-.4-1.272-.6s-.663-.593-.392-.976a1.114,1.114,0,0,1,.933-.357,6.628,6.628,0,0,1,1.412.584c.436-.453.567-1.5,1.491-.994.758.418.14,1.072-.027,1.656Z" transform="translate(-1657.918 -402.966)" fill="#fff"/>
    <path id="Path_1994" data-name="Path 1994" d="M1680.26,405.693a3.3,3.3,0,1,1,3.295,3.364A3.3,3.3,0,0,1,1680.26,405.693Z" transform="translate(-1660.786 -402.39)" fill="#fff"/>
  </g>
</svg>
