<svg xmlns="http://www.w3.org/2000/svg" width="18.384" height="20.629" viewBox="0 0 18.384 20.629">
  <path id="Path_1991" data-name="Path 1991" d="M1672.355,348.76v3.093c.681-.39,1.293-.742,1.948-1.113.192.334.371.643.575.984-.761.439-1.479.872-2.208,1.274a.56.56,0,0,0-.328.575c.019,1.361.006,2.728.006,4.089,0,.117.012.235.024.414.52-.3.99-.569,1.46-.841.816-.47,1.645-.934,2.449-1.429a.7.7,0,0,0,.284-.495c.031-.854.012-1.707.012-2.579h1.126v2.252c.94-.544,1.8-1.039,2.678-1.54.192.334.377.649.569.99-.866.507-1.72,1-2.647,1.546.668.39,1.286.755,1.955,1.144-.186.322-.359.631-.569.99-.742-.427-1.466-.829-2.177-1.262a.621.621,0,0,0-.736,0c-1.256.748-2.524,1.472-3.847,2.239.328.192.594.359.866.52.977.569,1.961,1.12,2.919,1.707a.715.715,0,0,0,.86-.012c.674-.421,1.367-.8,2.1-1.219.186.315.371.619.588.977-.643.377-1.268.742-1.967,1.15.909.532,1.763,1.033,2.648,1.546-.186.328-.365.643-.563.99l-2.666-1.534v2.245h-1.144c0-.823-.019-1.645.006-2.462a.653.653,0,0,0-.4-.68c-1.262-.705-2.505-1.441-3.841-2.208v.687c0,1.268.012,2.542-.006,3.81a.594.594,0,0,0,.353.606c.718.4,1.429.816,2.184,1.256-.186.334-.365.643-.563.99-.643-.371-1.262-.724-1.942-1.113v3.043h-1.175v-3.056c-.705.4-1.33.748-1.979,1.12-.192-.328-.371-.631-.569-.977.748-.433,1.466-.866,2.189-1.268a.6.6,0,0,0,.353-.612c-.019-1.466-.006-2.938-.006-4.454a3.377,3.377,0,0,0-.315.136c-1.2.693-2.4,1.392-3.606,2.078a.532.532,0,0,0-.309.544c.019.841,0,1.682,0,2.548h-1.126V363.2c-.94.544-1.794,1.033-2.672,1.54-.186-.322-.371-.637-.575-.983.866-.507,1.732-1.014,2.647-1.546-.668-.4-1.293-.761-1.955-1.15.192-.328.371-.643.563-.984.78.445,1.528.885,2.289,1.3a.535.535,0,0,0,.439.049c1.33-.748,2.641-1.516,4.008-2.3a2.573,2.573,0,0,0-.3-.235c-1.2-.693-2.406-1.379-3.6-2.084a.483.483,0,0,0-.575.006c-.73.439-1.472.854-2.258,1.3-.192-.328-.371-.637-.569-.983.649-.377,1.274-.742,1.961-1.144-.916-.532-1.775-1.039-2.654-1.546.2-.34.377-.656.569-.99.872.5,1.726,1,2.641,1.528V352.75h1.163c0,.86-.012,1.713.012,2.567a.626.626,0,0,0,.247.47c1.243.742,2.5,1.46,3.755,2.19a1.52,1.52,0,0,0,.217.087v-2.555c0-.656-.012-1.318,0-1.973a.5.5,0,0,0-.291-.507c-.742-.414-1.472-.854-2.239-1.305.185-.328.359-.631.563-.99.643.371,1.268.724,1.955,1.12V348.76h1.188Z" transform="translate(-1662.57 -348.76)" fill="#153666"/>
</svg>
