<svg xmlns="http://www.w3.org/2000/svg" width="100" height="80" viewBox="0 0 100 80">
  <g id="Group_1337" data-name="Group 1337" transform="translate(-97 -4210)">
    <rect id="Rectangle_741" data-name="Rectangle 741" width="100" height="80" transform="translate(97 4210)" fill="none"/>
    <g id="Group_671" data-name="Group 671" transform="translate(111 4221)">
      <path id="Path_2882" data-name="Path 2882" d="M184.016,565.7c-3.55-12.506-11.239-22.612-21.04-27.828l.987-2.912a14.941,14.941,0,0,0,7.827-.942.464.464,0,0,0,.152-.655c-2.007-2.31-2.909-5.45-3.516-7.163a6.486,6.486,0,0,0,3.542-.308.375.375,0,0,0,.13-.516c-1.917-2.553-3.02-7.245-3.02-7.245a3.841,3.841,0,0,0,2.9-.17.2.2,0,0,0,.069-.284c-2.121-2.226-3.4-7.24-3.722-8.633a.178.178,0,0,0-.329-.084c-.955,1.064-4.492,4.841-7.424,5.768a.2.2,0,0,0-.076.283,3.841,3.841,0,0,0,2.455,1.545s-3.229,3.579-6.14,4.891a.375.375,0,0,0-.135.515,6.491,6.491,0,0,0,2.954,1.978c-1.358,1.208-3.66,3.524-6.532,4.581a.464.464,0,0,0-.183.647,14.935,14.935,0,0,0,6.4,4.6l-.405,2.273a31.816,31.816,0,0,0-8.975-1.948.668.668,0,0,0-.56,1.085,25.946,25.946,0,0,1,2.317,3.254c1.106,2.009.553,3.415-.829,5.022s-5.664,3.487-5.417,6.361c.415,4.821,13.128,5.327,11.469,13.763a5.356,5.356,0,0,1-1.5,2.312.524.524,0,0,0,.366.9H183.2A.851.851,0,0,0,184.016,565.7Z" transform="translate(-111.476 -508.88)" fill="#1785e3"/>
      <path id="Path_2883" data-name="Path 2883" d="M48.712,612.559c1.91-1.3,5.819-2.479,7.478-4.889,1.213-1.762-1.861-3.99-2.924-5.1a.658.658,0,0,0-.558-.2c-15.049,1.915-27.516,14.553-32.3,31.612a.716.716,0,0,0,.693.906H40.542a8.039,8.039,0,0,0,3.308-.715c2.554-1.153,6.6-3.219,6.659-6.752.023-1.4-1.092-3.66-3.647-6.754C44.668,618.011,45.333,614.857,48.712,612.559Z" transform="translate(-20.386 -576.979)" fill="#1785e3"/>
      <path id="Path_2884" data-name="Path 2884" d="M72.848,533.445a1.794,1.794,0,1,0-2.284-1.1A1.793,1.793,0,0,0,72.848,533.445Z" transform="translate(-56.864 -524.234)" fill="#1785e3"/>
      <ellipse id="Ellipse_188" data-name="Ellipse 188" cx="1.794" cy="1.794" rx="1.794" ry="1.794" transform="translate(22.159 10.159)" fill="#1785e3"/>
      <path id="Path_2885" data-name="Path 2885" d="M62.9,564.217a1.794,1.794,0,1,0-2.284-1.1A1.794,1.794,0,0,0,62.9,564.217Z" transform="translate(-49.62 -546.648)" fill="#1785e3"/>
      <path id="Path_2886" data-name="Path 2886" d="M48.593,597.295a1.793,1.793,0,1,0-2.284-1.1A1.794,1.794,0,0,0,48.593,597.295Z" transform="translate(-39.196 -570.744)" fill="#1785e3"/>
      <path id="Path_2887" data-name="Path 2887" d="M90.06,582.852a1.793,1.793,0,1,0-2.284-1.1A1.794,1.794,0,0,0,90.06,582.852Z" transform="translate(-69.402 -560.223)" fill="#1785e3"/>
      <path id="Path_2888" data-name="Path 2888" d="M131.524,568.41a1.793,1.793,0,1,0-2.283-1.1A1.794,1.794,0,0,0,131.524,568.41Z" transform="translate(-99.607 -549.703)" fill="#1785e3"/>
    </g>
  </g>
</svg>
