<svg id="Group_250" data-name="Group 250" xmlns="http://www.w3.org/2000/svg" width="19.809" height="21.782" viewBox="0 0 19.809 21.782">
  <path id="Path_1981" data-name="Path 1981" d="M1679.974,307.466c-.056-.6-.111-1.058.668-1.386a3.308,3.308,0,0,0,1.627-4.181,3.4,3.4,0,0,0-4.064-2.072c-.235.062-.476.124-.773.2a5.513,5.513,0,0,0-1-3.482,4.309,4.309,0,0,0-4.355-1.689,4.065,4.065,0,0,0-3.316,2.8c-.284.8-.662,1.058-1.41.977a5.368,5.368,0,0,1,4.132-4.9,5.5,5.5,0,0,1,4.614.835,6.083,6.083,0,0,1,2.474,3.9c3.538-.031,5.289,2.4,5.072,5.06-.167,2.035-2.017,4.083-3.674,3.946Z" transform="translate(-1663.851 -293.546)" fill="#153666"/>
  <path id="Path_1982" data-name="Path 1982" d="M1664.055,310.8a3.878,3.878,0,0,1-2.357-3.421,1.9,1.9,0,0,1,.427-1.262c.872-.984,1.837-1.887,2.765-2.814a3.292,3.292,0,0,1,.439-.4c.513-.359.835-.223.959.39a4.679,4.679,0,0,1,.087.513c.012.118,0,.241,0,.439-.241.012-.452.031-.668.037a2.818,2.818,0,0,0-2.449,4.219,19.349,19.349,0,0,1,.792,2.295Z" transform="translate(-1661.694 -297.043)" fill="#153666"/>
  <path id="Path_1983" data-name="Path 1983" d="M1672.339,328h-1.089V326.78h1.089Z" transform="translate(-1665.339 -306.223)" fill="#153666"/>
  <path id="Path_1984" data-name="Path 1984" d="M1681.966,318.276h1.268a3.679,3.679,0,0,1-.161,1.12.889.889,0,0,1-.792.006,3.592,3.592,0,0,1-.322-1.132Z" transform="translate(-1669.425 -302.977)" fill="#153666"/>
  <path id="Path_1985" data-name="Path 1985" d="M1676.53,323.58a2.491,2.491,0,0,1,.284-.959.624.624,0,0,1,.879.86,2.514,2.514,0,0,1-.947.315c-.074-.068-.142-.142-.216-.21Z" transform="translate(-1667.353 -304.607)" fill="#153666"/>
  <path id="Path_1986" data-name="Path 1986" d="M1683.3,314.2v1.027h-1.076V314.2Z" transform="translate(-1669.524 -301.424)" fill="#153666"/>
  <path id="Path_1987" data-name="Path 1987" d="M1677.88,318.725c-.037.606-.3.823-.754.736-.192-.037-.353-.278-.526-.427l.816-.8c.155.161.309.328.464.489Z" transform="translate(-1667.38 -302.962)" fill="#153666"/>
  <path id="Path_1988" data-name="Path 1988" d="M1676.658,309.886h1.058c.173,1.082.056,1.194-1.039.971-.012-.148-.037-.315-.037-.482,0-.142.012-.291.025-.495Z" transform="translate(-1667.395 -299.777)" fill="#153666"/>
  <path id="Path_1989" data-name="Path 1989" d="M1672.388,323.726h-1.008c.371-.4.643-.68,1.008-1.076Z" transform="translate(-1665.389 -304.648)" fill="#153666"/>
  <path id="Path_1990" data-name="Path 1990" d="M1683.05,309.96c.65,0,.674.062.309,1.033C1683.26,310.659,1683.161,310.325,1683.05,309.96Z" transform="translate(-1669.84 -299.807)" fill="#153666"/>
</svg>
