<svg id="Group_251" data-name="Group 251" xmlns="http://www.w3.org/2000/svg" width="21.592" height="23.145" viewBox="0 0 21.592 23.145">
  <path id="Path_1992" data-name="Path 1992" d="M1668.281,425.025c.885-1.107,1.75-2.19,2.647-3.315-.21-.118-.39-.229-.575-.315-1.274-.625-2.555-1.231-3.817-1.868-1.027-.52-1.521-1.311-1.262-2.184a6.141,6.141,0,0,1,.847-1.466c.043-.068.291-.068.408-.019a29.557,29.557,0,0,1,7.435,4.274,1.308,1.308,0,0,1,.1,2.066c-1.1,1.138-2.215,2.264-3.322,3.39-.112.111-.217.235-.359.4.544.247,1.045.476,1.552.705,1.763.8,3.52,1.614,5.282,2.412a5.449,5.449,0,0,0,.81.278.716.716,0,0,0,.9-.39.6.6,0,0,1,.928-.3c.383.235.322.594.13.946a1.936,1.936,0,0,1-2.146.977,5.388,5.388,0,0,1-1.064-.359q-8.3-3.776-16.59-7.571a1.136,1.136,0,0,1-.594-.606c-.142-.495.427-.8,1-.544,1.423.637,2.839,1.293,4.262,1.936q1.707.779,3.421,1.559Z" transform="translate(-1658.55 -407.514)" fill="#153666"/>
  <path id="Path_1993" data-name="Path 1993" d="M1660.715,408.146c1.738.786,3.451,1.559,5.165,2.326a1.573,1.573,0,0,0,1.88-.315c.458-.433.9-.884,1.361-1.311a2.05,2.05,0,0,1,3.464.588c.544,1.033,1.1,2.066,1.614,3.111a.668.668,0,0,0,.705.427c1.039,0,2.084.025,3.124.056.718.019,1.144.4,1.157,1.008s-.384,1.008-1.089,1.095c-1.441.179-2.883.359-4.324.551a1.34,1.34,0,0,1-1.317-.551c-.563-.7-1.145-1.379-1.782-2.14-.414.761-.909.4-1.41.173q-4.509-2.041-9.037-4.076c-.334.291-.383,1.12-1.089.7-.513-.309-.093-.73.043-1.15-.3-.142-.6-.285-.9-.427s-.47-.421-.278-.693a.79.79,0,0,1,.662-.254,4.7,4.7,0,0,1,1,.414c.309-.322.4-1.064,1.058-.705.538.3.1.761-.019,1.175Z" transform="translate(-1657.918 -404.101)" fill="#153666"/>
  <path id="Path_1994" data-name="Path 1994" d="M1680.26,404.734a2.342,2.342,0,1,1,2.338,2.388,2.342,2.342,0,0,1-2.338-2.388Z" transform="translate(-1666.44 -402.39)" fill="#153666"/>
</svg>
