<svg id="Group_383" data-name="Group 383" xmlns="http://www.w3.org/2000/svg" width="159.404" height="47.23" viewBox="0 0 159.404 47.23">
  <path id="Path_2184" data-name="Path 2184" d="M360.7,5704.456H212.554a5.6,5.6,0,0,1-5.584-5.588v-36.062a5.588,5.588,0,0,1,5.584-5.58H360.7a5.665,5.665,0,0,1,5.67,5.58v36.062a5.672,5.672,0,0,1-5.67,5.588" transform="translate(-206.97 -5657.226)" fill="#b2b2b3"/>
  <path id="Path_2185" data-name="Path 2185" d="M365.286,5698.923a4.522,4.522,0,0,1-4.526,4.523H212.609a4.528,4.528,0,0,1-4.533-4.523V5662.86a4.534,4.534,0,0,1,4.533-4.529H360.758a4.527,4.527,0,0,1,4.526,4.529v36.063Z" transform="translate(-207.024 -5657.28)" fill="#070303"/>
  <path id="Path_2186" data-name="Path 2186" d="M243.327,5681.343a6.849,6.849,0,0,1,3.26-5.744,7.006,7.006,0,0,0-5.521-2.984c-2.324-.245-4.575,1.39-5.759,1.39-1.206,0-3.029-1.366-4.992-1.325a7.354,7.354,0,0,0-6.187,3.773c-2.675,4.632-.68,11.439,1.883,15.184,1.282,1.833,2.78,3.882,4.741,3.809,1.919-.079,2.635-1.223,4.951-1.223,2.294,0,2.967,1.223,4.968,1.178,2.059-.034,3.356-1.842,4.593-3.693a15.166,15.166,0,0,0,2.1-4.277,6.617,6.617,0,0,1-4.039-6.086" transform="translate(-207.753 -5657.983)" fill="#fff"/>
  <path id="Path_2187" data-name="Path 2187" d="M240.18,5669.775a6.739,6.739,0,0,0,1.541-4.828,6.857,6.857,0,0,0-4.437,2.3,6.411,6.411,0,0,0-1.582,4.649,5.67,5.67,0,0,0,4.478-2.117" transform="translate(-208.384 -5657.607)" fill="#fff"/>
  <path id="Path_2188" data-name="Path 2188" d="M273.457,5677.841h-2.368l-1.3-4.08h-4.512l-1.236,4.08h-2.308l4.471-13.887h2.762Zm-4.059-5.789-1.174-3.627q-.185-.556-.7-2.617h-.041q-.207.885-.66,2.617l-1.153,3.627Z" transform="translate(-209.668 -5657.558)" fill="#fff"/>
  <path id="Path_2189" data-name="Path 2189" d="M285.636,5672.9a5.668,5.668,0,0,1-1.388,4.039,4.071,4.071,0,0,1-3.086,1.318,3.09,3.09,0,0,1-2.86-1.422v5.254h-2.227V5671.31q0-1.6-.082-3.292h1.958l.124,1.587h.041a3.958,3.958,0,0,1,6.337-.392,5.521,5.521,0,0,1,1.184,3.688m-2.265.082a4.136,4.136,0,0,0-.66-2.411,2.281,2.281,0,0,0-1.937-.989,2.315,2.315,0,0,0-1.495.546,2.528,2.528,0,0,0-.877,1.432,2.87,2.87,0,0,0-.1.68v1.669a2.663,2.663,0,0,0,.669,1.844,2.221,2.221,0,0,0,1.741.752,2.279,2.279,0,0,0,1.958-.968,4.279,4.279,0,0,0,.7-2.555" transform="translate(-210.371 -5657.748)" fill="#fff"/>
  <path id="Path_2190" data-name="Path 2190" d="M297.751,5672.9a5.672,5.672,0,0,1-1.388,4.039,4.074,4.074,0,0,1-3.087,1.318,3.092,3.092,0,0,1-2.86-1.422v5.254h-2.226V5671.31q0-1.6-.082-3.292h1.957l.124,1.587h.042a3.957,3.957,0,0,1,6.336-.392,5.521,5.521,0,0,1,1.185,3.688m-2.266.082a4.129,4.129,0,0,0-.66-2.411,2.279,2.279,0,0,0-1.937-.989,2.31,2.31,0,0,0-1.494.546,2.522,2.522,0,0,0-.877,1.432,2.879,2.879,0,0,0-.1.68v1.669a2.663,2.663,0,0,0,.67,1.844,2.219,2.219,0,0,0,1.74.752,2.278,2.278,0,0,0,1.958-.968,4.265,4.265,0,0,0,.7-2.555" transform="translate(-210.968 -5657.748)" fill="#fff"/>
  <path id="Path_2191" data-name="Path 2191" d="M314.276,5673.938a3.7,3.7,0,0,1-1.234,2.884,5.47,5.47,0,0,1-3.783,1.216,6.606,6.606,0,0,1-3.6-.866l.514-1.854a6.206,6.206,0,0,0,3.214.865,3.025,3.025,0,0,0,1.957-.567,1.846,1.846,0,0,0,.7-1.513,1.935,1.935,0,0,0-.577-1.423,5.376,5.376,0,0,0-1.916-1.071q-3.648-1.359-3.648-3.978a3.507,3.507,0,0,1,1.288-2.8,5.1,5.1,0,0,1,3.409-1.092,6.741,6.741,0,0,1,3.153.659l-.557,1.813a5.528,5.528,0,0,0-2.669-.639,2.716,2.716,0,0,0-1.841.577,1.645,1.645,0,0,0-.558,1.257,1.7,1.7,0,0,0,.639,1.36,7.247,7.247,0,0,0,2.019,1.071,6.834,6.834,0,0,1,2.636,1.688,3.543,3.543,0,0,1,.846,2.412" transform="translate(-211.833 -5657.547)" fill="#fff"/>
  <path id="Path_2192" data-name="Path 2192" d="M322.164,5669.568h-2.452v4.862q0,1.857,1.3,1.855a3.959,3.959,0,0,0,.99-.1l.061,1.689a5.028,5.028,0,0,1-1.731.247,2.66,2.66,0,0,1-2.059-.8,3.941,3.941,0,0,1-.743-2.7v-5.049h-1.462V5667.9h1.462v-1.834l2.185-.659v2.493h2.452Z" transform="translate(-212.345 -5657.629)" fill="#fff"/>
  <path id="Path_2193" data-name="Path 2193" d="M333.588,5672.942a5.493,5.493,0,0,1-1.32,3.792,4.706,4.706,0,0,1-3.667,1.525,4.476,4.476,0,0,1-3.513-1.463,5.326,5.326,0,0,1-1.309-3.688,5.441,5.441,0,0,1,1.351-3.812,4.67,4.67,0,0,1,3.635-1.483,4.579,4.579,0,0,1,3.545,1.463,5.281,5.281,0,0,1,1.278,3.667m-2.308.052a4.469,4.469,0,0,0-.6-2.363,2.2,2.2,0,0,0-2-1.191,2.234,2.234,0,0,0-2.04,1.191,4.553,4.553,0,0,0-.6,2.4,4.463,4.463,0,0,0,.6,2.362,2.246,2.246,0,0,0,2.018,1.191,2.224,2.224,0,0,0,2-1.211,4.454,4.454,0,0,0,.619-2.384" transform="translate(-212.725 -5657.748)" fill="#fff"/>
  <path id="Path_2194" data-name="Path 2194" d="M341.423,5669.976a3.715,3.715,0,0,0-.7-.062,2.105,2.105,0,0,0-1.814.885,3.342,3.342,0,0,0-.555,1.979v5.254h-2.226v-6.86q0-1.731-.062-3.153H338l.084,1.916h.061a3.413,3.413,0,0,1,1.112-1.586,2.7,2.7,0,0,1,1.608-.536,3.288,3.288,0,0,1,.555.042Z" transform="translate(-213.331 -5657.748)" fill="#fff"/>
  <path id="Path_2195" data-name="Path 2195" d="M351.708,5672.55a5.305,5.305,0,0,1-.083,1.01H344.95a2.908,2.908,0,0,0,.968,2.266,3.313,3.313,0,0,0,2.184.7,7.364,7.364,0,0,0,2.7-.473l.351,1.546a8.4,8.4,0,0,1-3.359.618,4.854,4.854,0,0,1-3.657-1.371,5.052,5.052,0,0,1-1.329-3.678,5.752,5.752,0,0,1,1.235-3.771,4.27,4.27,0,0,1,3.5-1.607,3.729,3.729,0,0,1,3.276,1.607,5.4,5.4,0,0,1,.886,3.152m-2.122-.577a3.034,3.034,0,0,0-.433-1.71,1.943,1.943,0,0,0-1.772-.927,2.115,2.115,0,0,0-1.772.906,3.323,3.323,0,0,0-.659,1.731Z" transform="translate(-213.663 -5657.747)" fill="#fff"/>
  <path id="Path_2196" data-name="Path 2196" d="M264.319,5690.5a26.783,26.783,0,0,0,.552-3.191l1.188.152c-.138.98-.332,1.976-.566,2.957.358-.027.677-.042.939-.042,1.894,0,2.75,1,2.75,3.067a10.833,10.833,0,0,1-.884,4.838,1.8,1.8,0,0,1-1.783.925,9.434,9.434,0,0,1-2-.235l.083-1.118a5.864,5.864,0,0,0,1.686.263.963.963,0,0,0,1-.457,9.044,9.044,0,0,0,.732-4.175c0-1.506-.456-2.017-1.645-2.017-.332,0-.718.014-1.133.041a24.158,24.158,0,0,1-3.026,7.117l-1.05-.565a20.022,20.022,0,0,0,2.887-6.455c-.954.11-1.948.261-2.818.429l-.208-1.105c.982-.166,2.2-.318,3.3-.429m9.065,4.767-1.188.291a9.594,9.594,0,0,0-2.529-5.39l.968-.622a10.806,10.806,0,0,1,2.75,5.721" transform="translate(-209.633 -5658.708)" fill="#fff"/>
  <path id="Path_2197" data-name="Path 2197" d="M277.4,5694.414a8.526,8.526,0,0,1,4.588-1.631c2.141,0,3.441,1.036,3.441,2.819,0,2.211-1.81,3.606-6.107,3.606-.18,0-.429,0-.65-.013l-.248-1.12c.331.015.746.028,1.008.028,3.456,0,4.782-.982,4.782-2.474,0-1.216-.8-1.852-2.474-1.852a7.523,7.523,0,0,0-4.616,2.142l-.954-.415c0-2.984.318-4.422,1.369-5.929l1.09.373a6.857,6.857,0,0,0-1.229,4.465m-.125-6.026.305-1.1a41.144,41.144,0,0,1,6.19,1.436l-.318,1.092a34.82,34.82,0,0,0-6.178-1.424" transform="translate(-210.38 -5658.707)" fill="#fff"/>
  <path id="Path_2198" data-name="Path 2198" d="M291.541,5691.95a31.683,31.683,0,0,1,3.249,2.129,11.363,11.363,0,0,0,1.7-4.035h-4.464a17.2,17.2,0,0,1-3.607,4.188l-.926-.79a15.493,15.493,0,0,0,4.616-6.189l1.16.4c-.164.416-.373.843-.608,1.3h4.449l.885.483c-.968,4.45-3.58,8.182-7.614,9.813l-.842-1.022a10.826,10.826,0,0,0,4.518-3.179,23.65,23.65,0,0,0-3.261-2.2ZM297,5686.8a10.665,10.665,0,0,1,1.452,1.852l-.623.443a9.3,9.3,0,0,0-1.423-1.838Zm1.8-.4a9.591,9.591,0,0,1,1.437,1.88l-.649.429a8.522,8.522,0,0,0-1.4-1.879Z" transform="translate(-210.937 -5658.663)" fill="#fff"/>
  <path id="Path_2199" data-name="Path 2199" d="M306.651,5689.717v-2.391h1.258v2.391h3.619l1.051.428c-.345,4.216-2,7.491-6.426,9.093l-.761-1.076c4.078-1.383,5.542-4.105,5.75-7.3h-7.38v3.178h-1.244v-4.325Z" transform="translate(-211.678 -5658.709)" fill="#fff"/>
  <path id="Path_2200" data-name="Path 2200" d="M320.079,5691.064l-.816,1.008a22.681,22.681,0,0,0-3.565-2.487l.774-1a32.179,32.179,0,0,1,3.607,2.475m5.32.028.8.938a18.073,18.073,0,0,1-9.549,7.145l-.623-1.187a16.454,16.454,0,0,0,9.37-6.9" transform="translate(-212.327 -5658.771)" fill="#fff"/>
  <path id="Path_2201" data-name="Path 2201" d="M339.255,5698.444h-9.868v-9.272h9.868Zm-1.272-8.111h-7.352v6.923h7.352Z" transform="translate(-213.002 -5658.8)" fill="#fff"/>
  <rect id="Rectangle_280" data-name="Rectangle 280" width="11.248" height="1.271" transform="translate(129.096 33.951)" fill="#fff"/>
  <path id="Path_2202" data-name="Path 2202" d="M365.907,5694.637l-.8,1.022a37.511,37.511,0,0,0-5.487-3.164v6.715h-1.271v-11.883h1.271v3.828a49.286,49.286,0,0,1,6.287,3.482m-3.219-5.846a10.039,10.039,0,0,1,1.367,1.837l-.607.388a8.919,8.919,0,0,0-1.326-1.838Zm1.451-.871a11.518,11.518,0,0,1,1.382,1.825l-.608.386a9.647,9.647,0,0,0-1.341-1.81Z" transform="translate(-214.428 -5658.709)" fill="#fff"/>
</svg>
