<svg xmlns="http://www.w3.org/2000/svg" width="80" height="70" viewBox="0 0 80 70"><g transform="translate(-274 -4395)"><rect width="80" height="70" transform="translate(274 4395)" fill="none"/><g transform="translate(284 4406)"><path d="M176.918,555.248c-2.9-10.2-9.171-18.452-17.169-22.708l.806-2.376a12.192,12.192,0,0,0,6.387-.769.379.379,0,0,0,.124-.534,17.37,17.37,0,0,1-2.869-5.845,5.293,5.293,0,0,0,2.89-.252.306.306,0,0,0,.106-.421,19.562,19.562,0,0,1-2.465-5.912,3.134,3.134,0,0,0,2.363-.139.162.162,0,0,0,.057-.232c-1.731-1.816-2.774-5.908-3.037-7.044a.145.145,0,0,0-.268-.069c-.779.868-3.665,3.95-6.058,4.707a.162.162,0,0,0-.062.23,3.134,3.134,0,0,0,2,1.261,19.572,19.572,0,0,1-5.01,3.991.306.306,0,0,0-.11.42,5.3,5.3,0,0,0,2.411,1.614,17.366,17.366,0,0,1-5.33,3.738.379.379,0,0,0-.149.528,12.187,12.187,0,0,0,5.224,3.753l-.331,1.855a25.961,25.961,0,0,0-7.323-1.589.545.545,0,0,0-.457.886A21.167,21.167,0,0,1,150.541,533c.9,1.639.451,2.786-.677,4.1s-4.622,2.845-4.42,5.19c.338,3.934,10.713,4.347,9.359,11.231a4.371,4.371,0,0,1-1.227,1.887.428.428,0,0,0,.3.734h22.378A.694.694,0,0,0,176.918,555.248Z" transform="translate(-117.724 -508.88)" fill="#153666"/><path d="M43.5,610.684c1.559-1.06,4.749-2.023,6.1-3.99.989-1.438-1.519-3.256-2.386-4.161a.537.537,0,0,0-.455-.161c-12.28,1.563-22.454,11.875-26.354,25.8a.585.585,0,0,0,.565.739h15.86a6.559,6.559,0,0,0,2.7-.584c2.084-.94,5.387-2.627,5.434-5.51.019-1.144-.891-2.986-2.976-5.511C40.2,615.133,40.743,612.559,43.5,610.684Z" transform="translate(-20.386 -581.65)" fill="#153666"/><path d="M72.409,532.8a1.464,1.464,0,1,0-1.864-.9A1.464,1.464,0,0,0,72.409,532.8Z" transform="translate(-59.366 -525.287)" fill="#153666"/><ellipse cx="1.464" cy="1.464" rx="1.464" ry="1.464" transform="translate(18.082 8.29)" fill="#153666"/><path d="M62.464,563.575a1.464,1.464,0,1,0-1.864-.9A1.464,1.464,0,0,0,62.464,563.575Z" transform="translate(-51.625 -549.239)" fill="#153666"/><path d="M48.155,596.653a1.463,1.463,0,1,0-1.864-.9A1.464,1.464,0,0,0,48.155,596.653Z" transform="translate(-40.487 -574.987)" fill="#153666"/><path d="M89.621,582.21a1.463,1.463,0,1,0-1.864-.9A1.464,1.464,0,0,0,89.621,582.21Z" transform="translate(-72.764 -563.745)" fill="#153666"/><path d="M131.086,567.768a1.463,1.463,0,1,0-1.863-.9A1.464,1.464,0,0,0,131.086,567.768Z" transform="translate(-105.041 -552.503)" fill="#153666"/></g></g></svg>