<svg xmlns="http://www.w3.org/2000/svg" width="54" height="48" viewBox="0 0 54 48">
  <g id="Group_756" data-name="Group 756" transform="translate(-695.201 -121.295)">
    <rect id="Rectangle_442" data-name="Rectangle 442" width="54" height="48" transform="translate(695.201 121.295)" fill="#fff" opacity="0.001"/>
    <path id="Path_162" data-name="Path 162" d="M1676.314,375.95c3.095.1,6.19.182,9.278.314,2.555.107,3.816,1.343,4.118,4.086a47.8,47.8,0,0,1,.013,10.508,4.524,4.524,0,0,1-1.6,3.4,4.717,4.717,0,0,1-2.756.791c-2.2.088-4.394.144-6.6.157-3.013.019-6.02.025-9.033-.031a30.243,30.243,0,0,1-3.836-.352,2.9,2.9,0,0,1-2.523-2.078,16.393,16.393,0,0,1-.609-3.258,47.649,47.649,0,0,1,.126-9.027,7.751,7.751,0,0,1,.515-2.009c.64-1.632,2.034-2.122,3.628-2.184,3.088-.119,6.183-.207,9.272-.314Zm-2.931,5.744v7.677c2.442-1.312,4.8-2.586,7.244-3.9l-7.244-3.779Z" transform="translate(-954.412 -241.655)" fill="#fff"/>
  </g>
</svg>
