<svg xmlns="http://www.w3.org/2000/svg" width="100" height="80" viewBox="0 0 100 80">
  <g id="Group_1339" data-name="Group 1339" transform="translate(-297 -4210)">
    <rect id="Rectangle_743" data-name="Rectangle 743" width="100" height="80" transform="translate(297 4210)" fill="none"/>
    <g id="Group_1329" data-name="Group 1329" transform="translate(-253.616 2877.818)">
      <path id="Path_4179" data-name="Path 4179" d="M920.563,2377.82v-12.749a.334.334,0,0,1-.067-.007c-.053.107-.1.213-.153.313a.829.829,0,0,1-1.019.353.643.643,0,0,1-.406-.885q.839-1.807,1.684-3.608a.748.748,0,0,1,.746-.446.729.729,0,0,1,.713.446c.566,1.2,1.138,2.4,1.7,3.6a.643.643,0,0,1-.4.885.8.8,0,0,1-1.012-.346c-.06-.113-.113-.226-.206-.406v12.7l.073.02c.047-.1.093-.2.147-.3a.8.8,0,0,1,1.005-.366.65.65,0,0,1,.413.912c-.546,1.178-1.1,2.357-1.644,3.535a.778.778,0,0,1-.766.506.79.79,0,0,1-.766-.506c-.539-1.165-1.092-2.323-1.631-3.482a.66.66,0,0,1,.413-.965.849.849,0,0,1,.979.373c.06.12.113.246.206.433Z" transform="translate(-329.933 -1020.164)" fill="#006934"/>
      <path id="Path_4180" data-name="Path 4180" d="M919.638,2394.045H914.1c-.286-.027-.473-.18-.479-.413a.449.449,0,0,1,.466-.46c.339-.02.686-.02,1.025-.02q4.933,0,9.866-.013h.187a.489.489,0,0,1,.466.466.453.453,0,0,1-.513.413h-5.479v.013Z" transform="translate(-328.183 -1030.977)" fill="#006934"/>
      <path id="Path_4181" data-name="Path 4181" d="M919.512,2359.612h-5.386c-.366,0-.586-.186-.586-.492a.557.557,0,0,1,.6-.5h10.838c.373,0,.579.179.579.492,0,.333-.2.506-.592.506h-5.453Z" transform="translate(-323.027 -1019.438)" fill="#006934"/>
      <path id="Path_4182" data-name="Path 4182" d="M934.066,2386.39c.248-.387.438-.673.622-.978q7.106-11.84,14.212-23.674c1.067-1.778,2.489-1.772,3.575.031q14.06,23.423,28.094,46.866a1.623,1.623,0,0,0,1.683.978c1.238-.082,2.489-.032,3.734-.012a1.645,1.645,0,0,1,1.816,1.632,1.683,1.683,0,0,1-1.842,1.727c-.229.007-.457,0-.686,0H906.442c-.292,0-.591.013-.883-.006a1.648,1.648,0,0,1-1.619-1.74,1.6,1.6,0,0,1,1.638-1.607,36.771,36.771,0,0,1,3.734.006,1.825,1.825,0,0,0,1.931-1.066q7.935-13.345,15.952-26.64c.121-.2.235-.394.356-.591,1.022-1.664,2.394-1.683,3.4-.038.851,1.4,1.689,2.807,2.534,4.21.165.267.343.527.578.889Zm5.563-2.6c-5.194,8.649-10.307,17.171-15.457,25.751h52.975c-5.156-8.593-10.256-17.077-15.406-25.656-.413.6-.73,1.061-1.041,1.518-1.111,1.625-2.064,1.708-3.467.279-.794-.806-1.581-1.626-2.413-2.477-.756.889-1.422,1.7-2.108,2.49-1,1.156-1.924,1.213-2.985.114-.832-.858-1.594-1.785-2.445-2.743-1.06,1.346-1.88,2.406-2.724,3.448a1.713,1.713,0,0,1-3.01-.058c-.629-.838-1.226-1.7-1.911-2.661Zm3.524-.991c.838-1.073,1.556-2.007,2.292-2.927a1.725,1.725,0,0,1,2.915-.171c.87.883,1.657,1.854,2.54,2.851.934-1.092,1.632-1.918,2.337-2.73a1.74,1.74,0,0,1,2.928-.108c.832.832,1.626,1.7,2.445,2.56a2.474,2.474,0,0,0,.355-3.08q-3.867-6.439-7.747-12.885c-.165-.273-.337-.533-.572-.9-3.061,5.112-6.065,10.135-9.081,15.183.514.718,1.01,1.4,1.588,2.2Zm-13.914,2.286c-4.928,8.211-9.773,16.3-14.7,24.513,1.835,0,3.442.032,5.042-.026a1.3,1.3,0,0,0,.908-.54q5.639-9.326,11.208-18.7a1.247,1.247,0,0,0,.038-1.042c-.756-1.371-1.588-2.7-2.489-4.21Z" transform="translate(-345.322 -1007.766)" fill="#4fb541"/>
    </g>
  </g>
</svg>
