<svg id="Group_391" data-name="Group 391" xmlns="http://www.w3.org/2000/svg" xmlns:xlink="http://www.w3.org/1999/xlink" width="159.404" height="47.231" viewBox="0 0 159.404 47.231">
  <defs>
    <linearGradient id="linear-gradient" x1="0.807" y1="0.5" x2="-1.573" y2="0.5" gradientUnits="objectBoundingBox">
      <stop offset="0" stop-color="#fd0"/>
      <stop offset="0.075" stop-color="#fed400"/>
      <stop offset="0.48" stop-color="#f9ad00"/>
      <stop offset="0.803" stop-color="#f69400"/>
      <stop offset="1" stop-color="#f68c00"/>
    </linearGradient>
    <linearGradient id="linear-gradient-2" x1="0.862" y1="0.178" x2="-0.501" y2="1.948" gradientUnits="objectBoundingBox">
      <stop offset="0" stop-color="#df242b"/>
      <stop offset="1" stop-color="#b90056"/>
    </linearGradient>
    <linearGradient id="linear-gradient-3" x1="-0.507" y1="-0.956" x2="0.606" y2="0.489" gradientUnits="objectBoundingBox">
      <stop offset="0" stop-color="#208b53"/>
      <stop offset="0.077" stop-color="#288e51"/>
      <stop offset="0.481" stop-color="#4fa14b"/>
      <stop offset="0.803" stop-color="#68ac47"/>
      <stop offset="1" stop-color="#71b146"/>
    </linearGradient>
  </defs>
  <rect id="Rectangle_281" data-name="Rectangle 281" width="159.404" height="47.231" rx="6.21" transform="translate(0)" fill="#070203"/>
  <g id="Group_385" data-name="Group 385" transform="translate(0 0)">
    <g id="Group_384" data-name="Group 384">
      <path id="Path_2203" data-name="Path 2203" d="M537.835,5658.17a4.964,4.964,0,0,1,4.959,4.96v35.423a4.965,4.965,0,0,1-4.959,4.959h-147.6a4.965,4.965,0,0,1-4.959-4.959V5663.13a4.965,4.965,0,0,1,4.959-4.96h147.6m0-.944h-147.6a5.921,5.921,0,0,0-5.9,5.9v35.423a5.921,5.921,0,0,0,5.9,5.9h147.6a5.921,5.921,0,0,0,5.9-5.9V5663.13a5.921,5.921,0,0,0-5.9-5.9Z" transform="translate(-384.335 -5657.226)" fill="#9f9d98"/>
    </g>
  </g>
  <path id="Path_2204" data-name="Path 2204" d="M463.272,5672.859a4.39,4.39,0,1,0,4.406,4.39A4.327,4.327,0,0,0,463.272,5672.859Zm0,7.05a2.667,2.667,0,1,1,2.477-2.66A2.539,2.539,0,0,1,463.272,5679.909Zm-9.613-7.05a4.39,4.39,0,1,0,4.407,4.39A4.327,4.327,0,0,0,453.659,5672.859Zm0,7.05a2.667,2.667,0,1,1,2.478-2.66A2.539,2.539,0,0,1,453.659,5679.909Zm-11.434-5.7v1.862h4.456a3.882,3.882,0,0,1-1.014,2.345,4.562,4.562,0,0,1-3.442,1.364,4.956,4.956,0,0,1,0-9.91,4.753,4.753,0,0,1,3.359,1.33l1.314-1.313a6.5,6.5,0,0,0-4.673-1.879,6.818,6.818,0,1,0,0,13.635,6.23,6.23,0,0,0,4.756-1.912,6.154,6.154,0,0,0,1.613-4.356,6.078,6.078,0,0,0-.1-1.165Zm46.763,1.447a4.079,4.079,0,0,0-3.757-2.793,4.171,4.171,0,0,0-4.14,4.39,4.3,4.3,0,0,0,4.356,4.39,4.366,4.366,0,0,0,3.657-1.945l-1.5-1a2.508,2.508,0,0,1-2.162,1.213,2.233,2.233,0,0,1-2.129-1.33l5.87-2.427ZM483,5677.116a2.408,2.408,0,0,1,2.3-2.56,1.7,1.7,0,0,1,1.629.931Zm-4.772,4.256h1.928v-12.9H478.23Zm-3.159-7.531H475a3.038,3.038,0,0,0-2.311-.981,4.394,4.394,0,0,0,0,8.779,3,3,0,0,0,2.311-1h.067v.631c0,1.68-.9,2.577-2.345,2.577a2.428,2.428,0,0,1-2.211-1.563l-1.68.7a4.184,4.184,0,0,0,3.891,2.594c2.261,0,4.173-1.331,4.173-4.572v-7.881H475.07Zm-2.211,6.068a2.67,2.67,0,0,1,0-5.32,2.681,2.681,0,0,1,0,5.32Zm25.163-11.439h-4.615v12.9h1.926v-4.888h2.689a4.013,4.013,0,1,0,0-8.014Zm.05,6.219h-2.739v-4.423h2.739a2.212,2.212,0,1,1,0,4.423Zm11.9-1.854a3.616,3.616,0,0,0-3.436,1.976l1.709.713a1.827,1.827,0,0,1,1.76-.946,1.854,1.854,0,0,1,2.025,1.66v.133a4.248,4.248,0,0,0-2.008-.5c-1.842,0-3.718,1.013-3.718,2.9a2.98,2.98,0,0,0,3.2,2.838,2.716,2.716,0,0,0,2.457-1.261h.067v1h1.86V5676.4C513.891,5674.114,512.181,5672.835,509.974,5672.835Zm-.232,7.072c-.631,0-1.511-.316-1.511-1.1,0-1,1.1-1.378,2.041-1.378a3.424,3.424,0,0,1,1.76.432A2.334,2.334,0,0,1,509.742,5679.907Zm10.922-6.79-2.208,5.595h-.067l-2.29-5.595h-2.075l3.437,7.818-1.959,4.35h2.009l5.3-12.168Zm-17.346,8.254h1.925v-12.9h-1.925Z" transform="translate(-386.846 -5657.757)" fill="#fff"/>
  <g id="Group_388" data-name="Group 388" transform="translate(11.776 8.443)">
    <g id="Group_387" data-name="Group 387">
      <g id="Group_386" data-name="Group 386">
        <path id="Path_2205" data-name="Path 2205" d="M397.267,5666.595a2.361,2.361,0,0,0-.546,1.658v26.092a2.362,2.362,0,0,0,.546,1.658l.087.086,14.617-14.618v-.344l-14.617-14.617Z" transform="translate(-396.721 -5666.126)" fill="#4ebdf0"/>
        <path id="Path_2206" data-name="Path 2206" d="M417.633,5686.85l-4.872-4.875v-.344l4.872-4.874.11.063,5.773,3.28c1.649.937,1.649,2.469,0,3.406l-5.773,3.28Z" transform="translate(-397.511 -5666.631)" fill="url(#linear-gradient)"/>
        <path id="Path_2207" data-name="Path 2207" d="M416.982,5687.049,412,5682.065l-14.7,14.7a1.919,1.919,0,0,0,2.452.072l17.235-9.792" transform="translate(-396.749 -5666.892)" fill="url(#linear-gradient-2)"/>
        <path id="Path_2208" data-name="Path 2208" d="M416.982,5676.3l-17.235-9.793a1.92,1.92,0,0,0-2.452.072l14.7,14.7Z" transform="translate(-396.749 -5666.106)" fill="url(#linear-gradient-3)"/>
      </g>
    </g>
  </g>
  <g id="Group_390" data-name="Group 390" transform="translate(48.422 30.087)">
    <g id="Group_389" data-name="Group 389">
      <path id="Path_2209" data-name="Path 2209" d="M436.2,5690.762c.691-.063,2.679-.254,4.614-.424,1.148-.1,2.136-.15,2.838-.181v.85a8.659,8.659,0,0,0-2.062.171,3.68,3.68,0,0,0-2.4,3.327c0,2.051,1.913,2.7,3.625,2.764l-.309.893c-1.945-.085-4.166-1.126-4.166-3.476a4.254,4.254,0,0,1,1.956-3.55c-.925.105-3.8.382-4.932.617l-.1-.936C435.67,5690.805,436,5690.784,436.2,5690.762Zm6.835,3.008-.542.255a9.807,9.807,0,0,0-.872-1.5l.542-.234A12.4,12.4,0,0,1,443.036,5693.771Zm1.212-.456-.552.255a9.519,9.519,0,0,0-.9-1.478l.531-.244A16.016,16.016,0,0,1,444.248,5693.314Z" transform="translate(-435.266 -5688.936)" fill="#fff" stroke="#fff" stroke-miterlimit="10" stroke-width="0.327"/>
      <path id="Path_2210" data-name="Path 2210" d="M455.323,5695.1h-4.358v2.359c0,.564-.17.8-.564.925a8.278,8.278,0,0,1-2.19.138,3.977,3.977,0,0,0-.34-.786c.893.032,1.722.021,1.966.01s.33-.074.33-.3V5695.1H445.8v-.776h4.37V5692.6h-3.657v-.754h3.657v-1.638c-1.169.129-2.371.2-3.465.255a3.607,3.607,0,0,0-.2-.7,35.3,35.3,0,0,0,7.187-.892l.6.626a19.848,19.848,0,0,1-3.316.626v1.723h3.763v.754h-3.763v1.723h4.358Z" transform="translate(-435.785 -5688.872)" fill="#fff" stroke="#fff" stroke-miterlimit="10" stroke-width="0.327"/>
      <path id="Path_2211" data-name="Path 2211" d="M459.148,5689.817c-.064.182-.16.522-.2.713a24.153,24.153,0,0,0-.511,4.029,10.875,10.875,0,0,0,.086,1.446c.18-.479.415-1.1.584-1.511l.458.339a22.746,22.746,0,0,0-.744,2.361,2.585,2.585,0,0,0-.053.469l.031.371-.765.053a13.212,13.212,0,0,1-.382-3.38,29.29,29.29,0,0,1,.467-4.22,6.22,6.22,0,0,0,.075-.744Zm2.4,5.1a3.941,3.941,0,0,0-.138.968c0,.479.318.947,1.764.947a11.409,11.409,0,0,0,2.605-.278l.01.893a13.938,13.938,0,0,1-2.625.214c-1.766,0-2.552-.585-2.552-1.575a6.063,6.063,0,0,1,.17-1.243Zm-.415-4.293a18.421,18.421,0,0,0,4.327,0v.871a26.541,26.541,0,0,1-4.316,0Z" transform="translate(-436.369 -5688.915)" fill="#fff" stroke="#fff" stroke-miterlimit="10" stroke-width="0.327"/>
      <path id="Path_2212" data-name="Path 2212" d="M473.063,5689.531a9.1,9.1,0,0,0,4.41,8.367,3.766,3.766,0,0,0-.638.658,9.174,9.174,0,0,1-4.22-5.921,9.388,9.388,0,0,1-4.241,5.932,5.1,5.1,0,0,0-.712-.626c2.35-1.224,3.657-3.361,4.306-6.336l.468.075a13.436,13.436,0,0,1-.138-1.361h-2.615v-.787Z" transform="translate(-436.862 -5688.904)" fill="#fff" stroke="#fff" stroke-miterlimit="10" stroke-width="0.327"/>
      <path id="Path_2213" data-name="Path 2213" d="M488.37,5696.921a2.7,2.7,0,0,1-1.935.882c-.691,0-1.169-.468-1.169-1.34,0-1.169.394-2.9.394-3.922a.75.75,0,0,0-.839-.861c-.851,0-2.127.988-3.094,2.031-.021.446-.031.859-.031,1.232,0,.958,0,1.594.041,2.54.012.181.032.448.055.638h-.925c.01-.149.03-.457.03-.626.01-1.01.01-1.532.032-2.7,0-.106.01-.246.01-.4-.511.776-1.2,1.786-1.711,2.487l-.531-.733c.585-.733,1.8-2.371,2.328-3.2.021-.34.043-.68.064-1.01-.478.053-1.393.181-2.052.267l-.086-.884a4.774,4.774,0,0,0,.691-.01c.34-.021.957-.085,1.5-.169.032-.5.052-.872.052-.99a3.916,3.916,0,0,0-.043-.786l1.011.032c-.053.255-.139.85-.212,1.583l.053-.021.307.373c-.126.191-.307.478-.467.733-.022.192-.032.394-.052.6.817-.754,2.168-1.764,3.22-1.764a1.319,1.319,0,0,1,1.488,1.414c0,1.052-.394,2.87-.394,3.934,0,.36.17.637.543.637a2.316,2.316,0,0,0,1.583-.872Z" transform="translate(-437.406 -5688.896)" fill="#fff" stroke="#fff" stroke-miterlimit="10" stroke-width="0.327"/>
      <path id="Path_2214" data-name="Path 2214" d="M494.886,5692.429c0,.69.052,1.711.106,2.626a8.353,8.353,0,0,1,3.274,1.8l-.511.786a7.351,7.351,0,0,0-2.731-1.731c.01.275.021.509.021.7,0,.861-.531,1.6-1.935,1.6-1.445,0-2.519-.467-2.519-1.668,0-.946.83-1.732,2.648-1.732a6.454,6.454,0,0,1,.892.063c-.043-.851-.084-1.817-.084-2.445,0-.606,0-1.478-.011-1.923a7.8,7.8,0,0,0-.085-1.042h1.02a9.3,9.3,0,0,0-.085,1.042c-.01.287,0,.659,0,1.073.84-.022,2.168-.075,3.115-.2l.032.807c-.936.085-2.286.148-3.147.17Zm-.724,3.242a4.791,4.791,0,0,0-1.031-.106c-1.085,0-1.7.372-1.7.946s.585.9,1.594.9c.775,0,1.148-.362,1.148-1.084C494.173,5696.161,494.163,5695.938,494.163,5695.671Z" transform="translate(-437.992 -5688.901)" fill="#fff" stroke="#fff" stroke-miterlimit="10" stroke-width="0.327"/>
      <path id="Path_2215" data-name="Path 2215" d="M505.108,5692.707a9.81,9.81,0,0,0-2.87.542c-.319.086-.627.212-.882.308l-.266-.979c.287-.03.649-.095.957-.159a14.02,14.02,0,0,1,3.147-.509,2.334,2.334,0,0,1,2.614,2.339c0,2.284-2.029,3.582-4.762,3.986l-.5-.809c2.552-.319,4.359-1.317,4.359-3.21A1.588,1.588,0,0,0,505.108,5692.707Zm1.86-2.743-.126.819c-1.17-.074-3.3-.288-4.486-.5l.138-.809A28.07,28.07,0,0,0,506.967,5689.963Z" transform="translate(-438.509 -5688.902)" fill="#fff" stroke="#fff" stroke-miterlimit="10" stroke-width="0.327"/>
    </g>
  </g>
</svg>
