<svg xmlns="http://www.w3.org/2000/svg" xmlns:xlink="http://www.w3.org/1999/xlink" width="70" height="50" viewBox="0 0 70 50">
  <defs>
    <clipPath id="clip-path">
      <rect id="Rectangle_730" data-name="Rectangle 730" width="70" height="50" transform="translate(3453 3686)" fill="#fff"/>
    </clipPath>
    <clipPath id="clip-path-2">
      <rect id="Rectangle_677" data-name="Rectangle 677" width="44.648" height="39.951" fill="none"/>
    </clipPath>
  </defs>
  <g id="Mask_Group_1238" data-name="Mask Group 1238" transform="translate(-3453 -3686)" clip-path="url(#clip-path)">
    <g id="Group_1332" data-name="Group 1332" transform="translate(3466 3691)">
      <g id="Group_1234" data-name="Group 1234" clip-path="url(#clip-path-2)">
        <path id="Path_4111" data-name="Path 4111" d="M25.686,3.659a8.953,8.953,0,1,0-4.764,13.9,10.768,10.768,0,0,1,4.764-13.9" transform="translate(-8.431)" fill="#224d8d"/>
        <path id="Path_4112" data-name="Path 4112" d="M15.595,177.579a5.113,5.113,0,0,1,1.416-.814,10.852,10.852,0,0,1-3.148-2.707,3.39,3.39,0,0,0-.36-.021H6.567a3.34,3.34,0,0,0-2.111.744A12.278,12.278,0,0,0,0,183.482v6.493H10.468v-2.283a14.138,14.138,0,0,1,5.126-10.112" transform="translate(0 -154.234)" fill="#224d8d"/>
        <path id="Path_4113" data-name="Path 4113" d="M246.453,13.163a10.711,10.711,0,0,1-.94,4.4,8.953,8.953,0,1,0-4.764-13.9,10.783,10.783,0,0,1,5.7,9.5" transform="translate(-213.355)" fill="#224d8d"/>
        <path id="Path_4114" data-name="Path 4114" d="M255.442,174.781a3.34,3.34,0,0,0-2.111-.744h-6.936a3.4,3.4,0,0,0-.359.021,10.854,10.854,0,0,1-3.148,2.708,5.11,5.11,0,0,1,1.416.813,14.138,14.138,0,0,1,5.127,10.112v2.283H259.9v-6.493a12.279,12.279,0,0,0-4.456-8.7" transform="translate(-215.25 -154.234)" fill="#224d8d"/>
        <path id="Path_4115" data-name="Path 4115" d="M126.466,54.905a8.953,8.953,0,1,0-8.952-8.953,8.952,8.952,0,0,0,8.952,8.953" transform="translate(-104.143 -32.79)" fill="#224d8d"/>
        <path id="Path_4116" data-name="Path 4116" d="M128.07,220.482a12.279,12.279,0,0,0-4.456-8.7,3.34,3.34,0,0,0-2.111-.744h-6.936a3.34,3.34,0,0,0-2.111.744,12.279,12.279,0,0,0-4.456,8.7v6.493h20.07Z" transform="translate(-95.711 -187.024)" fill="#224d8d"/>
      </g>
    </g>
  </g>
</svg>
