<svg xmlns="http://www.w3.org/2000/svg" width="80" height="70" viewBox="0 0 80 70"><g transform="translate(-177 -4395)"><rect width="80" height="70" transform="translate(177 4395)" fill="none"/><g transform="translate(195 4408)"><g transform="translate(0 3.712)"><path d="M710.609,540.792c-1.935-2.223-5.478-.119-3.894,3.386,1.055,2.339,3.094,8.054,5.941,12.17s5.882,3.676,8.947,4.673l2.2,1.139,15.064,17.326,3.047-2.65.016-.013c-.445-.513-14.146-16.272-19.562-22.5C717.008,548.155,711.55,541.875,710.609,540.792Z" transform="translate(-706.318 -539.878)" fill="#fff"/></g><g transform="translate(21.193 0)"><path d="M821.2,531l-5.255,6.047a.926.926,0,0,1-1.308.09l-.187-.162a.927.927,0,0,1-.09-1.307l5.28-6.074a1.741,1.741,0,0,0-2.628-2.283l-5.28,6.075a.926.926,0,0,1-1.307.09l-.186-.162a.926.926,0,0,1-.093-1.307l5.256-6.047a1.686,1.686,0,1,0-2.558-2.191l-5.019,5.772c-2.8,3.2-2.757,4.7-2.362,6.794.321,1.692.791,2.909-.947,4.908l-2.565,2.951,2.691,3.093,2.939-3.381c1.737-2,3.008-1.7,4.727-1.62,2.134.1,3.623-.065,6.4-3.281,0,0,3.2-3.688,5.019-5.775A1.686,1.686,0,1,0,821.2,531Z" transform="translate(-801.955 -523.128)" fill="#fff"/></g><g transform="translate(4.166 27.318)"><path d="M736.712,646.4,725.117,659.74l3.064,2.665,11.356-13.061-2.337-2.688Z" transform="translate(-725.117 -646.404)" fill="#fff"/></g></g></g></svg>