<svg xmlns="http://www.w3.org/2000/svg" width="183.241" height="35.606" viewBox="0 0 183.241 35.606"><path d="M82.485,35.606,87.573,26.8,80.34,9.091h5.066l5,12.921L97.725,9.091h5.431L87.884,35.606Zm-80.34,0L7.233,26.8,0,9.091H5.066l5,12.921L17.385,9.091h5.431L7.545,35.606ZM163.43,27.056a9.957,9.957,0,0,1-2.533-7.061,11.744,11.744,0,0,1,2.9-8.2,9.775,9.775,0,0,1,7.534-3.2,8.712,8.712,0,0,1,3.692.708,10.309,10.309,0,0,1,3.155,2.447l.322-2.662h4.743L180.751,29.31h-4.744l.279-2.189a9.532,9.532,0,0,1-6.31,2.661A8.527,8.527,0,0,1,163.43,27.056Zm4.035-12.406a7.645,7.645,0,0,0-1.8,5.151,6.325,6.325,0,0,0,1.5,4.357,4.926,4.926,0,0,0,3.863,1.7,5.9,5.9,0,0,0,4.529-2.125,7.476,7.476,0,0,0,1.91-5.108,6.17,6.17,0,0,0-1.545-4.357,5.155,5.155,0,0,0-3.992-1.7A5.676,5.676,0,0,0,167.465,14.65ZM105.582,27.056a9.957,9.957,0,0,1-2.533-7.061,11.744,11.744,0,0,1,2.9-8.2,9.775,9.775,0,0,1,7.534-3.2,8.713,8.713,0,0,1,3.692.708,10.314,10.314,0,0,1,3.155,2.447l.322-2.662h4.743L122.9,29.31H118.16l.279-2.189a9.531,9.531,0,0,1-6.31,2.661A8.527,8.527,0,0,1,105.582,27.056Zm4.035-12.406a7.645,7.645,0,0,0-1.8,5.151,6.323,6.323,0,0,0,1.5,4.357,4.925,4.925,0,0,0,3.864,1.7,5.9,5.9,0,0,0,4.528-2.125,7.474,7.474,0,0,0,1.911-5.108,6.171,6.171,0,0,0-1.546-4.357,5.155,5.155,0,0,0-3.993-1.7A5.675,5.675,0,0,0,109.617,14.65ZM27.151,27.872A6.5,6.5,0,0,1,24.92,22.7q0-.494.054-1.159t.161-1.524L26.465,9.091h4.744l-1.4,11.354q-.086.731-.129,1.277t-.042.913q0,3.2,3.756,3.2a3.89,3.89,0,0,0,3-1.052,6.723,6.723,0,0,0,1.288-3.692l1.481-12h4.722L42.455,20.853a23.813,23.813,0,0,1-.429,2.619,13.026,13.026,0,0,1-.558,1.867,6.4,6.4,0,0,1-2.017,2.554,9.958,9.958,0,0,1-6.332,1.888A8.863,8.863,0,0,1,27.151,27.872ZM69.823,29.31l2.49-20.219h4.744L74.566,29.31Zm-9.358,0L53.1,19.694,51.921,29.31H47.178L50.788,0h4.744L53.446,16.947l8.5-7.856h6.332l-10.6,9.23L66.195,29.31Zm90.836,0,1.46-11.7a22.627,22.627,0,0,0,.193-2.4,2.343,2.343,0,0,0-2.661-2.64,4.884,4.884,0,0,0-1.825.31,3.313,3.313,0,0,0-1.32.967,5.256,5.256,0,0,0-.9,1.695,13.268,13.268,0,0,0-.547,2.479L144.326,29.31h-4.744l1.481-12q.194-1.63.193-2.232,0-2.511-2.726-2.511-3.949,0-4.614,5.473l-1.4,11.268h-4.744l2.49-20.219h4.894l-.215,1.889a7.634,7.634,0,0,1,5.559-2.4,5.164,5.164,0,0,1,2.94.708,5.592,5.592,0,0,1,1.846,2.511,8.837,8.837,0,0,1,6.482-3.2q6.01,0,6.01,5.516,0,.559-.1,1.567t-.268,2.49L156.045,29.31ZM73.279,4.752a2.677,2.677,0,0,1-.751-1.867A2.422,2.422,0,0,1,73.257,1.1,2.435,2.435,0,0,1,75.039.352a2.465,2.465,0,0,1,1.824.794,2.487,2.487,0,0,1,.794,1.846,2.436,2.436,0,0,1-.751,1.782,2.458,2.458,0,0,1-1.8.751A2.5,2.5,0,0,1,73.279,4.752Z" transform="translate(0 0)" fill="#fff"/></svg>