<svg xmlns="http://www.w3.org/2000/svg" xmlns:xlink="http://www.w3.org/1999/xlink" width="424.686" height="169.444" viewBox="0 0 424.686 169.444"><defs><clipPath id="a"><rect width="424.686" height="169.444" fill="none"/></clipPath></defs><g transform="translate(0)"><g transform="translate(0)" clip-path="url(#a)"><path d="M39.826,150.777a11.467,11.467,0,0,0-.958,3.512c-3.322,15.8-10.692,26.187-24.331,34.367a27.277,27.277,0,0,0-6.549-6.6c6.606-3.2,11.918-7.335,15.258-11.918A53.607,53.607,0,0,0,13.5,165.2l4.363-6.725a68.168,68.168,0,0,1,9.59,4.462,37.21,37.21,0,0,0,3.11-9.379l-13.43,1.708a52.58,52.58,0,0,1-9.487,14.476A24.493,24.493,0,0,0,0,165.1c6.708-6.463,11.229-14.733,12.413-22.5l8.89.658c-.375.98-.892,2.42-1.58,4.471l11.245-1.445.825-.1a31.464,31.464,0,0,0-2.672-3.814l4.743-1.9a31.994,31.994,0,0,1,4.324,6.914l-1.591.683Zm.726-12.834a35.614,35.614,0,0,1,4.354,6.762l-4.533,2.021a39.711,39.711,0,0,0-4.329-6.963Z" transform="translate(0 -19.212)" fill="#132b53"/><path d="M90.573,142.394c2.329-.279,2.949-.452,3.915-1.011l4.136,3.294a6.215,6.215,0,0,0-.471,3.059c-.109,6.067-.717,10.028-2.12,13.937a30.141,30.141,0,0,1-10.905,14.547,50.543,50.543,0,0,1-9.2,5.385,27.022,27.022,0,0,0-6.418-7.549c7.081-2.522,11.527-5.268,14.667-9.042,3.312-3.989,4.87-8.655,4.834-14.705L68,152.827l.518,4.317a47.65,47.65,0,0,0,.8,5.072L60.25,163.3a43.445,43.445,0,0,0-.349-5.373l-.808-6.745c-.238-1.989-.5-3.336-.871-5.21a49.539,49.539,0,0,0,6.1-.436l8.686-1.042-.355-2.96a32.636,32.636,0,0,0-.826-4.428l9.316-1.117a29.983,29.983,0,0,0,.336,4.44l.361,3.008Z" transform="translate(-8.109 -18.941)" fill="#132b53"/><path d="M119.2,135.045a71.294,71.294,0,0,1,14.483,7.911l-4.818,8.256a52.2,52.2,0,0,0-14.426-8.657Zm-1.484,30.743a49.021,49.021,0,0,0,14.186-5.244,29.375,29.375,0,0,0,12.781-13.689,44.977,44.977,0,0,0,3.616-10.08,31.553,31.553,0,0,0,7.913,5.647c-3.27,10.088-7.194,16.366-13.463,21.547-4.834,4.025-9.229,6.373-18,9.54-1.84.664-2.125.747-3.389,1.292Z" transform="translate(-15.938 -18.809)" fill="#132b53"/><path d="M183.852,163.381l.4,3.347-8.831,1.059a62.221,62.221,0,0,0-.56-7.956l-2.988-24.941c-.25-2.086-.479-3.585-.863-5.557a57.108,57.108,0,0,0,5.894-.51l26.154-3.134a55.613,55.613,0,0,0,5.994-.915c.106,1.709.268,3.463.541,5.743l2.948,24.6a65.66,65.66,0,0,0,1.3,7.965l-8.784,1.054-.389-3.252Zm17.565-29.619L180.6,136.256l2.321,19.36,20.816-2.494Z" transform="translate(-23.818 -17.378)" fill="#132b53"/><path d="M226.264,138.4a69.1,69.1,0,0,0,10-.756l23.194-2.779a80.142,80.142,0,0,0,9.895-1.629l1.121,9.366a94.236,94.236,0,0,0-10.03.906l-23.1,2.768c-5.435.652-7.03.892-9.961,1.489Z" transform="translate(-31.513 -18.556)" fill="#132b53"/><path d="M294.622,154.157c-.05-2.061-.17-3.475-.6-7.459l-3.384-28.24a51.078,51.078,0,0,0-1.183-7l9.365-1.122c-.043,1.283.051,2.06.607,7.113l.8,6.647a104.075,104.075,0,0,1,23.288,7.447l-3.622,8.8a91.781,91.781,0,0,0-16.3-6.611,15.119,15.119,0,0,1-1.834-.518,1.352,1.352,0,0,1-.466-.191l1.511,12.616a61.579,61.579,0,0,0,1.181,7.389Zm17.14-42.611a34.862,34.862,0,0,1,5.636,6.363l-4.343,2.784a33.126,33.126,0,0,0-5.652-6.51Zm6.105-3.686a34.428,34.428,0,0,1,5.66,6.164l-4.2,2.718a37.514,37.514,0,0,0-5.586-6.368Z" transform="translate(-40.314 -15.022)" fill="#132b53"/><path d="M353.173,104.968c-.167,3.12.8,16.146,1.775,24.249.581,4.853.949,6.285,1.932,7.5,1.1,1.344,3.286,1.968,5.956,1.648,5-.6,8.525-4.024,9.789-9.491a37.2,37.2,0,0,0,.888-9.015c3.928,2.383,5.651,3.211,8.907,4.1-.97,7.5-2.147,11.233-4.461,14.513-3.333,4.632-8.13,7.324-14.486,8.086-4.949.593-8.782-.178-11.7-2.339-3.086-2.338-4.379-5.332-5.194-12.126-.151-1.262-.151-1.262-1.078-11.043-.49-4.913-.946-9.534-1.172-11.426a22.955,22.955,0,0,0-.684-3.659Z" transform="translate(-47.862 -14.619)" fill="#132b53"/><path d="M420.893,108.673a83.074,83.074,0,0,1,12.771-2.269c.339-.04,1.358-.163,2.383-.237l1.128,8.184a43.969,43.969,0,0,0-6.4.422,65.584,65.584,0,0,0-13.49,2.847l-1.31-6.832c-2.3.522-2.877.64-4.369.918-.278,4.66-.721,8.355-1.475,13.564-.7,4.415-.865,5.518-2.2,12.028-.5,2.422-.5,2.422-.7,3.628l-9.317-2.182c2.457-6.595,4.453-16.628,5.174-25.821l-.776.093c-1.553.187-2.578.261-4.676.413l-.485.059a9.947,9.947,0,0,0-1.11.182l-.8-7.926a50.92,50.92,0,0,0,7.434-.4l.921-.11a47.146,47.146,0,0,0-.047-7.377c-.018-.145-.046-.387-.088-.727l9.156-.408a15.434,15.434,0,0,0-.293,2.889c-.015.3-.136,1.74-.276,4.266a55.24,55.24,0,0,0,7.807-2.215Zm3.3,13.141c-1.583,2.4-2.167,4.1-1.987,5.6.268,2.233,2.386,3.061,6.461,2.573a36.756,36.756,0,0,0,11.224-3.264l1.6,8.421c-.959.213-1.389.313-2.536.6a59.884,59.884,0,0,1-9.369,1.911q-14.266,1.709-15.365-7.462c-.338-2.815.452-5.665,2.656-9.867Z" transform="translate(-55.048 -13.471)" fill="#132b53"/><path d="M470.035,119.684a12.893,12.893,0,0,0-.171-2.244c-.4-3.348-.05-5.359,1.276-7.438,1-1.5,1.355-1.836,4.55-4.335,2.209-1.691,2.864-2.8,2.671-4.405-.273-2.28-2.134-3.436-5.045-3.087a5.161,5.161,0,0,0-4.434,2.844,6.55,6.55,0,0,0-.519,3.066l-10.107.275c.067-3.552.617-5.537,2.216-7.8,2.431-3.539,6.552-5.707,12.132-6.376,8.928-1.069,15.014,2.484,15.817,9.179a9.207,9.207,0,0,1-2.154,7.5c-1.036,1.206-1.481,1.6-5.388,4.731-1.881,1.554-2.457,2.9-2.191,5.134a14.638,14.638,0,0,0,.373,1.875Zm9.809,2.171,1.1,9.171-9.753,1.169-1.1-9.171Z" transform="translate(-63.824 -12.535)" fill="#132b53"/><path d="M29.545,34.512l16.516.528-1.39,11.832c7.248-.852,10.671-1.393,17.695-2.585l-.306,14.979c-6.1,1-12.876,1.9-19.11,2.552L42.3,68.137c5.4-.566,14.085-2.024,19.992-3.1l-.324,15.7c-9.722,1.475-17.517,2.475-21.332,2.877.029,1.175-.006,2.628.192,4.509.338,3.225,1.054,10.035,15.01,8.568,9.861-1.037,16.073-4.589,15.254-12.383-.452-4.3-2.858-8.4-5.579-11.915L80.147,65.79c4.157,5.542,7.03,11.4,7.746,18.209,2.571,24.459-25.154,27.374-29.9,27.872-5.024.528-31.074,3.266-33.589-20.657a55.983,55.983,0,0,1-.184-6.231C14.106,85.414,11.4,84.7,8.587,83.91l1.19-15.525c2.606.632,5.985,1.455,15.923,1.134l.737-6.418a94.809,94.809,0,0,1-15.848-.418l1.238-15.076a86.866,86.866,0,0,0,16.247.647Z" transform="translate(-1.196 -4.807)" fill="#132b53"/><path d="M119.935,90.1c19-1.816,42.745-8.569,41.06-24.607-.848-8.063-7.538-8.175-12.934-7.608-11.63,1.222-33.207,9.83-40.237,12.744l-6.635-15.7C116,50.025,134.1,44.047,146.376,42.756c5.489-.577,28.934-3.041,31.383,20.254,1.883,17.919-9.774,26.935-14.868,30.369-11.761,8.03-27.111,10.549-35.643,11.718ZM157.9,40.548c-6.281.207-27.123.586-42.452-2.061l4.011-14.644a189.443,189.443,0,0,0,39.195,2.4Z" transform="translate(-14.093 -3.321)" fill="#132b53"/><path d="M224.8,86.758l-11.485-21.12,7.88-.829,6.529,12.719,3.742-13.8,7.88-.829-11.388,38.566-7.7.809Z" transform="translate(-29.71 -8.761)" fill="#132b53"/><path d="M272.546,59.463l2.693,25.621-7.216.758-.242-2.3c-.857,1.211-2.3,3.259-6.592,3.71A8.457,8.457,0,0,1,253,83.844c-1.176-1.816-1.622-3.924-2-7.548l-1.515-14.409,7.57-.8,1.542,14.665c.193,1.833.515,4.9,4.145,4.521.62-.065,4.236-.574,3.734-5.349l-1.541-14.665Z" transform="translate(-34.747 -8.282)" fill="#132b53"/><path d="M293.562,65.778,300.5,55.093l8.366-.88-7.688,12.015,12.152,13.42-9.119.959L293.813,68.165l1.406,13.387-7.614.8-3.782-35.98,7.615-.8Z" transform="translate(-39.53 -6.347)" fill="#132b53"/><path d="M328.523,49.428l-8.234.865-.77-7.333,8.234-.865Zm2.67,28.382-7.614.8-2.693-25.621,7.614-.8Z" transform="translate(-44.501 -5.863)" fill="#132b53"/><path d="M347.677,73.843l-11.485-21.12,7.88-.829L350.6,64.613l3.742-13.8,7.88-.829L350.834,88.553l-7.7.809Z" transform="translate(-46.823 -6.962)" fill="#132b53"/><path d="M372.845,50.78a20.209,20.209,0,0,1,9.347-3.482c1.815-.19,6.746-.537,10.12,2.6,1.095,1.048,2.292,2.647,2.745,6.953l.914,8.7c.479,4.562,1.251,5.946,1.74,6.757l-7.127.749a5.848,5.848,0,0,1-.707-2.037,11.086,11.086,0,0,1-7.278,3.567c-5.268.553-9.451-2.2-9.979-7.227-.744-7.077,6.142-8.835,9.886-9.832,4.227-1.091,4.966-1.3,4.854-2.364-.085-.81-.99-1.75-4.177-1.414a18.245,18.245,0,0,0-9.036,3.88Zm15.3,10.589c-1.216.775-1.615.816-5.1,1.7-1.31.31-3.661.945-3.414,3.29.143,1.364,1.136,2.294,3,2.1a7.29,7.29,0,0,0,5.83-4.147Z" transform="translate(-51.889 -6.571)" fill="#132b53"/><path d="M423.934,69.248l-1.55-14.75c-.166-1.577-.511-4.86-3.742-4.521-.886.094-3.988.807-3.522,5.241l1.554,14.793-7.614.8-2.692-25.62,7.215-.759.242,2.3a8.17,8.17,0,0,1,6.189-3.711,7.466,7.466,0,0,1,6.772,2.693,10.356,10.356,0,0,1,7.619-4.162c2.346-.247,6.539.045,8.637,3.4,1.229,1.9,1.52,4.237,1.789,6.795l1.591,15.134-7.614.8-1.55-14.75c-.17-1.62-.511-4.861-3.876-4.506-3.586.377-3.506,4.118-3.371,5.4l1.537,14.622Z" transform="translate(-56.597 -5.778)" fill="#132b53"/><path d="M459.658,41.655A20.209,20.209,0,0,1,469,38.172c1.814-.19,6.746-.536,10.12,2.6,1.095,1.048,2.292,2.647,2.745,6.953l.914,8.7c.479,4.561,1.251,5.945,1.74,6.756l-7.127.75a5.86,5.86,0,0,1-.707-2.038,11.08,11.08,0,0,1-7.278,3.567c-5.269.553-9.451-2.2-9.98-7.227-.744-7.077,6.143-8.835,9.887-9.832,4.227-1.091,4.966-1.3,4.854-2.364-.085-.81-.99-1.749-4.177-1.414a18.245,18.245,0,0,0-9.036,3.88Zm15.3,10.589c-1.216.775-1.615.817-5.1,1.7-1.311.31-3.661.945-3.415,3.29.144,1.364,1.137,2.294,3,2.1a7.29,7.29,0,0,0,5.83-4.147Z" transform="translate(-63.98 -5.3)" fill="#132b53"/><path d="M195.5,96.534A62.392,62.392,0,0,1,210.3,106.37l-5.775,7.046a62.807,62.807,0,0,0-14.084-10.022Z" transform="translate(-26.524 -13.445)" fill="#132b53"/><path d="M209.4,33.107c-.872.1-1.343.176-1.768.256l-.225-1.876a15.218,15.218,0,0,0,1.872-.134l7.758-.93a17.3,17.3,0,0,0,1.865-.314l.224,1.877c-.535.034-.921.065-1.777.168l-3.044.365.05.413,4.122-.494a12.053,12.053,0,0,0,1.514-.241,12.884,12.884,0,0,0,.118,1.484l.151,1.256a8.369,8.369,0,0,0,.254,1.363l-2.129.256-.29-2.423-3.545.424.207,1.729a11.3,11.3,0,0,0,.227,1.4l-2.26.271a11.353,11.353,0,0,0-.109-1.411l-.207-1.728-3.34.4.293,2.438-2.083.25a8.825,8.825,0,0,0-.088-1.353l-.156-1.3a13.605,13.605,0,0,0-.237-1.47,12.711,12.711,0,0,0,1.529-.123l3.885-.466-.049-.414Zm8.266,6.323-7.461.893c-.547.065-1.091.146-1.589.25l-.218-1.817a12.44,12.44,0,0,0,1.829-.129l8.007-.96c.517-.062,1-.151,1.468-.251.037.685.073,1.116.121,1.514l.382,3.192c.071.591.138,1.018.279,1.69l-2.291.275-.064-.532-7.417.888c-.59.071-1.208.176-1.777.3l-.227-1.891c.461-.027,1.175-.082,1.706-.145l7.535-.9-.054-.457-7.417.888a11.741,11.741,0,0,0-1.382.226l-.191-1.6a12.19,12.19,0,0,0,1.441-.113l7.372-.883ZM212.176,36.4a6.372,6.372,0,0,0-.758.046l-.974.117a6.436,6.436,0,0,0-.763.136l-.139-1.167c.164-.005.491-.028.771-.062l.975-.117c.3-.035.575-.084.75-.12Zm.181,1.506a5.887,5.887,0,0,0-.758.046l-.974.116a5.875,5.875,0,0,0-.763.137l-.139-1.167c.134,0,.476-.028.771-.063l.975-.116c.3-.036.574-.084.75-.121Zm5.493-2.186a6.2,6.2,0,0,0-.758.046l-1.152.138a6.56,6.56,0,0,0-.763.137l-.14-1.167c.164-.005.491-.028.772-.063l1.153-.138c.281-.034.575-.084.75-.12Zm.181,1.506a5.886,5.886,0,0,0-.758.046l-1.153.138a5.844,5.844,0,0,0-.762.137l-.141-1.168c.136,0,.492-.028.773-.062l1.153-.138c.28-.034.574-.084.75-.12Z" transform="translate(-28.802 -4.193)" fill="#132b53"/><path d="M229.312,30.468a11.1,11.1,0,0,0-.3-1.6l2.6-.312a11.3,11.3,0,0,0,.089,1.623l1.07,8.924,2.867-.344-.783-6.53c-.064-.532-.146-.972-.247-1.439l2.5-.3c.017.522.042.983.1,1.472l.907,7.579a19.51,19.51,0,0,0,.352,2.056l-2.452.294-.105-.872-7.919.949.1.871-2.424.291a18.545,18.545,0,0,0-.172-2.062l-.907-7.58c-.059-.487-.149-.986-.251-1.468l2.481-.3a12.8,12.8,0,0,0,.117,1.47l.781,6.516,2.659-.318Z" transform="translate(-31.246 -3.977)" fill="#132b53"/><path d="M241.708,28.816a14.468,14.468,0,0,0,3.082-.159l.414-.05a5.434,5.434,0,0,0,.262-1.695l2.728-.118a4.448,4.448,0,0,0-.227.732c-.141.452-.2.7-.213.73.146-.032.146-.032.894-.167a21.708,21.708,0,0,0,3.682-.921l.37,2.339q-.679.15-1.314.293c-1.035.229-2.871.554-4.372.779a8.069,8.069,0,0,1-.578,1.178,4.388,4.388,0,0,1,1.824-.668,2.076,2.076,0,0,1,2.432,1.162c.24-.118.24-.118.992-.479.043-.02.425-.2.88-.405a6.176,6.176,0,0,0,1.129-.584l1.18,2.226a24.524,24.524,0,0,0-3.645,1.456c.061.4.063.412.141,1.062a9.154,9.154,0,0,0,.211,1.264l-2.4.362a12.2,12.2,0,0,0-.114-1.575l-.126.076a3.379,3.379,0,0,0-.961.745,1.024,1.024,0,0,0-.293.8c.067.562.64.718,2.073.547a14.064,14.064,0,0,0,4.639-1.306l.482,2.64a9.633,9.633,0,0,0-1.3.291,29.336,29.336,0,0,1-3.534.648,6.782,6.782,0,0,1-3.6-.258,2.388,2.388,0,0,1-1.418-1.958,2.764,2.764,0,0,1,.5-1.949,6.551,6.551,0,0,1,1.939-1.835c.332-.22.473-.3,1.033-.633a.616.616,0,0,0-.636-.3,4.915,4.915,0,0,0-2.636,1.755,9.4,9.4,0,0,0-1.24,1.662l-2.1-1.637a10.152,10.152,0,0,0,1.381-1.725c.278-.437.766-1.364.946-1.746s.176-.4.223-.507l-.472.057c-.636.077-.636.077-1.274.138-.208.009-.312.022-.518.046l-.222.027Z" transform="translate(-33.664 -3.732)" fill="#132b53"/><path d="M266.524,32.516c-.045-.369-.07-.576-.121-1.124a16.6,16.6,0,0,1-5.5,6.115,6.913,6.913,0,0,0-2.011-2.022,13.894,13.894,0,0,0,5.586-5.781l-3.043.365a21.365,21.365,0,0,0-2.221.356l-.3-2.542a17.735,17.735,0,0,0,2.29-.155l4.626-.554-.1-.736a15.413,15.413,0,0,0-.289-1.659l2.763-.331a13.577,13.577,0,0,0,.113,1.441c0,.029.018.148.027.221l.092.769.931-.112a12.878,12.878,0,0,0,2.1-.371l.3,2.526a17.847,17.847,0,0,0-2.078.174l-.946.113.837,6.36a20.213,20.213,0,0,0,.348,2.026l-2.837.34a10.7,10.7,0,0,0-.1-1.816c-.007-.059-.015-.133-.024-.207l-.366-2.8Z" transform="translate(-36.057 -3.405)" fill="#132b53"/><path d="M277.685,24.316a21.673,21.673,0,0,1,4.41,2.409l-1.468,2.514a15.842,15.842,0,0,0-4.391-2.636Zm-.451,9.361a14.96,14.96,0,0,0,4.32-1.6,8.948,8.948,0,0,0,3.89-4.168,13.7,13.7,0,0,0,1.1-3.069,9.613,9.613,0,0,0,2.409,1.72,12.959,12.959,0,0,1-4.1,6.56,16.109,16.109,0,0,1-5.481,2.9c-.56.2-.647.228-1.032.393Z" transform="translate(-38.473 -3.387)" fill="#132b53"/><path d="M293.692,25.387a15.869,15.869,0,0,0,2.393-.166l7.417-.889a2.424,2.424,0,0,0,1.163-.3l1.3,1.1a2.994,2.994,0,0,0-.3.981,11.214,11.214,0,0,1-2.672,5.46,13.422,13.422,0,0,1-3.935,2.809,8.313,8.313,0,0,0-1.944-2.225,10.253,10.253,0,0,0,3.693-2.2,6.476,6.476,0,0,0,1.92-3.228l-6.4.767a22.293,22.293,0,0,0-2.339.37Zm.784-3.841a13.643,13.643,0,0,0,2.185-.142l4.714-.565a14.413,14.413,0,0,0,2.3-.4l.3,2.481c-.566.023-1.264.077-2.284.2l-4.786.574a19.4,19.4,0,0,0-2.133.33Z" transform="translate(-40.904 -2.847)" fill="#132b53"/><path d="M322.464,19.449a5.421,5.421,0,0,0-.511.615,24.852,24.852,0,0,1-3.057,3.379l.682,5.689a21.5,21.5,0,0,0,.376,2.382l-2.866.343a20.216,20.216,0,0,0-.2-2.389l-.488-4.078a25.3,25.3,0,0,1-4.57,2.766,7.964,7.964,0,0,0-1.7-2.209,21.537,21.537,0,0,0,7.384-4.781,10.9,10.9,0,0,0,2.365-3.026Z" transform="translate(-43.194 -2.526)" fill="#132b53"/><path d="M329.18,18.145a21.662,21.662,0,0,1,4.409,2.409l-1.467,2.514a15.843,15.843,0,0,0-4.391-2.636Zm-.452,9.361a14.96,14.96,0,0,0,4.32-1.6,8.95,8.95,0,0,0,3.891-4.168,13.728,13.728,0,0,0,1.1-3.069,9.6,9.6,0,0,0,2.409,1.72,12.966,12.966,0,0,1-4.1,6.561,16.122,16.122,0,0,1-5.482,2.9c-.559.2-.647.228-1.032.394Z" transform="translate(-45.645 -2.527)" fill="#132b53"/><path d="M344.13,16.8c.253-.015.445-.038.564-.053.384-.046.912-.139,2.51-.436,2.112-.388,3.536-.633,6.331-1.073L355.049,15l.617-.1c.5-.076.588-.1.662-.11a1.216,1.216,0,0,0,.332-.1l.454,2.659a2.2,2.2,0,0,0-.417.02,6.974,6.974,0,0,0-3.26,1.44,4.28,4.28,0,0,0-1.948,3.636,1.905,1.905,0,0,0,1.462,1.683,7.832,7.832,0,0,0,2.885.194c.119-.014.222-.027.442-.067l0,2.847a3.877,3.877,0,0,0-.555-.008,11.239,11.239,0,0,1-3.837-.38,4.231,4.231,0,0,1-3.13-3.731,5.089,5.089,0,0,1,.856-3.489,6.073,6.073,0,0,1,1.3-1.431l-.685.158c-.322.069-.834.176-3.57.728a16.573,16.573,0,0,0-2.049.529Zm10.879,2.113a9.6,9.6,0,0,1,1.69,1.971l-1.34.82a9.3,9.3,0,0,0-1.7-2.016Zm1.877-1.094a10.344,10.344,0,0,1,1.7,1.91l-1.3.8a10.64,10.64,0,0,0-1.659-1.959Z" transform="translate(-47.929 -2.046)" fill="#132b53"/><path d="M370.923,18.659a7.722,7.722,0,0,0,2.38-.765,5.129,5.129,0,0,1,1.623,3.162,3.7,3.7,0,0,1-1.157,3.106,5.893,5.893,0,0,1-3.464,1.48,5.148,5.148,0,0,1-3.7-.741,3.524,3.524,0,0,1-1.363-2.623c-.04-.325-.064-.652-.087-1.1a16.157,16.157,0,0,1-1.941-.067,3.679,3.679,0,0,0-.646-.012l-.106-2.385a10.277,10.277,0,0,0,2.633.208c0-.15.01-.66.03-1.5a19.771,19.771,0,0,1-2.08-.1c-.226-.017-.317-.022-.545-.04l-.111-2.309a12.424,12.424,0,0,0,2.734.182,13.133,13.133,0,0,0-.031-2.14c-.006-.044-.014-.118-.025-.207l2.76-.105a11.423,11.423,0,0,0-.17,2.208,14.53,14.53,0,0,0,3.162-.753l.2,2.463c-.336.071-.336.071-1.053.216a21.935,21.935,0,0,1-2.412.393,5.761,5.761,0,0,1-.016.737c-.006.2-.007.317-.007.81l.31-.037a12.581,12.581,0,0,0,3.018-.706Zm.165,1.764c-.145.033-.161.034-.465.115a19.675,19.675,0,0,1-2.3.426c-.148.017-.251.03-.667.065.009.195.027.477.056.713a1.6,1.6,0,0,0,.61,1.216,2.338,2.338,0,0,0,1.654.3c1.61-.194,2.486-1.017,2.344-2.2a3.621,3.621,0,0,0-1.375-2.218Z" transform="translate(-50.472 -1.77)" fill="#132b53"/><path d="M382.425,19.124c.433-1.267.454-2.213.076-5.495-.294.05-.515.091-.7.129l-.962,1.224a14.492,14.492,0,0,0-2.921-2.5l1.491-1.813a18.67,18.67,0,0,1,2.18,1.687l-.088-.739a8.875,8.875,0,0,0,1.486-.1l.074-.009-.022-.177a4.663,4.663,0,0,0-.222-1.1l2.35-.281a4.6,4.6,0,0,0,.042,1.1l.023.191a9.881,9.881,0,0,0,1.19-.2l.136,1.138a8.265,8.265,0,0,0,.6-2.635l2.3.07c-.118.523-.156.708-.238,1.017l1.36-.164a6.216,6.216,0,0,0,1.187-.217l.257,2.142c-.373.015-.715.04-1.2.1l-2.232.267c-.114.3-.127.316-.232.568l2.231-.268a4.093,4.093,0,0,0,.706-.114l.949.92c-.091.116-.155.214-.281.409a14.317,14.317,0,0,1-1.151,1.531l.022.177.664-.08a5.261,5.261,0,0,0,.939-.172l.246,2.054a5.58,5.58,0,0,0-.8.052l-.812.1L391.2,19.1a1.355,1.355,0,0,1-.412,1.308,4.116,4.116,0,0,1-1.862.478c-.133.016-.325.039-.666.065a5.342,5.342,0,0,0-.661-1.764,7.762,7.762,0,0,0,1.237-.059c.162-.02.214-.085.192-.277l-.08-.665-.414.049a6.592,6.592,0,0,0-1,.18l-.247-2.068a6.963,6.963,0,0,0,1.011-.061l.413-.05a2.9,2.9,0,0,0-.124-.539l.458-.055a2.629,2.629,0,0,0,.427-.562l-1.064.128a6.557,6.557,0,0,0-.954.175l-.145-1.212c-.208-.109-.289-.16-.527-.267.01.328.036.671.083,1.07a22.4,22.4,0,0,1,.291,5.3c-.17.59-.643.886-1.648,1.006a5.757,5.757,0,0,1-.626.03,8.783,8.783,0,0,0-.5-1.529,7.58,7.58,0,0,1-.594,1.675,12.143,12.143,0,0,0-1.263-1.407l.107.887c.942.861,1.536.94,4.447.59a56.752,56.752,0,0,0,6.183-1.056,9.2,9.2,0,0,0-.252,2.4c-.939.158-3.389.481-5.916.784-3.058.366-4.02.226-5.188-.773a13.407,13.407,0,0,1-1.148,1.172c-.27.243-.3.26-.421.365a1.585,1.585,0,0,0-.232.193l-1.247-2.278a6.139,6.139,0,0,0,1.631-1.276l-.342-2.85-.547.065a5.387,5.387,0,0,0-.921.186l-.268-2.231a7.646,7.646,0,0,0,1.251-.075L380.956,16a8.589,8.589,0,0,0,1.13-.2,15.644,15.644,0,0,0,.141,1.677Zm2.06-4.939.991-.118c.547-.066.884-.121,1.25-.2a4.487,4.487,0,0,0-.887-.283l.238-.388-1.67.2Zm.157,1.929a13.748,13.748,0,0,1-.163,3.272,3.925,3.925,0,0,0,.493-.014c.309-.037.384-.166.4-.633a25.751,25.751,0,0,0-.187-2.69Z" transform="translate(-52.634 -1.33)" fill="#132b53"/><path d="M395.5,9.742a4.13,4.13,0,0,0,.758-.046,17.552,17.552,0,0,0,4.449-1.013l1.528,2.11a7.422,7.422,0,0,0-1.684,1.835,6.234,6.234,0,0,0-1.281,4.2,2.091,2.091,0,0,0,2.393,2.082,2.583,2.583,0,0,0,2.151-1.937,8.678,8.678,0,0,0,.136-3.494,11.27,11.27,0,0,0-1.19-4.053l2.413-.994a10.7,10.7,0,0,0,4.5,5.126l-.947,2.6-.148-.118-.232-.182a10.743,10.743,0,0,1-2.155-2.229A10.2,10.2,0,0,1,406.443,15a6.548,6.548,0,0,1-.639,4.048,4.871,4.871,0,0,1-3.769,2.444,5.255,5.255,0,0,1-2.959-.44,4.887,4.887,0,0,1-2.4-3.8,7.455,7.455,0,0,1,1.091-4.643c.214-.34.38-.584.768-1.1a13.343,13.343,0,0,1-1.89.481,6.828,6.828,0,0,0-.785.2Zm11.054-2.419a10.463,10.463,0,0,1,1.274,2.246l-1.123.51A11.245,11.245,0,0,0,405.446,7.8ZM408.4,9.276a9.853,9.853,0,0,0-1.22-2.177l1.1-.447A8.69,8.69,0,0,1,409.5,8.769Z" transform="translate(-55.084 -0.927)" fill="#132b53"/><path d="M418.516,12.123a38.173,38.173,0,0,1,4.052,1.3,11.334,11.334,0,0,1-.9-2.125l-4.949.593a17.573,17.573,0,0,1-.233,4.434,10.615,10.615,0,0,1-1.152,3.27,11.62,11.62,0,0,0-1.932-1.867,6.993,6.993,0,0,0,.874-2.457,22.028,22.028,0,0,0-.13-6.338,14.157,14.157,0,0,0-.331-2.014,19.875,19.875,0,0,0,2.109-.163L423.3,5.87c.783-.094,1.357-.192,1.868-.3a13.959,13.959,0,0,0,.121,1.514l.268,2.231a13.2,13.2,0,0,0,.243,1.53c-.417.02-1.054.081-1.778.168l-.088.01a7.912,7.912,0,0,0,1.343,2.463,7.59,7.59,0,0,0,2.418,2.033,12.708,12.708,0,0,0-.923,2.433,10.67,10.67,0,0,1-2.672-2.288A12.7,12.7,0,0,1,422.877,14l-.891,1.7a27.793,27.793,0,0,0-4.65-1.661Zm4.72-3.008L423.1,8.007l-6.693.8.083.695c.021.177.037.31.05.413Zm-5.369,6.848c1.128.15,1.538.206,3.317.547,1.074.2,1.722.363,3.441.816l-.918,2.224a33.24,33.24,0,0,0-6.876-1.484Z" transform="translate(-57.577 -0.776)" fill="#132b53"/><path d="M440.98,5.074a14.685,14.685,0,0,0-1.687,1.806c-.767.856-1.848,1.96-3.277,3.3-.363.343-.442.443-.426.576.022.177.022.177,1.533,1.03,1.751.973,3.129,1.843,4.941,3.08.1.063.242.151.5.329l-1.856,2.411a11.111,11.111,0,0,0-1.655-1.435,47.683,47.683,0,0,0-4.793-3.1A3.827,3.827,0,0,1,432.923,12a2.418,2.418,0,0,1-.338-.949,2.174,2.174,0,0,1,.377-1.484,10.276,10.276,0,0,1,1.212-1.27,32.919,32.919,0,0,0,3.494-3.73,5.428,5.428,0,0,0,.637-.946Z" transform="translate(-60.247 -0.505)" fill="#132b53"/><path d="M451.738,2.634a17.42,17.42,0,0,0,.172,2.691c1.516-.241,2.1-.342,3.734-.612-.009-.074-.015-.118-.019-.162-.108-.9-.3-2.018-.422-2.512l2.542-.3a10.543,10.543,0,0,0,.093,1.4l.117.974c0,.03.014.119.028.237,2.175-.35,2.175-.35,2.656-.468l.316,2.51c-.506.031-.774.048-1.246.1-.193.023-.238.029-1.447.188.264,2.2.2,3.063-.283,3.766a2.345,2.345,0,0,1-1.715.82,7.019,7.019,0,0,1-2.3-.188c-.019-.163-.028-.237-.044-.37a10.809,10.809,0,0,0-.421-2.018,5.223,5.223,0,0,0,2.063.337c.473-.057.528-.348.357-2.021-1.355.207-2.6.417-3.763.615a27.512,27.512,0,0,0,.639,4.329c.285.745.87.886,2.777.657a14.171,14.171,0,0,0,4.544-1.219l.49,2.7c-.616.119-.616.119-1.445.323a30.239,30.239,0,0,1-3.419.619,9.822,9.822,0,0,1-3.161,0,2.763,2.763,0,0,1-2.141-2.23,33.326,33.326,0,0,1-.6-3.871c-.022-.192-.062-.516-.108-.9a22.245,22.245,0,0,0-2.486.522L446.8,6.1a3.338,3.338,0,0,0,.505-.03c.222-.027.928-.141,2.148-.347-.023-.193-.039-.325-.053-.443a12.869,12.869,0,0,0-.4-2.321Z" transform="translate(-62.229 -0.242)" fill="#132b53"/><path d="M466.1,1.2a16.7,16.7,0,0,0,2.141-.151c1.313-.158,2.947-.413,4.425-.71a3,3,0,0,0,1.1-.342l1.425,1.643a15.957,15.957,0,0,0-2.147,2.221c-.7.758-.942,1.011-1.845,1.854a7.136,7.136,0,0,1,1.993-.508,4.565,4.565,0,0,1,3.281.626,3.3,3.3,0,0,1,1.386,2.426,3.887,3.887,0,0,1-1.623,3.717,8.075,8.075,0,0,1-3.8,1.4c-2.5.3-4.137-.508-4.333-2.148-.165-1.375.942-2.511,2.657-2.716a3.424,3.424,0,0,1,3.6,1.907,1.671,1.671,0,0,0,.973-1.751c-.123-1.034-1.2-1.549-2.844-1.352a8.557,8.557,0,0,0-4.388,1.9,11,11,0,0,0-1.285,1.278L465.163,8.42a32.788,32.788,0,0,0,5.725-5.632c-.773.182-1.36.282-3.431.635-.4.063-.674.126-.967.191Zm4.819,9.194c-.341.04-.553.262-.518.557.047.4.55.593,1.349.5a2.268,2.268,0,0,0,.481-.1c-.276-.685-.736-1.021-1.312-.951" transform="translate(-64.786)" fill="#132b53"/></g></g></svg>