<svg xmlns="http://www.w3.org/2000/svg" width="171.76" height="50.14" viewBox="0 0 171.76 50.14">
  <g id="Group_1780" data-name="Group 1780" transform="translate(-57.262 -1702.497)">
    <g id="Group_1779" data-name="Group 1779" transform="translate(55.789 1726.151) rotate(-8)">
      <g id="Group_1315" data-name="Group 1315" transform="translate(29.567 1.667)">
        <g id="が選ぶ" transform="translate(74.193 2.503)" style="isolation: isolate">
          <g id="Group_1313" data-name="Group 1313" transform="translate(0 0)" style="isolation: isolate">
            <path id="Path_4172" data-name="Path 4172" d="M5.06,1.116c-.082.358-.178.8-.25,1.129s-.13.641-.2.951c.31-.024.582-.036.8-.036,1.355,0,2.245.641,2.245,2.4A11.772,11.772,0,0,1,7,9.872a2.015,2.015,0,0,1-2.055,1.141,6.99,6.99,0,0,1-1.426-.166L3.207,8.97a7.479,7.479,0,0,0,1.438.25.8.8,0,0,0,.8-.452,8.391,8.391,0,0,0,.44-3.017c0-.856-.357-.963-1.094-.963-.131,0-.332.012-.546.024a26.644,26.644,0,0,1-2.352,6.273L.024,10.336a17.119,17.119,0,0,0,2.317-5.31c-.309.048-.571.083-.737.107-.38.048-1.058.143-1.449.214L0,3.433a12.792,12.792,0,0,0,1.366,0c.345-.011.832-.048,1.355-.082A11.9,11.9,0,0,0,2.947.891Zm4.182,1.26a21.6,21.6,0,0,1,1.9,4.229l-1.818.843A13.031,13.031,0,0,0,7.4,2.9l1.033-.428a15.257,15.257,0,0,0-.808-1.449L8.744.571c.3.439.713,1.212.926,1.627Zm.785-.285A13.155,13.155,0,0,0,9.089.452L10.205,0a16.983,16.983,0,0,1,.939,1.615Z" transform="translate(0 2.438)" fill="#224d8d"/>
            <path id="Path_4173" data-name="Path 4173" d="M12.594,12.038c.881-.031,1.716-.077,2.412-.138a10.217,10.217,0,0,0-.664,2.086c-2.086.107-5.548.139-7.589.046a4.591,4.591,0,0,1-3.879-1.684c-.541.587-1.113,1.143-1.839,1.823L0,12.023c.525-.355,1.128-.788,1.684-1.252V7.7H.247V5.625H3.771v4.96a2.658,2.658,0,0,0,1.87,1.329,14.033,14.033,0,0,0-1.406-1.128,11.143,11.143,0,0,0,2.488-.927H4.157V8.238H6.521V7.45H4.59V5.857H6.521V5.192h2.1v.665H10V5.192h2.134v.665h1.992V7.45H12.132v.788H14.6V9.859H11.992a27.054,27.054,0,0,1,2.7,1.454ZM1.978,3.786A12.04,12.04,0,0,0,.046,1.111L1.823,0A12.047,12.047,0,0,1,3.894,2.534ZM7.031,1.422H4.3V.046H8.9v3.2H8.113a5.035,5.035,0,0,0,1.453.51C9.38,4.837,8.9,5.146,7.866,5.146H6.428C4.914,5.146,4.5,4.729,4.5,3.307V1.854H7.031Zm2.04,8.87a10.487,10.487,0,0,1-2.905,1.715l.587.048c1.346.061,3.525.061,5.532,0a17.067,17.067,0,0,0-2.534-1.562L10.9,9.859H7.819Zm-1.437-6.6c.263,0,.34-.077.4-.448H6.32v.046c0,.355.062.4.4.4Zm.989,4.544H10V7.45H8.623Zm3.523-6.816H9.3V.046h4.744v3.2H13.2a5.039,5.039,0,0,0,1.451.51c-.184,1.082-.663,1.391-1.7,1.391H11.514c-1.516,0-1.932-.417-1.932-1.839V1.854h2.564Zm.572,2.272c.263,0,.34-.077.4-.448H11.4v.046c0,.355.063.4.4.4Z" transform="translate(12.182 0)" fill="#224d8d"/>
            <path id="Path_4174" data-name="Path 4174" d="M1.406,12.456,0,10.446a16.517,16.517,0,0,0,3.879-3L5.285,9.272A19.49,19.49,0,0,1,1.406,12.456Zm2.72-1.84a8.923,8.923,0,0,0,2.3.371c.819,0,1.19-.278,1.19-.834A5.332,5.332,0,0,0,6,7.356,14.637,14.637,0,0,0,4.481,6.119L6.3,4.605c.494.494.9.85,1.313,1.267,1.762,1.731,2.6,3.106,2.6,4.543,0,2.149-1.421,2.859-3.275,2.859a14.674,14.674,0,0,1-2.458-.215ZM6.537,3.709c.34-.247.7-.51.9-.664A16.277,16.277,0,0,0,4.5,1.715L5.872,0A25.73,25.73,0,0,1,9.907,1.731l.555,1.422c-.431.356-1.791,1.453-2.426,1.9Zm5.873,8.422a15.076,15.076,0,0,0-2.335-5.16L12.1,5.9a19.449,19.449,0,0,1,2.566,5.023Zm.742-8.282-1.468.617a21.166,21.166,0,0,0-1.191-2.148l1.453-.587C12.333,2.3,12.874,3.307,13.152,3.849Zm1.915-.758-1.451.618a17.26,17.26,0,0,0-1.222-2.133L13.847.989A22.059,22.059,0,0,1,15.067,3.091Z" transform="translate(26.862 0.479)" fill="#224d8d"/>
          </g>
        </g>
        <g id="ユーザー" transform="translate(0 0)" style="isolation: isolate">
          <g id="Group_1314" data-name="Group 1314" transform="translate(0 0)" style="isolation: isolate">
            <path id="Path_4175" data-name="Path 4175" d="M15.5,10.608a13.208,13.208,0,0,0,2-.181v3.555a17.946,17.946,0,0,0-2-.12H2.123A19.85,19.85,0,0,0,0,13.983V10.427a12.668,12.668,0,0,0,2.123.181h7.92c.364-2.161.99-5.879,1.05-7.132H4.668c-.849,0-1.718.04-2.486.1V.143C2.871.223,3.961.3,4.648.3h5.779A8.164,8.164,0,0,0,12.65,0L15.2,1.274a8.853,8.853,0,0,0-.241,1.07c-.244,1.8-.931,6-1.313,8.264Z" transform="translate(0 2.081)" fill="#224d8d"/>
            <path id="Path_4176" data-name="Path 4176" d="M0,0C.726.061,2.255.141,3.146.141h9.661c.819,0,1.711-.1,2.237-.141V3.86c-.473-.02-1.491-.121-2.237-.121H3.146C2.11,3.738.745,3.8,0,3.86Z" transform="translate(18.961 6.85)" fill="#224d8d"/>
            <path id="Path_4177" data-name="Path 4177" d="M15.458,4.447A12.854,12.854,0,0,0,17.9,4.284V7.517c-.566-.061-1.273-.061-2.424-.061H14.387V8.1c0,4.788-1.233,8-6.264,10.2L5.5,15.843c4.042-1.334,5.678-3.092,5.678-7.659V7.457H6.93V9.9c0,.99.061,1.778.1,2.282H3.617A19.945,19.945,0,0,0,3.738,9.9V7.457H2.284c-1.091,0-1.7.04-2.284.081V4.223a11.829,11.829,0,0,0,2.284.224H3.738V2.77A16.181,16.181,0,0,0,3.6.748H7.072A15.769,15.769,0,0,0,6.93,2.789V4.447h4.244v-1.9a13.21,13.21,0,0,0-.121-2h3.475l-.059.606L16.024.668A18.727,18.727,0,0,1,17.013,3.4L15.4,3.92a22.164,22.164,0,0,0-.95-2.686,12.834,12.834,0,0,0-.059,1.312v1.9Zm2.121-1.214A22.558,22.558,0,0,0,16.549.505L18.144,0a23.208,23.208,0,0,1,1.031,2.728Z" transform="translate(35.156 0)" fill="#224d8d"/>
            <path id="Path_4178" data-name="Path 4178" d="M0,0C.726.061,2.255.141,3.147.141h9.66c.819,0,1.711-.1,2.237-.141V3.86c-.473-.02-1.492-.121-2.237-.121H3.147C2.11,3.738.745,3.8,0,3.86Z" transform="translate(55.267 6.85)" fill="#224d8d"/>
          </g>
        </g>
      </g>
      <path id="Path_4860" data-name="Path 4860" d="M0,3.3,4.162,0,25.887,25.808Z" transform="translate(1.351 0.973) rotate(3)" fill="#c7bc7b"/>
      <path id="Path_4862" data-name="Path 4862" d="M0,22.5l4.162,3.3L25.887,0Z" transform="translate(171.313 25.773) rotate(177)" fill="#c7bc7b"/>
    </g>
  </g>
</svg>
