<svg xmlns="http://www.w3.org/2000/svg" width="221.707" height="33.614" viewBox="0 0 221.707 33.614">
  <g id="Group_1778" data-name="Group 1778" transform="translate(-454.341 -103.336)">
    <g id="Group_1315" data-name="Group 1315" transform="translate(494 105.8)">
      <g id="が選ぶ" transform="translate(91.935 3.102)" style="isolation: isolate">
        <g id="Group_1313" data-name="Group 1313" transform="translate(0 0)" style="isolation: isolate">
          <path id="Path_4172" data-name="Path 4172" d="M6.27,1.383c-.1.443-.221.987-.309,1.4-.072.4-.161.794-.25,1.178.384-.029.722-.044.987-.044,1.679,0,2.782.794,2.782,2.972a14.587,14.587,0,0,1-.809,5.344,2.5,2.5,0,0,1-2.547,1.414,8.662,8.662,0,0,1-1.768-.206l-.383-2.326a9.268,9.268,0,0,0,1.782.309.989.989,0,0,0,.985-.56,10.4,10.4,0,0,0,.545-3.738c0-1.061-.442-1.193-1.355-1.193-.162,0-.411.015-.676.03a33.015,33.015,0,0,1-2.915,7.773L.03,12.807A21.213,21.213,0,0,0,2.9,6.228c-.383.059-.707.1-.913.133-.471.059-1.311.177-1.8.265L0,4.254a15.851,15.851,0,0,0,1.692,0c.427-.013,1.031-.059,1.679-.1A14.744,14.744,0,0,0,3.651,1.1Zm5.182,1.561a26.76,26.76,0,0,1,2.357,5.241L11.557,9.23A16.147,16.147,0,0,0,9.172,3.593l1.28-.53a18.905,18.905,0,0,0-1-1.8l1.385-.56c.367.543.884,1.5,1.147,2.016Zm.972-.354A16.3,16.3,0,0,0,11.262.56L12.645,0a21.045,21.045,0,0,1,1.164,2Z" transform="translate(0 3.021)" fill="#fff"/>
          <path id="Path_4173" data-name="Path 4173" d="M15.606,14.917c1.091-.038,2.127-.1,2.989-.171a12.66,12.66,0,0,0-.823,2.585c-2.585.133-6.874.172-9.4.057-2.221-.1-3.677-.613-4.806-2.087-.67.728-1.379,1.417-2.279,2.259L0,14.9c.651-.44,1.4-.977,2.087-1.551V9.537H.306V6.97H4.672v6.147a3.294,3.294,0,0,0,2.317,1.647,17.389,17.389,0,0,0-1.742-1.4A13.807,13.807,0,0,0,8.33,12.217H5.151V10.208h2.93V9.231H5.687V7.257H8.081V6.434h2.6v.823h1.7V6.434h2.644v.823H17.5V9.231H15.033v.977H18.1v2.009H14.859a33.523,33.523,0,0,1,3.351,1.8ZM2.451,4.691A14.919,14.919,0,0,0,.057,1.377L2.259,0A14.928,14.928,0,0,1,4.825,3.14Zm6.262-2.93H5.323V.057H11.03V4.021h-.977a6.239,6.239,0,0,0,1.8.632c-.23,1.34-.823,1.723-2.106,1.723H7.966c-1.877,0-2.394-.517-2.394-2.279V2.3h3.14ZM11.24,12.753a12.994,12.994,0,0,1-3.6,2.125l.728.059c1.667.075,4.367.075,6.855,0A21.148,21.148,0,0,0,12.083,13l1.418-.785H9.689ZM9.459,4.576c.326,0,.421-.1.5-.555H7.832v.057c0,.44.077.5.5.5Zm1.226,5.631h1.7V9.231h-1.7Zm4.366-8.446H11.527V.057h5.879V4.021H16.354a6.244,6.244,0,0,0,1.8.632c-.228,1.34-.822,1.723-2.1,1.723H14.267c-1.878,0-2.393-.517-2.393-2.279V2.3h3.177Zm.709,2.815c.325,0,.421-.1.5-.555H14.132v.057c0,.44.078.5.5.5Z" transform="translate(15.095 0)" fill="#fff"/>
          <path id="Path_4174" data-name="Path 4174" d="M1.743,15.435,0,12.944A20.467,20.467,0,0,0,4.806,9.23l1.743,2.26A24.15,24.15,0,0,1,1.743,15.435Zm3.37-2.28a11.057,11.057,0,0,0,2.853.46c1.015,0,1.474-.345,1.474-1.034,0-1.071-1.283-2.8-2.009-3.466A18.137,18.137,0,0,0,5.553,7.583l2.26-1.877c.613.613,1.111,1.053,1.628,1.57,2.183,2.145,3.217,3.849,3.217,5.63,0,2.663-1.76,3.542-4.058,3.542a18.183,18.183,0,0,1-3.046-.267ZM8.1,4.6c.421-.306.863-.632,1.112-.823a20.17,20.17,0,0,0-3.64-1.647L7.276,0a31.882,31.882,0,0,1,5,2.145l.688,1.762c-.535.441-2.22,1.8-3.006,2.355Zm7.278,10.436a18.681,18.681,0,0,0-2.893-6.394l2.508-1.323a24.1,24.1,0,0,1,3.18,6.225ZM16.3,4.77l-1.819.764A26.228,26.228,0,0,0,13,2.872l1.8-.727C15.282,2.853,15.952,4.1,16.3,4.77Zm2.373-.94-1.8.766a21.388,21.388,0,0,0-1.514-2.642l1.8-.728A27.334,27.334,0,0,1,18.67,3.83Z" transform="translate(33.286 0.594)" fill="#fff"/>
        </g>
      </g>
      <g id="ユーザー" transform="translate(0 0)" style="isolation: isolate">
        <g id="Group_1314" data-name="Group 1314" style="isolation: isolate">
          <path id="Path_4175" data-name="Path 4175" d="M19.206,13.145a16.367,16.367,0,0,0,2.477-.224v4.406a22.237,22.237,0,0,0-2.477-.149H2.631A24.6,24.6,0,0,0,0,17.327V12.921a15.7,15.7,0,0,0,2.631.224h9.814c.451-2.678,1.227-7.285,1.3-8.838H5.784c-1.052,0-2.128.05-3.08.125V.177c.853.1,2.2.2,3.055.2h7.162A10.117,10.117,0,0,0,15.675,0l3.154,1.579a10.97,10.97,0,0,0-.3,1.326c-.3,2.229-1.153,7.437-1.628,10.24Z" transform="translate(0 2.579)" fill="#fff"/>
          <path id="Path_4176" data-name="Path 4176" d="M0,0C.9.075,2.794.175,3.9.175H15.87c1.015,0,2.12-.125,2.772-.175V4.783c-.586-.025-1.847-.15-2.772-.15H3.9c-1.284,0-2.975.074-3.9.15Z" transform="translate(23.495 8.489)" fill="#fff"/>
          <path id="Path_4177" data-name="Path 4177" d="M19.154,5.51a15.928,15.928,0,0,0,3.028-.2V9.315c-.7-.075-1.577-.075-3-.075H17.827v.8c0,5.933-1.527,9.914-7.763,12.644L6.81,19.632c5.008-1.653,7.036-3.831,7.036-9.49v-.9H8.587v3.03c0,1.227.075,2.2.125,2.828H4.482a24.715,24.715,0,0,0,.15-2.828V9.24H2.83c-1.352,0-2.1.05-2.83.1V5.233a14.658,14.658,0,0,0,2.83.277h1.8V3.432A20.051,20.051,0,0,0,4.457.926H8.763a19.54,19.54,0,0,0-.175,2.529V5.51h5.258V3.155A16.369,16.369,0,0,0,13.7.676H18l-.074.751,1.928-.6a23.205,23.205,0,0,1,1.225,3.38l-2,.65A27.464,27.464,0,0,0,17.9,1.529a15.9,15.9,0,0,0-.073,1.626V5.51Zm2.628-1.5A27.952,27.952,0,0,0,20.507.626L22.483,0A28.758,28.758,0,0,1,23.76,3.38Z" transform="translate(43.563 0)" fill="#fff"/>
          <path id="Path_4178" data-name="Path 4178" d="M0,0C.9.075,2.794.175,3.9.175H15.87c1.015,0,2.12-.125,2.772-.175V4.783c-.586-.025-1.849-.15-2.772-.15H3.9c-1.284,0-2.975.074-3.9.15Z" transform="translate(68.484 8.489)" fill="#fff"/>
        </g>
      </g>
    </g>
    <path id="Path_4860" data-name="Path 4860" d="M.932,4.095,6.089,0,33.01,31.979Z" transform="translate(455.083 103.287) rotate(3)" fill="#c7bc7b"/>
    <path id="Path_4862" data-name="Path 4862" d="M0,27.885l5.157,4.095L32.078,0Z" transform="translate(676.048 135.271) rotate(177)" fill="#c7bc7b"/>
  </g>
</svg>
