<svg xmlns="http://www.w3.org/2000/svg" width="193.094" height="83.137" viewBox="0 0 193.094 83.137"><g transform="translate(-379.109 -200.825)"><g transform="translate(592.109 224.825)"><path d="M28.019,38.245,51.122,14.3,61.733,3.967,72.371,0,84.394,11.43l4.621-4.79.462-.478,7.854,8.14,23.1,23.941h-3.575L98.452,23.937l-.926,2.779-9.264-12.97-2.779,2.779,3.706,9.264L69.733,13.746,58.616,12.82,30.7,38.245ZM0,38.245,11.5,26.326l8.972-9.3,2.991,3.1,4.6,4.768,2.3-2.384.229-.238,3.537,3.665-.511.529-.83.861L31.135,25.61l-5.871,5.738-2.779-5.559L11.368,33.2l.134-4.1-8.82,9.14Z" transform="translate(-176.671 -24)" fill="#fff"/></g><path d="M86.92,37.52l5.362-9.281L84.66,9.58H90L95.267,23.2,102.98,9.58H108.7L92.61,37.52Zm-84.66,0L7.622,28.24,0,9.58H5.338L10.608,23.2,18.32,9.58h5.723L7.95,37.52Zm169.958-9.009a10.492,10.492,0,0,1-2.669-7.441,12.376,12.376,0,0,1,3.053-8.64,10.3,10.3,0,0,1,7.939-3.37,9.181,9.181,0,0,1,3.89.746,10.863,10.863,0,0,1,3.325,2.578l.339-2.8h5l-2.623,21.306h-5l.294-2.307a10.045,10.045,0,0,1-6.65,2.8A8.985,8.985,0,0,1,172.218,28.511Zm4.252-13.073a8.056,8.056,0,0,0-1.9,5.428,6.665,6.665,0,0,0,1.583,4.591,5.191,5.191,0,0,0,4.071,1.787A6.218,6.218,0,0,0,185,25.005a7.878,7.878,0,0,0,2.013-5.383,6.5,6.5,0,0,0-1.629-4.592,5.432,5.432,0,0,0-4.207-1.786A5.981,5.981,0,0,0,176.47,15.438ZM111.259,28.511a10.493,10.493,0,0,1-2.669-7.441,12.376,12.376,0,0,1,3.053-8.64,10.3,10.3,0,0,1,7.939-3.37,9.181,9.181,0,0,1,3.89.746,10.868,10.868,0,0,1,3.325,2.578l.339-2.8h5l-2.623,21.306h-5l.294-2.307a10.044,10.044,0,0,1-6.65,2.8A8.985,8.985,0,0,1,111.259,28.511Zm4.252-13.073a8.056,8.056,0,0,0-1.9,5.428,6.663,6.663,0,0,0,1.583,4.591,5.19,5.19,0,0,0,4.072,1.787,6.216,6.216,0,0,0,4.772-2.24,7.876,7.876,0,0,0,2.013-5.383,6.5,6.5,0,0,0-1.629-4.592,5.433,5.433,0,0,0-4.207-1.786A5.98,5.98,0,0,0,115.511,15.438Zm-86.9,13.933A6.845,6.845,0,0,1,26.26,23.92q0-.52.057-1.221t.169-1.606l1.4-11.512h5l-1.47,11.964q-.09.77-.136,1.346t-.045.962q0,3.371,3.958,3.37a4.1,4.1,0,0,0,3.166-1.108,7.085,7.085,0,0,0,1.358-3.891L41.278,9.58h4.976L44.738,21.975a25.094,25.094,0,0,1-.453,2.76A13.726,13.726,0,0,1,43.7,26.7a6.749,6.749,0,0,1-2.126,2.692,10.494,10.494,0,0,1-6.672,1.99A9.339,9.339,0,0,1,28.611,29.371Zm44.966,1.516L76.2,9.58h5L78.575,30.886Zm-9.861,0L55.957,20.753,54.713,30.886h-5L53.519,0h5l-2.2,17.858L65.276,9.58h6.672L60.775,19.306l8.98,11.58Zm95.721,0,1.538-12.327a23.844,23.844,0,0,0,.2-2.533,2.469,2.469,0,0,0-2.8-2.782,5.146,5.146,0,0,0-1.923.327,3.491,3.491,0,0,0-1.391,1.019,5.539,5.539,0,0,0-.95,1.786,13.982,13.982,0,0,0-.577,2.613l-1.447,11.9h-5l1.561-12.643q.2-1.717.2-2.352,0-2.646-2.873-2.646-4.161,0-4.862,5.767l-1.47,11.874h-5L137.271,9.58h5.157l-.226,1.99a8.045,8.045,0,0,1,5.858-2.533,5.441,5.441,0,0,1,3.1.746A5.893,5.893,0,0,1,153.1,12.43q3.166-3.37,6.83-3.37,6.333,0,6.333,5.812,0,.589-.1,1.652t-.283,2.624l-1.447,11.738ZM77.219,5.007a2.821,2.821,0,0,1-.791-1.968A2.553,2.553,0,0,1,77.2,1.163,2.566,2.566,0,0,1,79.074.371,2.6,2.6,0,0,1,81,1.208a2.62,2.62,0,0,1,.837,1.945,2.567,2.567,0,0,1-.791,1.877,2.591,2.591,0,0,1-1.9.791A2.63,2.63,0,0,1,77.219,5.007Z" transform="translate(379.109 246.442)" fill="#fff"/></g></svg>