<svg xmlns="http://www.w3.org/2000/svg" width="167.662" height="25.42" viewBox="0 0 167.662 25.42">
  <g id="Group_1778" data-name="Group 1778" transform="translate(-454.341 -103.336)">
    <g id="Group_1315" data-name="Group 1315" transform="translate(484.332 105.2)">
      <g id="が選ぶ" transform="translate(69.524 2.346)" style="isolation: isolate">
        <g id="Group_1313" data-name="Group 1313" transform="translate(0 0)" style="isolation: isolate">
          <path id="Path_4172" data-name="Path 4172" d="M4.742,1.046c-.077.335-.167.746-.234,1.058s-.122.6-.189.891c.291-.022.546-.033.746-.033,1.27,0,2.1.6,2.1,2.248a11.031,11.031,0,0,1-.611,4.041A1.888,1.888,0,0,1,4.632,10.32a6.55,6.55,0,0,1-1.337-.156l-.29-1.759a7.008,7.008,0,0,0,1.348.234A.748.748,0,0,0,5.1,8.216,7.863,7.863,0,0,0,5.51,5.389c0-.8-.334-.9-1.025-.9-.123,0-.311.011-.511.022a24.967,24.967,0,0,1-2.2,5.878l-1.748-.7A16.042,16.042,0,0,0,2.193,4.71c-.29.045-.535.078-.691.1-.356.045-.991.134-1.358.2L0,3.217a11.987,11.987,0,0,0,1.28,0c.323-.01.78-.045,1.27-.077a11.15,11.15,0,0,0,.212-2.3ZM8.661,2.227A20.236,20.236,0,0,1,10.443,6.19l-1.7.79a12.211,12.211,0,0,0-1.8-4.263l.968-.4A14.3,14.3,0,0,0,7.147.958L8.194.535c.277.411.668,1.136.868,1.525ZM9.4,1.959A12.327,12.327,0,0,0,8.517.423L9.563,0a15.915,15.915,0,0,1,.88,1.514Z" transform="translate(0 2.285)" fill="#fff"/>
          <path id="Path_4173" data-name="Path 4173" d="M11.8,11.28c.825-.029,1.608-.072,2.26-.129a9.574,9.574,0,0,0-.623,1.955c-1.955.1-5.2.13-7.111.043a4.3,4.3,0,0,1-3.635-1.578c-.507.55-1.043,1.072-1.723,1.709L0,11.266c.492-.333,1.057-.739,1.578-1.173V7.212H.232V5.271h3.3V9.919a2.491,2.491,0,0,0,1.752,1.245,13.15,13.15,0,0,0-1.318-1.057A10.442,10.442,0,0,0,6.3,9.239H3.9V7.719H6.111V6.981H4.3V5.488h1.81V4.865H8.08v.623H9.369V4.865h2v.623h1.867V6.981H11.368v.739h2.317V9.239H11.237A25.351,25.351,0,0,1,13.771,10.6ZM1.854,3.548A11.282,11.282,0,0,0,.043,1.041L1.709,0a11.289,11.289,0,0,1,1.94,2.375ZM6.589,1.332H4.026V.043H8.341v3H7.6a4.718,4.718,0,0,0,1.361.478c-.174,1.014-.623,1.3-1.593,1.3H6.024c-1.419,0-1.81-.391-1.81-1.723V1.738H6.589ZM8.5,9.644a9.827,9.827,0,0,1-2.722,1.607l.55.045c1.261.057,3.3.057,5.184,0A15.993,15.993,0,0,0,9.137,9.832l1.073-.594H7.327ZM7.153,3.461c.246,0,.319-.072.377-.42H5.923v.043c0,.333.058.377.376.377ZM8.08,7.719H9.369V6.981H8.08Zm3.3-6.387H8.717V.043h4.446v3h-.8a4.722,4.722,0,0,0,1.36.478c-.173,1.014-.622,1.3-1.592,1.3H10.789c-1.42,0-1.81-.391-1.81-1.723V1.738h2.4Zm.536,2.129c.246,0,.319-.072.378-.42H10.687v.043c0,.333.059.377.378.377Z" transform="translate(11.415 0)" fill="#fff"/>
          <path id="Path_4174" data-name="Path 4174" d="M1.318,11.673,0,9.789A15.478,15.478,0,0,0,3.635,6.98L4.952,8.688A18.263,18.263,0,0,1,1.318,11.673ZM3.866,9.948a8.361,8.361,0,0,0,2.158.348c.768,0,1.115-.261,1.115-.782A5,5,0,0,0,5.62,6.893,13.716,13.716,0,0,0,4.2,5.734L5.908,4.315c.463.463.84.8,1.231,1.187C8.79,7.125,9.572,8.413,9.572,9.76c0,2.014-1.331,2.679-3.069,2.679a13.75,13.75,0,0,1-2.3-.2ZM6.125,3.475c.319-.232.653-.478.841-.623A15.253,15.253,0,0,0,4.214,1.607L5.5,0A24.11,24.11,0,0,1,9.283,1.622L9.8,2.954c-.4.333-1.679,1.361-2.273,1.781Zm5.5,7.892A14.127,14.127,0,0,0,9.441,6.532l1.9-1a18.225,18.225,0,0,1,2.4,4.707Zm.7-7.76-1.376.578A19.834,19.834,0,0,0,9.832,2.172l1.361-.55C11.557,2.158,12.063,3.1,12.324,3.607ZM14.119,2.9l-1.36.579a16.174,16.174,0,0,0-1.145-2l1.362-.55A20.671,20.671,0,0,1,14.119,2.9Z" transform="translate(25.172 0.449)" fill="#fff"/>
        </g>
      </g>
      <g id="ユーザー" transform="translate(0 0)" style="isolation: isolate">
        <g id="Group_1314" data-name="Group 1314" style="isolation: isolate">
          <path id="Path_4175" data-name="Path 4175" d="M14.524,9.94A12.377,12.377,0,0,0,16.4,9.771V13.1a16.816,16.816,0,0,0-1.874-.112H1.989A18.6,18.6,0,0,0,0,13.1V9.771a11.871,11.871,0,0,0,1.989.169H9.411c.341-2.025.928-5.509.984-6.683H4.374c-.8,0-1.61.038-2.329.095V.134c.645.076,1.666.15,2.31.15H9.771A7.651,7.651,0,0,0,11.854,0l2.385,1.194a8.3,8.3,0,0,0-.226,1c-.228,1.685-.872,5.624-1.231,7.744Z" transform="translate(0 1.95)" fill="#fff"/>
          <path id="Path_4176" data-name="Path 4176" d="M0,0C.681.057,2.113.133,2.948.133H12c.768,0,1.6-.095,2.1-.133V3.617C13.654,3.6,12.7,3.5,12,3.5H2.948C1.977,3.5.7,3.559,0,3.617Z" transform="translate(17.768 6.419)" fill="#fff"/>
          <path id="Path_4177" data-name="Path 4177" d="M14.485,4.167a12.045,12.045,0,0,0,2.29-.153v3.03c-.53-.057-1.193-.057-2.271-.057H13.482v.606c0,4.487-1.155,7.5-5.87,9.562L5.15,14.846c3.787-1.25,5.321-2.9,5.321-7.177V6.988H6.494V9.279c0,.928.057,1.666.095,2.139H3.39A18.69,18.69,0,0,0,3.5,9.279V6.988H2.14c-1.023,0-1.591.038-2.14.076V3.958a11.085,11.085,0,0,0,2.14.21H3.5V2.6A15.163,15.163,0,0,0,3.371.7H6.627a14.777,14.777,0,0,0-.133,1.913V4.167h3.977V2.386A12.379,12.379,0,0,0,10.357.511h3.256l-.056.568L15.015.626a17.548,17.548,0,0,1,.927,2.556l-1.515.491a20.769,20.769,0,0,0-.89-2.517,12.026,12.026,0,0,0-.056,1.23V4.167ZM16.472,3.03A21.138,21.138,0,0,0,15.508.473L17,0a21.748,21.748,0,0,1,.966,2.556Z" transform="translate(32.943 0)" fill="#fff"/>
          <path id="Path_4178" data-name="Path 4178" d="M0,0C.681.057,2.113.133,2.949.133H12c.767,0,1.6-.095,2.1-.133V3.617C13.654,3.6,12.7,3.5,12,3.5H2.949C1.977,3.5.7,3.559,0,3.617Z" transform="translate(51.789 6.419)" fill="#fff"/>
        </g>
      </g>
    </g>
    <path id="Path_4860" data-name="Path 4860" d="M0,3.1,3.9,0,24.258,24.184Z" transform="translate(455.606 103.336) rotate(3)" fill="#c7bc7b"/>
    <path id="Path_4862" data-name="Path 4862" d="M0,21.087l3.9,3.1L24.258,0Z" transform="translate(622.002 127.486) rotate(177)" fill="#c7bc7b"/>
  </g>
</svg>
