<svg xmlns="http://www.w3.org/2000/svg" width="194" height="43.034" viewBox="0 0 194 43.034"><g transform="translate(-498.5 -4753.465)"><path d="M-44.707-16.016a7.684,7.684,0,0,0-5.018-1.716,6.408,6.408,0,0,0-4.68,1.638,5.431,5.431,0,0,0-1.56,3.926A4.012,4.012,0,0,0-54.821-9.23,7.638,7.638,0,0,0-52.377-7.7l1.014.416a4.018,4.018,0,0,1,1.378.78,1.61,1.61,0,0,1,.494,1.2,2.017,2.017,0,0,1-.728,1.612,3.593,3.593,0,0,1-1.924.546,3.943,3.943,0,0,1-2.028-.572A6.116,6.116,0,0,1-55.627-5.1l-2.236,2.86A9.523,9.523,0,0,0-55.549-.39a6.75,6.75,0,0,0,3.458.78A6.717,6.717,0,0,0-47.125-1.3a6.35,6.35,0,0,0,1.742-4.446,3.991,3.991,0,0,0-.884-2.7,6.016,6.016,0,0,0-2.288-1.664l-1.014-.468a7.2,7.2,0,0,1-1.69-.91,1.416,1.416,0,0,1-.6-1.17,1.645,1.645,0,0,1,.6-1.248,2.7,2.7,0,0,1,1.638-.442A4.307,4.307,0,0,1-46.709-13.1Zm10.894,4.42-.728,6.084a3.429,3.429,0,0,1-.754,2.08,2.439,2.439,0,0,1-1.716.65,2.462,2.462,0,0,1-1.534-.494,1.663,1.663,0,0,1-.494-1.274c0-.286.052-.546.13-1.274l.676-5.772h-3.744l-.7,5.9a14.963,14.963,0,0,0-.13,1.638,4.312,4.312,0,0,0,1.248,3.12C-40.261.312-38.207.39-37.037.39a6.336,6.336,0,0,0,4.55-1.482A6.441,6.441,0,0,0-30.8-5.33l.728-6.266ZM-24.531-1.43A4.36,4.36,0,0,0-23.023-.1,5.4,5.4,0,0,0-20.5.39a5.191,5.191,0,0,0,3.926-1.56,7.341,7.341,0,0,0,1.95-5.2,6.232,6.232,0,0,0-1.534-4.342,4.87,4.87,0,0,0-3.51-1.274,4.98,4.98,0,0,0-2.392.546,4.841,4.841,0,0,0-1.456,1.2l.208-1.352h-3.744l-2.158,17.55h3.744Zm3.406-7.332a2.787,2.787,0,0,1,1.846.676,2.79,2.79,0,0,1,.806,1.95,3.681,3.681,0,0,1-1.04,2.5,3.067,3.067,0,0,1-2.08.806,2.7,2.7,0,0,1-1.95-.806,2.71,2.71,0,0,1-.7-1.9,3.135,3.135,0,0,1,.936-2.34A2.937,2.937,0,0,1-21.125-8.762ZM-8.983-1.43A4.36,4.36,0,0,0-7.475-.1,5.4,5.4,0,0,0-4.953.39,5.191,5.191,0,0,0-1.027-1.17a7.341,7.341,0,0,0,1.95-5.2A6.232,6.232,0,0,0-.611-10.712a4.87,4.87,0,0,0-3.51-1.274,4.98,4.98,0,0,0-2.392.546,4.841,4.841,0,0,0-1.456,1.2l.208-1.352h-3.744l-2.158,17.55h3.744Zm3.406-7.332a2.787,2.787,0,0,1,1.846.676,2.79,2.79,0,0,1,.806,1.95,3.681,3.681,0,0,1-1.04,2.5,3.067,3.067,0,0,1-2.08.806A2.7,2.7,0,0,1-8-3.64a2.71,2.71,0,0,1-.7-1.9,3.135,3.135,0,0,1,.936-2.34A2.937,2.937,0,0,1-5.577-8.762ZM9.867-11.986a7.594,7.594,0,0,0-5.33,1.976A6.323,6.323,0,0,0,2.665-5.434,5.841,5.841,0,0,0,4.251-1.352,6.341,6.341,0,0,0,9.087.39a7,7,0,0,0,5.33-1.9,6.952,6.952,0,0,0,1.872-4.758,5.5,5.5,0,0,0-1.56-3.926A6.993,6.993,0,0,0,9.867-11.986Zm-.572,9.2a2.684,2.684,0,0,1-2.028-.78,2.887,2.887,0,0,1-.754-1.976,3.341,3.341,0,0,1,1.04-2.47,3.133,3.133,0,0,1,2.08-.806,3.125,3.125,0,0,1,2.028.728,2.732,2.732,0,0,1,.78,2,3.477,3.477,0,0,1-.962,2.47A3.155,3.155,0,0,1,9.295-2.782ZM17.953,0H21.7l.624-4.94A4.986,4.986,0,0,1,23.439-7.9a2.758,2.758,0,0,1,1.924-.7A3.6,3.6,0,0,1,27-8.216l.728-3.484a6.035,6.035,0,0,0-1.534-.182,4.34,4.34,0,0,0-1.95.468A3.629,3.629,0,0,0,22.789-9.88l.338-1.716H19.383ZM35.945-8.58l.364-3.016H34.021l.468-3.744H30.745L30.277-11.6H28.925L28.561-8.58h1.352L28.847,0h3.744l1.066-8.58ZM40.7-7.358a2.7,2.7,0,0,1,.65-1.274,2.392,2.392,0,0,1,1.768-.7,2.6,2.6,0,0,1,1.534.468,2.342,2.342,0,0,1,.754,1.508ZM49-5.07c.156-1.378.1-3.9-1.456-5.434A6.157,6.157,0,0,0,43.2-11.986a6.464,6.464,0,0,0-4.6,1.612,6.943,6.943,0,0,0-2,5.148A5.377,5.377,0,0,0,38.051-1.17,6.011,6.011,0,0,0,42.575.39,6.53,6.53,0,0,0,46.553-.7a7.009,7.009,0,0,0,2.106-2.886L44.889-3.9a2.624,2.624,0,0,1-.806,1.04,2.632,2.632,0,0,1-1.482.338,2.071,2.071,0,0,1-1.794-.806,3.078,3.078,0,0,1-.468-1.742ZM50.583,0h3.744l.624-4.94A4.986,4.986,0,0,1,56.069-7.9a2.758,2.758,0,0,1,1.924-.7,3.6,3.6,0,0,1,1.638.39l.728-3.484a6.035,6.035,0,0,0-1.534-.182,4.34,4.34,0,0,0-1.95.468A3.629,3.629,0,0,0,55.419-9.88l.338-1.716H52.013Z" transform="translate(600 4779.465)" fill="#fff"/><line x2="194" transform="translate(498.5 4753.965)" fill="none" stroke="#fff" stroke-width="1"/><line x2="194" transform="translate(498.5 4796)" fill="none" stroke="#fff" stroke-width="1"/></g></svg>