<svg xmlns="http://www.w3.org/2000/svg" width="508.205" height="101.547" viewBox="0 0 508.205 101.547">
  <path id="Path_4179" data-name="Path 4179" d="M57.382-28.658q0,12.17-3.6,18.909Q47.109,2.552,28.4,2.552A29.476,29.476,0,0,1,9.945-3.3Q2.29-9.16,2.29-24.144v-6.87H14.525v6.87q0,7.852,3.5,11.81T28.92-8.375q10.4,0,13.609-7.132,1.963-4.384,1.963-16.554V-96.116h12.89Zm54.608-70.075q25.452,0,37.688,16.357,9.553,12.759,9.553,32.649,0,21.526-10.927,35.79-12.824,16.75-36.575,16.75-22.181,0-34.874-14.656Q65.534-25.976,65.534-47.567q0-19.5,9.684-33.369Q87.65-98.733,111.989-98.733Zm1.309,89.9q17.208,0,24.9-12.333t7.688-28.364q0-16.946-8.866-27.284T112.775-87.152q-14.918,0-24.34,10.24t-9.422,30.2q0,15.965,8.081,26.924T113.3-8.833Zm57.683-87.283h13.151V0H170.981Zm27.585,0h15.376l48.549,77.861V-96.116h12.366V0H260.266L211-77.8V0H198.566Zm134.733,0v59.41q0,10.469,3.926,17.4,5.823,10.469,19.629,10.469,16.554,0,22.508-11.319,3.206-6.15,3.206-16.554v-59.41h13.217v53.979q0,17.731-4.776,27.284-8.768,17.4-33.107,17.4t-33.042-17.4q-4.776-9.553-4.776-27.284V-96.116Zm84.444,65.1q.458,8.179,3.86,13.282,6.478,9.553,22.835,9.553a40.419,40.419,0,0,0,13.348-2.094q11.646-4.057,11.646-14.525,0-7.852-4.907-11.188-4.973-3.271-15.572-5.692l-13.021-2.944Q423.173-47.5,417.873-50.97q-9.16-6.02-9.16-17.993,0-12.955,8.964-21.265t25.387-8.31q15.114,0,25.681,7.3t10.567,23.326H467.076q-.981-7.721-4.187-11.843-5.954-7.524-20.218-7.524-11.516,0-16.554,4.842a15.153,15.153,0,0,0-5.038,11.254q0,7.066,5.889,10.338,3.86,2.094,17.47,5.234l13.479,3.075q9.749,2.225,15.049,6.085,9.16,6.739,9.16,19.563,0,15.965-11.614,22.835t-26.99,6.87q-17.928,0-28.069-9.16-10.142-9.095-9.945-24.667Zm79.471-65.1H510.5v31.6L507.289-22.9h-6.674l-3.4-41.613Zm0,82.507h13.021V0H497.213Z" transform="translate(-2.29 98.733)" fill="#fff"/>
</svg>
