<svg xmlns="http://www.w3.org/2000/svg" width="86.437" height="49.553" viewBox="0 0 86.437 49.553">
  <g id="Group_523" data-name="Group 523" transform="translate(0 0)">
    <g id="Group_6" data-name="Group 6" transform="translate(0)">
      <g id="Group_5" data-name="Group 5" transform="translate(0 0)">
        <path id="Path_2910" data-name="Path 2910" d="M12.542,17.12,22.884,6.4l4.75-4.627L32.4,0l5.382,5.116,2.068-2.144.207-.214L43.569,6.4,53.912,17.119h-1.6l-8.24-6.4-.415,1.244L39.51,6.153,38.265,7.4l1.659,4.147L31.215,6.153l-4.977-.415L13.745,17.12ZM0,17.12l5.149-5.336L9.165,7.623,10.5,9.01l2.06,2.134,1.03-1.067.1-.107,1.583,1.641-.229.237-.372.385-.742-.769-2.628,2.569-1.244-2.488L5.089,14.862l.06-1.834L1.2,17.12Z" transform="translate(16.263)" fill="#fff"/>
        <path id="Path_2909" data-name="Path 2909" d="M38.909,16.8l2.4-4.154L37.9,4.288h2.39l2.359,6.1,3.452-6.1H48.66L41.456,16.8Zm-37.9,0,2.4-4.154L0,4.288H2.39l2.359,6.1L8.2,4.288h2.562L3.559,16.8Zm76.08-4.033A4.7,4.7,0,0,1,75.9,9.432a5.54,5.54,0,0,1,1.367-3.868,4.611,4.611,0,0,1,3.554-1.509,4.11,4.11,0,0,1,1.741.334,4.863,4.863,0,0,1,1.488,1.154L84.2,4.288h2.237l-1.174,9.537H83.025l.132-1.032a4.5,4.5,0,0,1-2.977,1.255A4.022,4.022,0,0,1,77.092,12.763ZM79,6.911a3.606,3.606,0,0,0-.85,2.43,2.984,2.984,0,0,0,.709,2.055,2.323,2.323,0,0,0,1.822.8,2.783,2.783,0,0,0,2.137-1,3.526,3.526,0,0,0,.9-2.41,2.911,2.911,0,0,0-.729-2.055,2.432,2.432,0,0,0-1.883-.8A2.677,2.677,0,0,0,79,6.911ZM49.8,12.763A4.7,4.7,0,0,1,48.61,9.432a5.54,5.54,0,0,1,1.367-3.868A4.611,4.611,0,0,1,53.53,4.056a4.11,4.11,0,0,1,1.741.334A4.865,4.865,0,0,1,56.76,5.544l.152-1.256h2.237l-1.174,9.537H55.737l.131-1.032a4.5,4.5,0,0,1-2.977,1.255A4.022,4.022,0,0,1,49.8,12.763Zm1.9-5.852a3.606,3.606,0,0,0-.85,2.43,2.983,2.983,0,0,0,.709,2.055,2.323,2.323,0,0,0,1.823.8,2.782,2.782,0,0,0,2.136-1,3.526,3.526,0,0,0,.9-2.41A2.911,2.911,0,0,0,55.7,6.728a2.432,2.432,0,0,0-1.883-.8A2.677,2.677,0,0,0,51.707,6.911Zm-38.9,6.237a3.064,3.064,0,0,1-1.053-2.44q0-.233.025-.547t.076-.719l.628-5.153h2.238l-.658,5.356q-.04.345-.061.6t-.02.431q0,1.509,1.772,1.509a1.835,1.835,0,0,0,1.417-.5,3.171,3.171,0,0,0,.608-1.742l.7-5.66H20.7l-.678,5.548a11.233,11.233,0,0,1-.2,1.235,6.144,6.144,0,0,1-.263.881,3.021,3.021,0,0,1-.952,1.2,4.7,4.7,0,0,1-2.987.891A4.181,4.181,0,0,1,12.808,13.148Zm20.128.678,1.174-9.538h2.238l-1.175,9.538Zm-4.414,0L25.049,9.29l-.557,4.536H22.255L23.957,0h2.238l-.984,7.994L29.22,4.288h2.987l-5,4.354,4.02,5.184Zm42.849,0,.689-5.518a10.674,10.674,0,0,0,.091-1.134,1.105,1.105,0,0,0-1.255-1.245,2.3,2.3,0,0,0-.861.146,1.563,1.563,0,0,0-.623.456,2.479,2.479,0,0,0-.425.8,6.258,6.258,0,0,0-.258,1.17l-.648,5.325H65.842l.7-5.66q.091-.769.091-1.053,0-1.185-1.286-1.184-1.863,0-2.177,2.582l-.658,5.315H60.274l1.174-9.537h2.308l-.1.891a3.6,3.6,0,0,1,2.622-1.134,2.436,2.436,0,0,1,1.387.334,2.638,2.638,0,0,1,.871,1.185,4.168,4.168,0,0,1,3.058-1.509q2.835,0,2.835,2.6,0,.264-.046.739t-.127,1.174l-.648,5.254ZM34.566,2.242a1.263,1.263,0,0,1-.354-.881,1.143,1.143,0,0,1,.344-.84A1.149,1.149,0,0,1,35.4.166a1.163,1.163,0,0,1,.861.375,1.173,1.173,0,0,1,.375.871,1.149,1.149,0,0,1-.354.84,1.16,1.16,0,0,1-.85.354A1.177,1.177,0,0,1,34.566,2.242Z" transform="translate(0 20.42)" fill="#fff"/>
      </g>
      <path id="Path_2911" data-name="Path 2911" d="M8.055-6.345,9.465,0h1.38L15.87-10.005h-2.1l-3.24,6.81-1.455-6.81H7.995l-3.3,6.81L3.3-10.005H1.26L3.54,0H4.92Zm14.535-3.66H17.04L15.81,0h5.55l.21-1.68h-3.6l.33-2.73h3.45l.21-1.68H18.51l.27-2.235h3.6Zm1.89,0L23.25,0h3.3a3.783,3.783,0,0,0,3-.96,3.016,3.016,0,0,0,.81-2.16,2.076,2.076,0,0,0-.54-1.485,2.816,2.816,0,0,0-1.185-.735,1.894,1.894,0,0,0,.975-.765,2.338,2.338,0,0,0,.42-1.455,2.224,2.224,0,0,0-.645-1.71,3.289,3.289,0,0,0-2.43-.735Zm1.755,1.59h.48a1.718,1.718,0,0,1,1.02.255,1.081,1.081,0,0,1,.435.915A1.42,1.42,0,0,1,27.8-6.3a1.876,1.876,0,0,1-1.455.45h-.42Zm-.5,4.065h.72a2.461,2.461,0,0,1,1.59.435,1.25,1.25,0,0,1,.33.885,1.413,1.413,0,0,1-.39,1.02,2.541,2.541,0,0,1-1.755.42H25.4Z" transform="translate(24.807 49.553)" fill="#fff"/>
    </g>
  </g>
</svg>
