<svg xmlns="http://www.w3.org/2000/svg" width="64.155" height="41.646" viewBox="0 0 64.155 41.646">
  <g id="Group_520" data-name="Group 520" transform="translate(0 0)">
    <g id="Group_6" data-name="Group 6">
      <g id="Group_5" data-name="Group 5" transform="translate(0 0)">
        <path id="Union_1" data-name="Union 1" d="M9.309,12.707l7.676-7.955L20.51,1.318,24.045,0,28.04,3.8l1.535-1.591.153-.159,2.61,2.7,7.676,7.954H38.827L32.71,7.953l-.308.923L29.325,4.567,28.4,5.49l1.231,3.078-6.464-4-3.694-.308L10.2,12.707ZM0,12.707l3.821-3.96L6.8,5.658,7.8,6.687,9.325,8.271l.764-.792.076-.079,1.175,1.218-.17.176-.276.286-.55-.57-1.95,1.907L7.471,8.568,3.777,11.031,3.821,9.67.891,12.707Z" transform="translate(12.07)" fill="#015f9a"/>
        <path id="Union_2" data-name="Union 2" d="M28.879,12.466,30.66,9.383l-2.532-6.2H29.9l1.751,4.524,2.563-4.524h1.9l-5.347,9.283Zm-28.128,0L2.532,9.383,0,3.183H1.774L3.524,7.707,6.087,3.183h1.9L2.641,12.466ZM57.219,9.473A3.486,3.486,0,0,1,56.332,7,4.112,4.112,0,0,1,57.347,4.13a3.422,3.422,0,0,1,2.638-1.12,3.05,3.05,0,0,1,1.292.248,3.609,3.609,0,0,1,1.1.857l.113-.932h1.661l-.872,7.079H61.622l.1-.766a3.337,3.337,0,0,1-2.209.932A2.985,2.985,0,0,1,57.219,9.473Zm1.413-4.343A2.677,2.677,0,0,0,58,6.933a2.215,2.215,0,0,0,.526,1.525,1.725,1.725,0,0,0,1.353.594,2.066,2.066,0,0,0,1.586-.744,2.617,2.617,0,0,0,.669-1.788,2.16,2.16,0,0,0-.541-1.526,1.8,1.8,0,0,0-1.4-.594A1.987,1.987,0,0,0,58.632,5.129ZM36.966,9.473A3.486,3.486,0,0,1,36.079,7,4.112,4.112,0,0,1,37.093,4.13a3.422,3.422,0,0,1,2.638-1.12,3.05,3.05,0,0,1,1.292.248,3.611,3.611,0,0,1,1.1.857l.113-.932H43.9l-.872,7.079H41.369l.1-.766a3.337,3.337,0,0,1-2.209.932A2.985,2.985,0,0,1,36.966,9.473Zm1.413-4.343a2.676,2.676,0,0,0-.631,1.8,2.214,2.214,0,0,0,.526,1.525,1.724,1.724,0,0,0,1.353.594,2.065,2.065,0,0,0,1.585-.744A2.617,2.617,0,0,0,41.88,6.52a2.16,2.16,0,0,0-.541-1.526,1.8,1.8,0,0,0-1.4-.594A1.987,1.987,0,0,0,38.378,5.129ZM9.506,9.758a2.274,2.274,0,0,1-.781-1.811q0-.173.019-.406T8.8,7.008l.466-3.825h1.661l-.489,3.975q-.03.256-.045.447t-.015.32q0,1.12,1.315,1.12a1.362,1.362,0,0,0,1.052-.368A2.354,2.354,0,0,0,13.2,7.384l.518-4.2h1.653l-.5,4.118a8.337,8.337,0,0,1-.15.917,4.56,4.56,0,0,1-.2.654,2.242,2.242,0,0,1-.706.894,3.487,3.487,0,0,1-2.217.661A3.1,3.1,0,0,1,9.506,9.758Zm14.94.5.872-7.079h1.661l-.872,7.079Zm-3.276,0L18.592,6.9l-.413,3.367H16.518L17.781,0h1.661l-.73,5.933,2.976-2.75H23.9L20.192,6.414l2.983,3.848Zm31.8,0,.511-4.1a7.923,7.923,0,0,0,.068-.842.82.82,0,0,0-.932-.924,1.71,1.71,0,0,0-.639.109,1.16,1.16,0,0,0-.462.339,1.84,1.84,0,0,0-.316.593,4.645,4.645,0,0,0-.192.868l-.481,3.953H48.869l.519-4.2q.068-.571.068-.782,0-.879-.954-.879-1.383,0-1.615,1.916L46.4,10.262H44.736l.872-7.079h1.713l-.075.661A2.673,2.673,0,0,1,49.193,3a1.808,1.808,0,0,1,1.029.248,1.958,1.958,0,0,1,.646.879,3.094,3.094,0,0,1,2.269-1.12q2.1,0,2.1,1.931,0,.2-.034.549t-.094.872l-.481,3.9Zm-27.317-8.6a.937.937,0,0,1-.263-.654.848.848,0,0,1,.255-.624.853.853,0,0,1,.624-.263A.863.863,0,0,1,26.911.4a.871.871,0,0,1,.278.646.853.853,0,0,1-.263.624.861.861,0,0,1-.631.263A.874.874,0,0,1,25.656,1.664Z" transform="translate(0 15.156)" fill="#015f9a"/>
      </g>
      <text id="WEB" transform="translate(18.412 37.646)" fill="#015f9a" font-size="12" font-family="FuturaPT-DemiObl, Futura PT" font-weight="300" font-style="oblique"><tspan x="0" y="0">WEB</tspan></text>
    </g>
  </g>
</svg>
