<svg xmlns="http://www.w3.org/2000/svg" width="49.577" height="28.819" viewBox="0 0 49.577 28.819">
  <g id="Group_520" data-name="Group 520" transform="translate(-54.37 -41)">
    <g id="Group_6" data-name="Group 6" transform="translate(54.37 41)">
      <g id="Group_5" data-name="Group 5" transform="translate(0 0)">
        <path id="Union_1" data-name="Union 1" d="M7.194,9.819l5.932-6.147L15.85,1.018,18.582,0l3.087,2.935L22.855,1.7l.119-.123,2.017,2.09,5.932,6.147H30L25.278,6.146l-.238.714-2.379-3.33-.714.713L22.9,6.622l-5-3.092L15.05,3.292,7.883,9.819ZM0,9.819l2.953-3.06,2.3-2.387.768.8L7.206,6.392,7.8,5.78l.059-.061.908.941L8.633,6.8l-.213.221-.425-.441L6.487,8.049,5.773,6.622l-2.854,1.9.034-1.052L.689,9.819Z" transform="translate(9.328 0)" fill="#015f9a"/>
        <path id="Union_2" data-name="Union 2" d="M22.317,9.633l1.377-2.383L21.737,2.46h1.371l1.353,3.5,1.98-3.5H27.91L23.778,9.633ZM.58,9.633,1.957,7.251,0,2.46H1.371l1.353,3.5L4.7,2.46H6.173L2.041,9.633ZM44.217,7.32a2.694,2.694,0,0,1-.685-1.911,3.178,3.178,0,0,1,.784-2.218,2.645,2.645,0,0,1,2.038-.865,2.357,2.357,0,0,1,1,.192,2.789,2.789,0,0,1,.854.662l.087-.72h1.283L48.9,7.93H47.62l.076-.592a2.579,2.579,0,0,1-1.707.72A2.307,2.307,0,0,1,44.217,7.32Zm1.092-3.357a2.068,2.068,0,0,0-.488,1.394,1.711,1.711,0,0,0,.406,1.179A1.333,1.333,0,0,0,46.273,7,1.6,1.6,0,0,0,47.5,6.42a2.023,2.023,0,0,0,.517-1.382A1.669,1.669,0,0,0,47.6,3.859a1.4,1.4,0,0,0-1.08-.459A1.536,1.536,0,0,0,45.309,3.964ZM28.566,7.32a2.694,2.694,0,0,1-.685-1.911,3.178,3.178,0,0,1,.784-2.218A2.645,2.645,0,0,1,30.7,2.326a2.357,2.357,0,0,1,1,.192,2.791,2.791,0,0,1,.854.662l.087-.72h1.283l-.673,5.47H31.969l.075-.592a2.579,2.579,0,0,1-1.707.72A2.307,2.307,0,0,1,28.566,7.32Zm1.092-3.357a2.068,2.068,0,0,0-.488,1.394,1.711,1.711,0,0,0,.406,1.179A1.333,1.333,0,0,0,30.622,7a1.6,1.6,0,0,0,1.225-.575,2.022,2.022,0,0,0,.517-1.382,1.669,1.669,0,0,0-.418-1.179,1.4,1.4,0,0,0-1.08-.459A1.535,1.535,0,0,0,29.658,3.964ZM7.346,7.541a1.758,1.758,0,0,1-.6-1.4q0-.134.015-.314T6.8,5.416L7.16,2.46H8.444L8.066,5.532q-.023.2-.035.346t-.011.247q0,.866,1.016.865A1.053,1.053,0,0,0,9.849,6.7a1.819,1.819,0,0,0,.349-1l.4-3.246h1.278l-.389,3.182a6.443,6.443,0,0,1-.116.709,3.524,3.524,0,0,1-.151.505,1.733,1.733,0,0,1-.546.691,2.694,2.694,0,0,1-1.713.511A2.4,2.4,0,0,1,7.346,7.541Zm11.545.389.674-5.47h1.283l-.674,5.47Zm-2.532,0-1.992-2.6-.319,2.6H12.764L13.741,0h1.284L14.46,4.585l2.3-2.125h1.713L15.6,4.957,17.91,7.93Zm24.577,0,.395-3.165a6.123,6.123,0,0,0,.052-.65.634.634,0,0,0-.72-.714,1.321,1.321,0,0,0-.494.084.9.9,0,0,0-.357.262,1.422,1.422,0,0,0-.244.459,3.59,3.59,0,0,0-.148.671L39.049,7.93H37.765l.4-3.246q.052-.441.052-.6,0-.679-.738-.679-1.068,0-1.248,1.481L35.855,7.93H34.571l.674-5.47h1.324l-.058.511a2.065,2.065,0,0,1,1.5-.65,1.4,1.4,0,0,1,.8.191,1.513,1.513,0,0,1,.5.679,2.391,2.391,0,0,1,1.754-.865q1.626,0,1.626,1.492,0,.151-.026.424t-.073.674L42.219,7.93ZM19.826,1.286a.724.724,0,0,1-.2-.505A.655.655,0,0,1,19.82.3.659.659,0,0,1,20.3.1.667.667,0,0,1,20.8.31a.673.673,0,0,1,.215.5.659.659,0,0,1-.2.482.665.665,0,0,1-.488.2A.675.675,0,0,1,19.826,1.286Z" transform="translate(0 11.712)" fill="#015f9a"/>
      </g>
      <path id="Path_4838" data-name="Path 4838" d="M4.833-3.807,5.679,0h.828L9.522-6H8.262L6.318-1.917,5.445-6H4.8L2.817-1.917,1.98-6H.756L2.124,0h.828ZM13.554-6h-3.33L9.486,0h3.33l.126-1.008h-2.16l.2-1.638h2.07l.126-1.008h-2.07l.162-1.341h2.16Zm1.134,0L13.95,0h1.98a2.27,2.27,0,0,0,1.8-.576,1.81,1.81,0,0,0,.486-1.3,1.245,1.245,0,0,0-.324-.891,1.689,1.689,0,0,0-.711-.441,1.136,1.136,0,0,0,.585-.459,1.4,1.4,0,0,0,.252-.873,1.334,1.334,0,0,0-.387-1.026A1.973,1.973,0,0,0,16.173-6Zm1.053.954h.288a1.031,1.031,0,0,1,.612.153.649.649,0,0,1,.261.549.852.852,0,0,1-.225.567,1.126,1.126,0,0,1-.873.27h-.252Zm-.3,2.439h.432a1.477,1.477,0,0,1,.954.261.75.75,0,0,1,.2.531.848.848,0,0,1-.234.612,1.525,1.525,0,0,1-1.053.252h-.5Z" transform="translate(14.228 28.819)" fill="#015f9a"/>
    </g>
  </g>
</svg>
