<svg xmlns="http://www.w3.org/2000/svg" width="193.093" height="114.189" viewBox="0 0 193.093 114.189">
  <g id="Group_8" data-name="Group 8" transform="translate(-54.37 -41)">
    <g id="Group_6" data-name="Group 6" transform="translate(54.37 41)">
      <g id="Group_5" data-name="Group 5" transform="translate(0 0)">
        <g id="Group_3" data-name="Group 3" transform="translate(36.329 0)">
          <path id="Path_148" data-name="Path 148" d="M972.754,318.433l-7.854-8.14-.461.478-4.621,4.79-12.023-11.43L937.155,308.1l-10.61,10.336-23.1,23.942h2.686l27.911-25.425,11.117.926,19.455,12.044-3.706-9.265,2.779-2.779,9.264,12.97.927-2.779,18.408,14.307h3.575Z" transform="translate(-875.423 -304.131)" fill="#fff"/>
          <path id="Path_149" data-name="Path 149" d="M887.648,343.958l.83-.861.511-.529-3.536-3.665-.23.238-2.3,2.385-4.6-4.768-2.99-3.1-8.972,9.3-11.5,11.919h2.682l8.82-9.14-.134,4.1,11.117-7.411,2.779,5.559,5.87-5.738Z" transform="translate(-854.856 -316.631)" fill="#fff"/>
        </g>
        <path id="Path_150" data-name="Path 150" d="M989.727,421.267a10.044,10.044,0,0,0,6.65-2.8l-.294,2.307h5l2.623-21.306h-5l-.34,2.8a10.872,10.872,0,0,0-3.325-2.578,9.185,9.185,0,0,0-3.89-.746,10.3,10.3,0,0,0-7.939,3.37,12.375,12.375,0,0,0-3.053,8.64,10.491,10.491,0,0,0,2.669,7.441A8.984,8.984,0,0,0,989.727,421.267Zm-2.646-15.945a5.981,5.981,0,0,1,4.7-2.194,5.432,5.432,0,0,1,4.207,1.787,6.5,6.5,0,0,1,1.629,4.592,7.877,7.877,0,0,1-2.013,5.383,6.216,6.216,0,0,1-4.772,2.239,5.19,5.19,0,0,1-4.071-1.787,6.662,6.662,0,0,1-1.583-4.592A8.056,8.056,0,0,1,987.081,405.321Z" transform="translate(-871.569 -344.266)" fill="#fff"/>
        <path id="Path_151" data-name="Path 151" d="M1031.814,408.878q.7-5.768,4.862-5.767,2.873,0,2.873,2.646,0,.634-.2,2.352l-1.561,12.643h5l1.448-11.9a13.919,13.919,0,0,1,.577-2.613,5.541,5.541,0,0,1,.949-1.786,3.491,3.491,0,0,1,1.391-1.019,5.142,5.142,0,0,1,1.923-.327,2.469,2.469,0,0,1,2.8,2.782,23.836,23.836,0,0,1-.2,2.533l-1.538,12.327h5l1.447-11.738q.181-1.56.283-2.623t.1-1.652q0-5.812-6.333-5.812-3.664,0-6.831,3.37a5.89,5.89,0,0,0-1.945-2.646,5.438,5.438,0,0,0-3.1-.746,8.046,8.046,0,0,0-5.858,2.533l.226-1.99h-5.157l-2.623,21.306h5Z" transform="translate(-890.697 -344.25)" fill="#fff"/>
        <path id="Path_152" data-name="Path 152" d="M1095.432,421.267a10.044,10.044,0,0,0,6.65-2.8l-.294,2.307h5l2.623-21.306h-5l-.339,2.8a10.867,10.867,0,0,0-3.325-2.578,9.183,9.183,0,0,0-3.89-.746,10.3,10.3,0,0,0-7.939,3.37,12.376,12.376,0,0,0-3.053,8.64,10.492,10.492,0,0,0,2.669,7.441A8.984,8.984,0,0,0,1095.432,421.267Zm-2.646-15.945a5.981,5.981,0,0,1,4.7-2.194,5.432,5.432,0,0,1,4.207,1.787,6.5,6.5,0,0,1,1.629,4.592,7.879,7.879,0,0,1-2.013,5.383,6.218,6.218,0,0,1-4.772,2.239,5.191,5.191,0,0,1-4.072-1.787,6.665,6.665,0,0,1-1.583-4.592A8.056,8.056,0,0,1,1092.786,405.321Z" transform="translate(-916.316 -344.266)" fill="#fff"/>
        <path id="Path_153" data-name="Path 153" d="M927.1,389.327a2.7,2.7,0,0,0,2.691-2.669,2.862,2.862,0,0,0-2.76-2.782,2.664,2.664,0,0,0-2.646,2.669,2.82,2.82,0,0,0,.791,1.968A2.63,2.63,0,0,0,927.1,389.327Z" transform="translate(-847.961 -337.888)" fill="#fff"/>
        <path id="Path_154" data-name="Path 154" d="M940.924,427.785h5.69l16.093-27.94h-5.722l-7.713,13.616L944,399.845h-5.338l7.622,18.66Z" transform="translate(-854.004 -344.648)" fill="#fff"/>
        <path id="Path_155" data-name="Path 155" d="M794.12,427.785h5.69l16.093-27.94H810.18l-7.713,13.616-5.27-13.616H791.86l7.622,18.66Z" transform="translate(-791.859 -344.648)" fill="#fff"/>
        <path id="Path_156" data-name="Path 156" d="M839.747,419.636a9.339,9.339,0,0,0,6.288,2.013,10.494,10.494,0,0,0,6.672-1.99,6.746,6.746,0,0,0,2.126-2.692,13.645,13.645,0,0,0,.588-1.968,25.163,25.163,0,0,0,.453-2.759l1.515-12.395h-4.976l-1.56,12.643a7.086,7.086,0,0,1-1.358,3.89,4.1,4.1,0,0,1-3.166,1.108q-3.96,0-3.958-3.37,0-.384.045-.962t.136-1.345l1.47-11.965h-5l-1.4,11.513q-.113.9-.17,1.606t-.056,1.222A6.846,6.846,0,0,0,839.747,419.636Z" transform="translate(-811.136 -344.648)" fill="#fff"/>
        <path id="Path_157" data-name="Path 157" d="M927.068,399.845h-5l-2.624,21.306h5Z" transform="translate(-845.868 -344.648)" fill="#fff"/>
        <path id="Path_158" data-name="Path 158" d="M884.31,403.986l7.758,10.133h6.039l-8.979-11.58,11.173-9.726h-6.672l-8.956,8.278,2.2-17.858h-5l-3.8,30.886h5Z" transform="translate(-828.353 -337.616)" fill="#fff"/>
      </g>
      <path id="Path_2908" data-name="Path 2908" d="M20.406-16.074,23.978,0h3.5L40.2-25.346h-5.32L26.676-8.094,22.99-25.346H20.254L11.894-8.094,8.36-25.346H3.192L8.968,0h3.5Zm36.822-9.272H43.168L40.052,0h14.06l.532-4.256h-9.12l.836-6.916H55.1l.532-4.256h-8.74l.684-5.662H56.7Zm4.788,0L58.9,0h8.36c3.876,0,6.042-.8,7.6-2.432A7.642,7.642,0,0,0,76.912-7.9a5.258,5.258,0,0,0-1.368-3.762,7.133,7.133,0,0,0-3-1.862,4.8,4.8,0,0,0,2.47-1.938,5.924,5.924,0,0,0,1.064-3.686,5.633,5.633,0,0,0-1.634-4.332c-1.71-1.672-4.028-1.862-6.156-1.862Zm4.446,4.028h1.216a4.352,4.352,0,0,1,2.584.646,2.738,2.738,0,0,1,1.1,2.318,3.6,3.6,0,0,1-.95,2.394,4.752,4.752,0,0,1-3.686,1.14H65.664Zm-1.254,10.3h1.824c1.254,0,3.078.19,4.028,1.1A3.166,3.166,0,0,1,71.9-7.676a3.579,3.579,0,0,1-.988,2.584c-.988.95-2.66,1.064-4.446,1.064H64.334Z" transform="translate(55.417 114.189)" fill="#fff"/>
    </g>
  </g>
</svg>
