<?xml version="1.0" encoding="UTF-8"?>
<svg id="_レイヤー_2" data-name="レイヤー 2" xmlns="http://www.w3.org/2000/svg" viewBox="0 0 220 220">
  <defs>
    <style>
      .cls-1 {
        fill: #224d8d;
      }
    </style>
  </defs>
  <path class="cls-1" d="m147,76.3c-.51,0-1.02.01-1.53.03-7.72-19.18-26.2-31.8-47.19-31.8-28.06,0-50.9,22.83-50.9,50.9,0,1.4.08,2.8.19,4.19-14.49,6.41-24.43,20.94-24.43,37.5,0,7.75,2.2,15.26,6.23,21.67,2.34,3.73,8.49,11.7,16.64,14.46,2.73.93,4.78,1.66,12.54,2.2h85.13c2.45.01,6.8-.05,12.74-.85s12.3-3.59,13.76-4.36c5.02-2.62,9.51-6.04,13.37-10.17.16-.17.32-.35.48-.53.24-.27.48-.54.72-.81.18-.21.35-.41.52-.62,7.34-8.8,11.6-20.05,11.6-31.95,0-27.5-22.37-49.87-49.87-49.87Zm20.02,82.56c-1.01.58-5.42,3.47-10.82,4.2-2.94.4-10.17.97-12.52.97H59.09c-3.93-.25-5.87-.47-8.71-1.56,0,0-3.39-1.17-5.32-2.84-.09-.07-.19-.14-.27-.21-.18-.14-.34-.29-.51-.43-.19-.17-.38-.34-.56-.51-.06-.06-.12-.12-.19-.18-.15-.15-.29-.3-.44-.45-.23-.24-.47-.47-.69-.72-.19-.21-.37-.42-.55-.63-.22-.26-.44-.51-.65-.78-.1-.12-.19-.24-.29-.37-.28-.36-.56-.73-.83-1.11-.08-.11-.15-.21-.23-.32-.17-.24-.33-.48-.49-.72-3.08-4.74-4.79-10.31-4.79-16.08,0-11.03,6.11-20.8,15.27-25.88,1.55-.86,3.75-1.81,5.84-2.44,2.01-.6,3.83-.91,4.86-1.04.11-.01.17-.11.14-.22-.34-1.15-.68-2.46-.94-3.56-.54-2.46-.84-4.98-.9-7.52,0-.35-.03-.69-.03-1.04,0-21.76,17.7-39.45,39.45-39.45,15.33,0,28.93,8.68,35.46,22.12.86,1.77,1.6,3.62,2.2,5.54.88,2.82,1.34,4.62,1.47,5.16.02.09.12.15.21.12,3.03-.77,6.2-1.18,9.38-1.18.58,0,1.15.02,1.72.04,20.39.9,36.5,17.77,36.71,38.39.2,19.97-16.45,31.57-18.41,32.69Z"/>
</svg>