<?xml version="1.0" encoding="UTF-8"?>
<svg id="_レイヤー_2" data-name="レイヤー 2" xmlns="http://www.w3.org/2000/svg" viewBox="0 0 220 220">
  <defs>
    <style>
      .cls-1 {
        fill: #224d8d;
      }
    </style>
  </defs>
  <path class="cls-1" d="m105.44,141.65c2.75,1.66,7.29,4.86,9.83,7.13.38.33.57.45.98.45.7,0,1.45-.53,1.45-1.5,0-.62-.57-1.2-1.64-2.06-4.48-3.51-9.14-6.59-9.98-6.59-.89,0-1.29.75-1.29,1.5,0,.68.29.89.64,1.06Z"/>
  <path class="cls-1" d="m122.87,157.34h23.18c2.12,0,3.72-1.31,3.72-3.04v-9.79c0-1.51-1.32-3.04-3.83-3.04h-5.86v-1.94c0-.93,0-2.08-1.34-2.08s-1.4,1.16-1.4,2.08v1.94h-5.94v-1.94c0-.88,0-2.08-1.29-2.08s-1.34,1.25-1.34,2.08v1.94h-6.07c-2.26,0-3.62,1.52-3.62,2.98v9.42c0,2.1,1.48,3.46,3.78,3.46Zm-1.15-9.35v-2.26c0-1.46,1.48-1.57,1.94-1.57h5.12v3.83h-7.05Zm7.05,2.63v3.99h-5.12c-1.31,0-1.94-.51-1.94-1.57v-2.42h7.05Zm8.58,0v3.99h-5.94v-3.99h5.94Zm-5.94-2.63v-3.83h5.94v3.83h-5.94Zm15.68,2.63v2.42c0,.85-.89,1.57-1.94,1.57h-5.06v-3.99h7Zm0-2.63h-7v-3.83h5.06c.93,0,1.94.49,1.94,1.57v2.26Z"/>
  <path class="cls-1" d="m151.38,184.19c-1.1-.29-4.58-1.49-7.65-3.49.54-.42,1.87-1.57,2.67-2.28,2.24-1.98,2.53-2.25,2.53-2.95s-.55-1.24-1.24-1.24c-.36,0-.66.13-.93.4-.47.4-.88.77-1.31,1.15-.99.87-2.02,1.78-3.85,3.29-2.09-1.74-3.67-3.6-4.97-5.85h12.81c.88,0,2.08,0,2.08-1.34s-1.2-1.29-2.08-1.29h-28.13c.04-.62.04-1.05.04-1.94v-3.49c0-2.26.46-2.84,2.26-2.84h25.83c.98,0,2.08,0,2.08-1.4s-1.15-1.4-2.08-1.4h-25.73c-4.11,0-4.89,1.89-4.89,5.37v3.6c0,5.08-.64,8.93-4.01,14.71-.65,1.09-.81,1.35-.81,1.7,0,.66.5,1.34,1.34,1.34.73,0,.99-.4,1.34-.95l.04-.06c2.31-3.66,3.81-7.81,4.34-12h5.75v10.09c-1.04.17-3.71.57-4.13.62-.88.15-1.32.6-1.32,1.34,0,.95.74,1.4,1.24,1.4,1.75,0,8.15-1.27,10.3-1.75,4.86-1.1,5.18-1.31,5.18-2.29s-.62-1.45-1.24-1.45c-.23,0-.51.06-1.04.22-2.91.71-4.83,1.15-6.36,1.45v-9.62h4.34c.76,1.9,3.34,5.74,7.47,8.82,3.81,2.83,9.13,4.74,9.71,4.74.74,0,1.29-.76,1.29-1.45,0-.57-.45-1-.89-1.13Z"/>
  <path class="cls-1" d="m147.69,164.92h-21.86c-.98,0-2.08,0-2.08,1.4s1.11,1.4,2.08,1.4h21.86c.98,0,2.08,0,2.08-1.4s-1.11-1.4-2.08-1.4Z"/>
  <path class="cls-1" d="m104.14,153.73c3.79,2.24,4.69,2.78,9.55,6.6.33.22.51.34.97.34.73,0,1.34-.62,1.34-1.34,0-1.8-10.91-8.54-11.77-8.54-.33,0-1.18.26-1.18,1.45,0,.87.43,1.11.8,1.33l.29.17Z"/>
  <path class="cls-1" d="m114.98,166.46c-.71,0-.98.44-1.12.77-.61,1.73-3.14,7.94-10.03,15.15-.23.23-.35.42-.35.78,0,.95.77,1.39,1.29,1.39.66,0,1.99-1.21,4.07-3.7,4.92-5.91,7.54-12.4,7.54-13.05,0-.8-.72-1.34-1.39-1.34Z"/>
  <path class="cls-1" d="m176.64,169.47h-5.48c-.16-.29-.37-.58-.6-.8,2.74-1.43,6.26-3.55,6.26-5.8,0-1.83-2.24-1.98-2.93-1.98h-12.7c-.9,0-2.03,0-2.03,1.34s1.13,1.29,2.03,1.29h11.54c.62,0,.67.02.67.14,0,.29-1.21,1.31-4.62,3.23-.53-.49-3.09-2.83-3.94-2.83-.89,0-1.13.71-1.13,1.13,0,.62.35.97.9,1.32,1.07.7,2.53,1.82,3.5,2.95h-8.73c-.86,0-2.03,0-2.03,1.29s1.17,1.29,2.03,1.29h7.95c-2.01,2.58-5.02,4.96-8.96,7.07-1.98,1.04-2.24,1.18-2.24,1.91,0,.49.37,1.18,1.18,1.18.86,0,6.75-2.88,10.83-7.47v7.29c0,1.78-.46,1.78-1.15,1.78-.36,0-1.41-.18-2.33-.35-.88-.16-1.64-.29-1.9-.29-.7,0-1.29.59-1.29,1.29,0,.46.28.9.71,1.12.2.1,2.79.86,5.03.86,3.22,0,3.57-2.68,3.57-3.83v-10.57h4.69c.77,0,.83.06.83.14,0,.29-.46.99-1.33,1.76-.38.33-.81.67-1.23.99-1.05.82-1.96,1.53-2.04,2.1-.06.33.05.68.3.94.24.26.58.4.9.37,1.02-.1,6.2-3.79,6.2-6.63,0-1.49-.83-2.24-2.45-2.24Z"/>
  <path class="cls-1" d="m196.71,175.4h-7.05c.09-.49.34-1.88.34-2.04,0-.63-.68-1.18-1.45-1.18-.47,0-.81.28-1.02.83-.06.18-.17.74-.29,1.34-.08.42-.17.84-.22,1.06h-5.46c-.88,0-2.08,0-2.08,1.29s1.2,1.29,2.08,1.29h4.69c-1.63,4.37-5.67,5.68-6.47,5.9-2.08.57-2.42.69-2.42,1.6,0,.57.45,1.18,1.18,1.18,1.97,0,5.02-1.82,5.36-2.03,2.4-1.47,4.12-3.71,5.11-6.65h7.53c1.75,0,1.83.4,1.83,1.67,0,4.27-.81,4.27-2.15,4.27-.25,0-1.02-.09-1.76-.18-.81-.09-1.64-.19-1.94-.19-.81,0-1.29.63-1.29,1.24,0,.5.31.98.76,1.17.69.29,3.12.43,4.28.43,2.35,0,4.78,0,4.78-7.01,0-2.02-.34-3.99-4.36-3.99Z"/>
  <path class="cls-1" d="m200.15,164.54h1.64c.86,0,2.03,0,2.03-1.29s-1.17-1.24-2.03-1.24h-14.42c.92-1.29,1.05-1.49,1.05-1.99s-.34-1.24-1.24-1.24c-.71,0-.92.32-1.12.63l-.04.06c-1.44,2.21-3.44,4.48-4.47,5.32-2.01,1.64-2.27,1.89-2.27,2.48s.47,1.4,1.34,1.4c.72,0,2.51-1.73,3.92-3.23,1.97,2.01,3.09,2.84,4.39,3.8h0c-1.72.67-2.47.81-7.14,1.69l-.15.03c-1.03.19-1.11,1.04-1.11,1.29,0,.66.55,1.29,1.13,1.29,1.42,0,6.42-1.18,9.95-2.63,3.71,1.98,9.52,3.48,10.75,3.48,1.06,0,1.45-.74,1.45-1.24,0-.98-.91-1.17-1.64-1.33h-.05c-1.69-.4-4.79-1.11-7.7-2.39,1.99-1.21,3.86-2.82,5.72-4.89Zm-3.48,0c-2.03,1.98-3.79,2.9-4.86,3.45l-.07.04c-2.01-1.28-3.39-2.43-4.55-3.49h9.48Z"/>
  <path class="cls-1" d="m195.81,154.7h-8.79c-.9,0-2.03,0-2.03,1.34s1.13,1.29,2.03,1.29h8.79c.79,0,1.98,0,1.98-1.29s-1.19-1.34-1.98-1.34Z"/>
  <path class="cls-1" d="m165.32,154.7c-.88,0-2.08,0-2.08,1.34s1.2,1.29,2.08,1.29h8.52c1.03,0,2.03-.1,2.03-1.29,0-1.34-1.13-1.34-2.03-1.34h-8.52Z"/>
  <path class="cls-1" d="m173.84,149.94h-8.52c-.83,0-2.08,0-2.08,1.24s1.25,1.29,2.08,1.29h8.52c.86,0,2.03,0,2.03-1.29s-1.17-1.24-2.03-1.24Z"/>
  <path class="cls-1" d="m195.75,149.94h-8.73c-.86,0-2.03,0-2.03,1.24s1.17,1.29,2.03,1.29h8.73c.86,0,2.03,0,2.03-1.29s-1.17-1.24-2.03-1.24Z"/>
  <path class="cls-1" d="m158.75,156.17c1.34,0,1.34-1.16,1.34-2.08v-4.5c0-1.34.59-1.89,2.04-1.89h16.87v9.03c0,.98,0,2.08,1.45,2.08s1.4-1.11,1.4-2.08v-9.03h16.81c1.52,0,2.26.5,2.26,1.52v4.87c0,.98,0,2.08,1.4,2.08s1.45-1.11,1.45-2.08v-5.13s-.12-3.83-4.47-3.83h-17.45v-2.4h17.24c.88,0,2.08,0,2.08-1.24s-1.25-1.24-2.08-1.24h-37.16c-.83,0-2.08,0-2.08,1.24s1.25,1.24,2.08,1.24h17.08v2.4h-17.82c-2.25,0-3.83,1.44-3.83,3.51v5.45c0,.98,0,2.08,1.39,2.08Z"/>
  <path class="cls-1" d="m131.87,85.15H21.68c-3.04,0-5.5-2.46-5.5-5.5s2.46-5.5,5.5-5.5h110.18c3.04,0,5.5,2.46,5.5,5.5s-2.46,5.5-5.5,5.5Z"/>
  <path class="cls-1" d="m171.28,44.23H43.46c-3.04,0-5.5-2.46-5.5-5.5s2.46-5.5,5.5-5.5h127.83c3.04,0,5.5,2.46,5.5,5.5s-2.46,5.5-5.5,5.5Z"/>
  <path class="cls-1" d="m76.68,166.99H21.68c-3.04,0-5.5-2.46-5.5-5.5s2.46-5.5,5.5-5.5h55c3.04,0,5.5,2.46,5.5,5.5s-2.46,5.5-5.5,5.5Z"/>
  <path class="cls-1" d="m171.28,126.07H43.46c-3.04,0-5.5-2.46-5.5-5.5s2.46-5.5,5.5-5.5h127.83c3.04,0,5.5,2.46,5.5,5.5s-2.46,5.5-5.5,5.5Z"/>
</svg>