<?xml version="1.0" encoding="UTF-8"?>
<svg id="_レイヤー_2" data-name="レイヤー 2" xmlns="http://www.w3.org/2000/svg" viewBox="0 0 220 220">
  <defs>
    <style>
      .cls-1 {
        fill: #fff;
      }
    </style>
  </defs>
  <circle class="cls-1" cx="110" cy="109.35" r="47.2"/>
  <g>
    <path class="cls-1" d="m155.79,69.71c-1.41,0-2.81-.54-3.89-1.61-2.15-2.15-2.15-5.63,0-7.78l19.38-19.38c2.15-2.15,5.63-2.15,7.78,0,2.15,2.15,2.15,5.63,0,7.78l-19.38,19.38c-1.07,1.07-2.48,1.61-3.89,1.61Z"/>
    <path class="cls-1" d="m44.83,180.67c-1.41,0-2.81-.54-3.89-1.61-2.15-2.15-2.15-5.63,0-7.78l19.38-19.38c2.15-2.15,5.63-2.15,7.78,0,2.15,2.15,2.15,5.63,0,7.78l-19.38,19.38c-1.07,1.07-2.48,1.61-3.89,1.61Z"/>
  </g>
  <g>
    <path class="cls-1" d="m202.16,115.5h-27.41c-3.04,0-5.5-2.46-5.5-5.5s2.46-5.5,5.5-5.5h27.41c3.04,0,5.5,2.46,5.5,5.5s-2.46,5.5-5.5,5.5Z"/>
    <path class="cls-1" d="m45.24,115.5h-27.41c-3.04,0-5.5-2.46-5.5-5.5s2.46-5.5,5.5-5.5h27.41c3.04,0,5.5,2.46,5.5,5.5s-2.46,5.5-5.5,5.5Z"/>
  </g>
  <g>
    <path class="cls-1" d="m175.17,180.67c-1.41,0-2.81-.54-3.89-1.61l-19.38-19.38c-2.15-2.15-2.15-5.63,0-7.78,2.15-2.15,5.63-2.15,7.78,0l19.38,19.38c2.15,2.15,2.15,5.63,0,7.78-1.07,1.07-2.48,1.61-3.89,1.61Z"/>
    <path class="cls-1" d="m64.21,69.71c-1.41,0-2.81-.54-3.89-1.61l-19.38-19.38c-2.15-2.15-2.15-5.63,0-7.78,2.15-2.15,5.63-2.15,7.78,0l19.38,19.38c2.15,2.15,2.15,5.63,0,7.78-1.07,1.07-2.48,1.61-3.89,1.61Z"/>
  </g>
  <g>
    <path class="cls-1" d="m110,207.66c-3.04,0-5.5-2.46-5.5-5.5v-27.41c0-3.04,2.46-5.5,5.5-5.5s5.5,2.46,5.5,5.5v27.41c0,3.04-2.46,5.5-5.5,5.5Z"/>
    <path class="cls-1" d="m110,50.74c-3.04,0-5.5-2.46-5.5-5.5v-27.41c0-3.04,2.46-5.5,5.5-5.5s5.5,2.46,5.5,5.5v27.41c0,3.04-2.46,5.5-5.5,5.5Z"/>
  </g>
</svg>