<?xml version="1.0" encoding="UTF-8"?>
<svg id="_レイヤー_2" data-name="レイヤー 2" xmlns="http://www.w3.org/2000/svg" viewBox="0 0 220 220">
  <defs>
    <style>
      .cls-1 {
        fill: #224d8d;
      }
    </style>
  </defs>
  <g>
    <circle class="cls-1" cx="132.08" cy="83.83" r="7.27"/>
    <circle class="cls-1" cx="107.13" cy="83.83" r="7.27"/>
    <circle class="cls-1" cx="82.19" cy="83.83" r="7.27"/>
    <circle class="cls-1" cx="57.25" cy="83.83" r="7.27"/>
    <circle class="cls-1" cx="32.31" cy="83.48" r="7.27"/>
  </g>
  <g>
    <circle class="cls-1" cx="132.08" cy="159.43" r="7.27"/>
    <circle class="cls-1" cx="107.13" cy="159.43" r="7.27"/>
    <circle class="cls-1" cx="82.19" cy="159.43" r="7.27"/>
    <circle class="cls-1" cx="57.25" cy="159.43" r="7.27"/>
    <circle class="cls-1" cx="32.31" cy="159.08" r="7.27"/>
  </g>
  <g>
    <circle class="cls-1" cx="171.41" cy="45.64" r="7.27"/>
    <circle class="cls-1" cx="147.61" cy="45.64" r="7.27"/>
    <circle class="cls-1" cx="123.82" cy="45.64" r="7.27"/>
    <circle class="cls-1" cx="100.02" cy="45.64" r="7.27"/>
    <circle class="cls-1" cx="76.23" cy="45.64" r="7.27"/>
    <circle class="cls-1" cx="52.43" cy="45.64" r="7.27"/>
  </g>
  <g>
    <circle class="cls-1" cx="171.41" cy="121.5" r="7.27"/>
    <circle class="cls-1" cx="147.61" cy="121.5" r="7.27"/>
    <circle class="cls-1" cx="123.82" cy="121.5" r="7.27"/>
    <circle class="cls-1" cx="100.02" cy="121.5" r="7.27"/>
    <circle class="cls-1" cx="76.23" cy="121.5" r="7.27"/>
    <circle class="cls-1" cx="52.43" cy="121.5" r="7.27"/>
  </g>
  <path class="cls-1" d="m166.24,155.05c-.88,0-2.08,0-2.08,1.34s1.2,1.29,2.08,1.29h8.52c1.03,0,2.03-.1,2.03-1.29,0-1.34-1.13-1.34-2.03-1.34h-8.52Z"/>
  <path class="cls-1" d="m177.57,169.82h-5.48c-.16-.29-.37-.58-.6-.8,2.74-1.43,6.26-3.55,6.26-5.8,0-1.83-2.24-1.98-2.93-1.98h-12.7c-.91,0-2.03,0-2.03,1.34s1.13,1.29,2.03,1.29h11.54c.62,0,.67.02.67.14,0,.29-1.21,1.31-4.62,3.23-.53-.49-3.09-2.83-3.94-2.83-.89,0-1.13.71-1.13,1.13,0,.62.35.97.9,1.32,1.07.7,2.53,1.82,3.5,2.95h-8.73c-.86,0-2.03,0-2.03,1.29s1.17,1.29,2.03,1.29h7.95c-2.01,2.58-5.02,4.96-8.96,7.07-1.98,1.04-2.24,1.18-2.24,1.91,0,.49.37,1.18,1.18,1.18.86,0,6.75-2.88,10.83-7.47v7.29c0,1.78-.46,1.78-1.15,1.78-.36,0-1.41-.18-2.33-.35-.88-.15-1.64-.29-1.9-.29-.7,0-1.29.59-1.29,1.29,0,.46.28.9.71,1.12.2.1,2.79.86,5.03.86,3.22,0,3.57-2.68,3.57-3.83v-10.57h4.69c.77,0,.83.06.83.14,0,.29-.46.99-1.33,1.76-.38.33-.81.67-1.23.99-1.05.82-1.96,1.53-2.04,2.1-.06.33.05.68.3.94.24.26.57.4.9.37,1.02-.1,6.2-3.78,6.2-6.64,0-1.49-.83-2.24-2.45-2.24Z"/>
  <path class="cls-1" d="m197.63,175.75h-7.05c.09-.49.34-1.89.34-2.04,0-.63-.68-1.18-1.45-1.18-.47,0-.81.28-1.02.83-.06.18-.17.74-.29,1.34-.08.42-.17.84-.22,1.06h-5.46c-.88,0-2.08,0-2.08,1.29s1.2,1.29,2.08,1.29h4.69c-1.67,4.47-5.98,5.76-6.47,5.89-2.08.57-2.42.69-2.42,1.6,0,.57.45,1.18,1.18,1.18,1.97,0,5.02-1.82,5.36-2.03,2.4-1.47,4.12-3.71,5.11-6.65h7.53c1.75,0,1.83.4,1.83,1.67,0,4.27-.81,4.27-2.15,4.27-.25,0-1.02-.09-1.76-.18-.81-.09-1.64-.19-1.94-.19-.81,0-1.29.63-1.29,1.24,0,.5.31.98.76,1.17.69.29,3.12.43,4.28.43,2.35,0,4.78,0,4.78-7.01,0-2.02-.34-3.99-4.36-3.99Z"/>
  <path class="cls-1" d="m159.68,156.52c1.34,0,1.34-1.16,1.34-2.08v-4.5c0-1.34.59-1.89,2.04-1.89h16.87v9.03c0,.98,0,2.08,1.45,2.08s1.4-1.11,1.4-2.08v-9.03h16.81c1.52,0,2.26.5,2.26,1.52v4.87c0,.98,0,2.08,1.4,2.08s1.45-1.11,1.45-2.08v-5.13s-.12-3.83-4.47-3.83h-17.45v-2.4h17.24c.88,0,2.08,0,2.08-1.24s-1.25-1.24-2.08-1.24h-37.16c-.83,0-2.08,0-2.08,1.24s1.25,1.24,2.08,1.24h17.08v2.4h-17.82c-2.25,0-3.83,1.44-3.83,3.51v5.45c0,.98,0,2.08,1.39,2.08Z"/>
  <path class="cls-1" d="m203.11,172.17h-.05c-1.69-.4-4.8-1.11-7.7-2.39,1.99-1.22,3.86-2.82,5.71-4.89h1.64c.86,0,2.03,0,2.03-1.29s-1.17-1.24-2.03-1.24h-14.42c.92-1.29,1.05-1.49,1.05-1.99s-.34-1.24-1.24-1.24c-.71,0-.92.32-1.12.63l-.04.06c-1.44,2.21-3.44,4.48-4.47,5.32-2.01,1.64-2.27,1.88-2.27,2.48s.47,1.4,1.34,1.4c.72,0,2.51-1.73,3.92-3.23,1.97,2.01,3.09,2.84,4.39,3.8h0c-1.72.66-2.47.81-7.12,1.69l-.17.03c-1.03.19-1.11,1.03-1.11,1.29,0,.66.55,1.29,1.13,1.29,1.42,0,6.42-1.18,9.95-2.63,3.71,1.98,9.52,3.48,10.75,3.48,1.06,0,1.45-.74,1.45-1.24,0-.98-.91-1.17-1.63-1.33Zm-5.52-7.28c-2.03,1.97-3.79,2.89-4.86,3.45l-.07.04c-2.02-1.28-3.39-2.43-4.55-3.49h9.48Z"/>
  <path class="cls-1" d="m174.77,150.29h-8.52c-.83,0-2.08,0-2.08,1.24s1.25,1.29,2.08,1.29h8.52c.86,0,2.03,0,2.03-1.29s-1.17-1.24-2.03-1.24Z"/>
  <path class="cls-1" d="m196.68,150.29h-8.73c-.86,0-2.03,0-2.03,1.24s1.17,1.29,2.03,1.29h8.73c.86,0,2.03,0,2.03-1.29s-1.17-1.24-2.03-1.24Z"/>
  <path class="cls-1" d="m196.73,155.05h-8.79c-.9,0-2.03,0-2.03,1.34s1.13,1.29,2.03,1.29h8.79c.79,0,1.98,0,1.98-1.29s-1.19-1.34-1.98-1.34Z"/>
</svg>