<?xml version="1.0" encoding="UTF-8"?>
<svg id="_レイヤー_2" data-name="レイヤー 2" xmlns="http://www.w3.org/2000/svg" viewBox="0 0 220 220">
  <defs>
    <style>
      .cls-1 {
        fill: #fff;
      }
    </style>
  </defs>
  <path class="cls-1" d="m145.57,60.9c-.49,0-.98.01-1.47.03-7.42-18.44-25.19-30.57-45.37-30.57-26.98,0-48.93,21.95-48.93,48.93,0,1.35.07,2.69.18,4.03-13.93,6.17-23.49,20.13-23.49,36.05,0,12.62,6.12,24.58,16.37,31.98.97.7,2.1,1.04,3.21,1.04,1.87,0,3.71-.95,4.76-2.73,1.43-2.44.67-5.62-1.61-7.29-7.34-5.34-11.73-13.93-11.73-23,0-10.6,5.87-20,14.68-24.88,1.49-.83,3.61-1.74,5.61-2.34s3.68-.87,4.67-1c.1-.01.16-.11.13-.21-.32-1.1-.66-2.37-.9-3.42-.52-2.36-.8-4.79-.87-7.23,0-.33-.03-.67-.03-1,0-20.91,17.02-37.93,37.93-37.93,14.74,0,27.81,8.35,34.09,21.27.83,1.7,1.54,3.48,2.12,5.33.85,2.71,1.29,4.44,1.42,4.96.02.09.11.14.2.12,2.91-.74,5.96-1.13,9.02-1.13.56,0,1.11.02,1.66.04,19.6.87,35.29,17.09,35.29,36.9,0,14.49-8.5,27.67-21.68,33.65-2.69,1.22-4.2,4.26-3.17,7.04.83,2.25,2.95,3.6,5.16,3.6.75,0,1.51-.15,2.24-.48,17.28-7.7,28.45-24.9,28.45-43.81,0-26.44-21.51-47.94-47.94-47.94Z"/>
  <path class="cls-1" d="m120.28,142.02l-3.53-2.06,2.81-.6c.47-.1.76-.56.66-1.02-.1-.46-.56-.76-1.02-.66l-4.65,1-4.51-2.64,4.51-2.64,4.65,1c.06.01.12.02.18.02.4,0,.75-.28.84-.68.1-.47-.2-.92-.66-1.02l-2.81-.6,3.53-2.06c.41-.24.55-.77.31-1.18-.24-.41-.77-.55-1.18-.31l-3.53,2.06.85-2.74c.14-.45-.11-.94-.57-1.08-.45-.14-.94.11-1.08.57l-1.41,4.54-4.49,2.62v-5.2l3.21-3.51c.32-.35.3-.9-.05-1.22-.35-.32-.9-.3-1.22.05l-1.94,2.12v-4.09c0-.48-.39-.86-.86-.86s-.86.39-.86.86v4.09l-1.94-2.12c-.32-.35-.87-.38-1.22-.05-.35.32-.38.87-.05,1.22l3.21,3.51v5.2l-4.49-2.62-1.41-4.54c-.14-.45-.62-.71-1.08-.57-.45.14-.71.62-.57,1.08l.85,2.74-3.53-2.06c-.41-.24-.94-.1-1.18.31-.24.41-.1.94.31,1.18l3.53,2.06-2.81.6c-.47.1-.76.56-.66,1.02.09.4.44.68.84.68.06,0,.12,0,.18-.02l4.65-1,4.51,2.64-4.51,2.64-4.65-1c-.47-.1-.92.2-1.02.66-.1.47.2.92.66,1.02l2.81.6-3.53,2.06c-.41.24-.55.77-.31,1.18.16.27.45.43.74.43.15,0,.3-.04.43-.12l3.53-2.06-.85,2.74c-.14.45.11.94.57,1.08.09.03.17.04.26.04.37,0,.71-.24.82-.61l1.41-4.54,4.49-2.62v5.2l-3.21,3.51c-.32.35-.3.9.05,1.22.35.32.9.3,1.22-.05l1.94-2.12v4.09c0,.48.39.86.86.86s.86-.39.86-.86v-4.09l1.94,2.12c.17.19.4.28.64.28.21,0,.42-.07.58-.23.35-.32.38-.87.05-1.22l-3.21-3.51v-5.2l4.49,2.62,1.41,4.54c.11.37.45.61.82.61.08,0,.17-.01.26-.04.45-.14.71-.62.57-1.08l-.85-2.74,3.53,2.06c.14.08.29.12.43.12.3,0,.58-.15.74-.43.24-.41.1-.94-.31-1.18Z"/>
  <path class="cls-1" d="m94.66,166.05l-3.53-2.06,2.81-.6c.47-.1.76-.56.66-1.02-.1-.46-.56-.76-1.02-.66l-4.65,1-4.51-2.64,4.51-2.64,4.65,1c.06.01.12.02.18.02.4,0,.75-.28.84-.68.1-.47-.2-.92-.66-1.02l-2.81-.6,3.53-2.06c.41-.24.55-.77.31-1.18-.24-.41-.77-.55-1.18-.31l-3.53,2.06.85-2.74c.14-.45-.11-.94-.57-1.08-.45-.14-.94.11-1.08.57l-1.41,4.54-4.49,2.62v-5.2l3.21-3.51c.32-.35.3-.9-.05-1.22-.35-.32-.9-.3-1.22.05l-1.94,2.12v-4.09c0-.48-.39-.86-.86-.86s-.86.39-.86.86v4.09l-1.94-2.12c-.32-.35-.87-.38-1.22-.05-.35.32-.38.87-.05,1.22l3.21,3.51v5.2l-4.49-2.62-1.41-4.54c-.14-.45-.62-.71-1.08-.57-.45.14-.71.62-.57,1.08l.85,2.74-3.53-2.06c-.41-.24-.94-.1-1.18.31-.24.41-.1.94.31,1.18l3.53,2.06-2.81.6c-.47.1-.76.56-.66,1.02.09.4.44.68.84.68.06,0,.12,0,.18-.02l4.65-1,4.51,2.64-4.51,2.64-4.65-1c-.47-.1-.92.2-1.02.66-.1.47.2.92.66,1.02l2.81.6-3.53,2.06c-.41.24-.55.77-.31,1.18.16.27.45.43.74.43.15,0,.3-.04.43-.12l3.53-2.06-.85,2.74c-.14.45.11.94.57,1.08.09.03.17.04.26.04.37,0,.71-.24.82-.61l1.41-4.54,4.49-2.62v5.2l-3.21,3.51c-.32.35-.3.9.05,1.22.35.32.9.3,1.22-.05l1.94-2.12v4.09c0,.48.39.86.86.86s.86-.39.86-.86v-4.09l1.94,2.12c.17.19.4.28.64.28.21,0,.42-.07.58-.23.35-.32.38-.87.05-1.22l-3.21-3.51v-5.2l4.49,2.62,1.41,4.54c.11.37.45.61.82.61.08,0,.17-.01.26-.04.45-.14.71-.62.57-1.08l-.85-2.74,3.53,2.06c.14.08.29.12.43.12.3,0,.58-.15.74-.43.24-.41.1-.94-.31-1.18Z"/>
  <path class="cls-1" d="m145.64,181.44l-3.53-2.06,2.81-.6c.47-.1.76-.56.66-1.02-.1-.46-.56-.76-1.02-.66l-4.65,1-4.51-2.64,4.51-2.64,4.65,1c.06.01.12.02.18.02.4,0,.75-.28.84-.68.1-.47-.2-.92-.66-1.02l-2.81-.6,3.53-2.06c.41-.24.55-.77.31-1.18-.24-.41-.77-.55-1.18-.31l-3.53,2.06.85-2.74c.14-.45-.11-.94-.57-1.08-.45-.14-.94.11-1.08.57l-1.41,4.54-4.49,2.62v-5.2l3.21-3.51c.32-.35.3-.9-.05-1.22-.35-.32-.9-.3-1.22.05l-1.94,2.12v-4.09c0-.48-.39-.86-.86-.86s-.86.39-.86.86v4.09l-1.94-2.12c-.32-.35-.87-.38-1.22-.05-.35.32-.38.87-.05,1.22l3.21,3.51v5.2l-4.49-2.62-1.41-4.54c-.14-.45-.62-.71-1.08-.57-.45.14-.71.62-.57,1.08l.85,2.74-3.53-2.06c-.41-.24-.94-.1-1.18.31-.24.41-.1.94.31,1.18l3.53,2.06-2.81.6c-.47.1-.76.56-.66,1.02.09.4.44.68.84.68.06,0,.12,0,.18-.02l4.65-1,4.51,2.64-4.51,2.64-4.65-1c-.47-.1-.92.2-1.02.66-.1.47.2.92.66,1.02l2.81.6-3.53,2.06c-.41.24-.55.77-.31,1.18.16.27.45.43.74.43.15,0,.3-.04.43-.12l3.53-2.06-.85,2.74c-.14.45.11.94.57,1.08.09.03.17.04.26.04.37,0,.71-.24.82-.61l1.41-4.54,4.49-2.62v5.2l-3.21,3.51c-.32.35-.3.9.05,1.22.35.32.9.3,1.22-.05l1.94-2.12v4.09c0,.48.39.86.86.86s.86-.39.86-.86v-4.09l1.94,2.12c.17.19.4.28.64.28.21,0,.42-.07.58-.23.35-.32.38-.87.05-1.22l-3.21-3.51v-5.2l4.49,2.62,1.41,4.54c.11.37.45.61.82.61.08,0,.17-.01.26-.04.45-.14.71-.62.57-1.08l-.85-2.74,3.53,2.06c.14.08.29.12.43.12.3,0,.58-.15.74-.43.24-.41.1-.94-.31-1.18Z"/>
</svg>