<?xml version="1.0" encoding="UTF-8"?>
<svg id="_レイヤー_2" data-name="レイヤー 2" xmlns="http://www.w3.org/2000/svg" viewBox="0 0 220 220">
  <defs>
    <style>
      .cls-1 {
        fill: #fff;
      }
    </style>
  </defs>
  <path class="cls-1" d="m145.57,65.23c-.49,0-.98.01-1.47.03-7.42-18.44-25.19-30.57-45.37-30.57-26.98,0-48.93,21.95-48.93,48.93,0,1.35.07,2.69.18,4.03-13.93,6.17-23.49,20.13-23.49,36.05,0,12.62,6.12,24.58,16.37,31.98.97.7,2.1,1.04,3.21,1.04,1.87,0,3.71-.95,4.76-2.73,1.43-2.44.67-5.62-1.61-7.29-7.34-5.34-11.73-13.93-11.73-23,0-10.6,5.87-20,14.68-24.88,1.49-.83,3.61-1.74,5.61-2.34s3.68-.87,4.67-1c.1-.01.16-.11.13-.21-.32-1.1-.66-2.37-.9-3.42-.52-2.36-.8-4.79-.87-7.23,0-.33-.03-.67-.03-1,0-20.91,17.02-37.93,37.93-37.93,14.74,0,27.81,8.35,34.09,21.27.83,1.7,1.54,3.48,2.12,5.33.85,2.71,1.29,4.44,1.42,4.96.02.09.11.14.2.12,2.91-.74,5.96-1.13,9.02-1.13.56,0,1.11.02,1.66.04,19.6.87,35.29,17.09,35.29,36.9,0,14.49-8.5,27.67-21.68,33.65-2.69,1.22-4.2,4.26-3.17,7.04.83,2.25,2.95,3.6,5.16,3.6.75,0,1.51-.15,2.24-.48,17.28-7.7,28.45-24.9,28.45-43.81,0-26.44-21.51-47.94-47.94-47.94Z"/>
  <g>
    <g>
      <circle class="cls-1" cx="114.27" cy="139.77" r="5.91"/>
      <circle class="cls-1" cx="104.69" cy="158.07" r="5.91"/>
      <circle class="cls-1" cx="95.68" cy="176.37" r="5.91"/>
    </g>
    <g>
      <circle class="cls-1" cx="141.86" cy="139.77" r="5.91"/>
      <circle class="cls-1" cx="132.29" cy="158.07" r="5.91"/>
      <circle class="cls-1" cx="123.28" cy="176.37" r="5.91"/>
    </g>
    <g>
      <circle class="cls-1" cx="86.67" cy="139.77" r="5.91"/>
      <circle class="cls-1" cx="77.1" cy="158.07" r="5.91"/>
      <circle class="cls-1" cx="68.09" cy="176.37" r="5.91"/>
    </g>
  </g>
</svg>