<?xml version="1.0" encoding="UTF-8"?>
<svg id="_レイヤー_2" data-name="レイヤー 2" xmlns="http://www.w3.org/2000/svg" viewBox="0 0 220 220">
  <defs>
    <style>
      .cls-1 {
        fill: #fff;
      }
    </style>
  </defs>
  <path class="cls-1" d="m145.57,60.23c-.49,0-.98.01-1.47.03-7.42-18.44-25.19-30.57-45.37-30.57-26.98,0-48.93,21.95-48.93,48.93,0,1.35.07,2.69.18,4.03-13.93,6.17-23.49,20.13-23.49,36.05,0,12.62,6.12,24.58,16.37,31.98.97.7,2.1,1.04,3.21,1.04,1.87,0,3.71-.95,4.76-2.73,1.43-2.44.67-5.62-1.61-7.29-7.34-5.34-11.73-13.93-11.73-23,0-10.6,5.87-20,14.68-24.88,1.49-.83,3.61-1.74,5.61-2.34s3.68-.87,4.67-1c.1-.01.16-.11.13-.21-.32-1.1-.66-2.37-.9-3.42-.52-2.36-.8-4.79-.87-7.23,0-.33-.03-.67-.03-1,0-20.91,17.02-37.93,37.93-37.93,14.74,0,27.81,8.35,34.09,21.27.83,1.7,1.54,3.48,2.12,5.33.85,2.71,1.29,4.44,1.42,4.96.02.09.11.14.2.12,2.91-.74,5.96-1.13,9.02-1.13.56,0,1.11.02,1.66.04,19.6.87,35.29,17.09,35.29,36.9,0,14.49-8.5,27.67-21.68,33.65-2.69,1.22-4.2,4.26-3.17,7.04.83,2.25,2.95,3.6,5.16,3.6.75,0,1.51-.15,2.24-.48,17.28-7.7,28.45-24.9,28.45-43.81,0-26.44-21.51-47.94-47.94-47.94Z"/>
  <path class="cls-1" d="m113.37,182.1l-3.53-2.06,2.81-.6c.47-.1.76-.56.66-1.02-.1-.46-.56-.76-1.02-.66l-4.65,1-4.51-2.64,4.51-2.64,4.65,1c.06.01.12.02.18.02.4,0,.75-.28.84-.68.1-.47-.2-.92-.66-1.02l-2.81-.6,3.53-2.06c.41-.24.55-.77.31-1.18-.24-.41-.77-.55-1.18-.31l-3.53,2.06.85-2.74c.14-.45-.11-.94-.57-1.08-.45-.14-.94.11-1.08.57l-1.41,4.54-4.49,2.62v-5.2l3.21-3.51c.32-.35.3-.9-.05-1.22-.35-.32-.9-.3-1.22.05l-1.94,2.12v-4.09c0-.48-.39-.86-.86-.86s-.86.39-.86.86v4.09l-1.94-2.12c-.32-.35-.87-.38-1.22-.05-.35.32-.38.87-.05,1.22l3.21,3.51v5.2l-4.49-2.62-1.41-4.54c-.14-.45-.62-.71-1.08-.57-.45.14-.71.62-.57,1.08l.85,2.74-3.53-2.06c-.41-.24-.94-.1-1.18.31-.24.41-.1.94.31,1.18l3.53,2.06-2.81.6c-.47.1-.76.56-.66,1.02.09.4.44.68.84.68.06,0,.12,0,.18-.02l4.65-1,4.51,2.64-4.51,2.64-4.65-1c-.47-.1-.92.2-1.02.66-.1.47.2.92.66,1.02l2.81.6-3.53,2.06c-.41.24-.55.77-.31,1.18.16.27.45.43.74.43.15,0,.3-.04.43-.12l3.53-2.06-.85,2.74c-.14.45.11.94.57,1.08.09.03.17.04.26.04.37,0,.71-.24.82-.61l1.41-4.54,4.49-2.62v5.2l-3.21,3.51c-.32.35-.3.9.05,1.22.35.32.9.3,1.22-.05l1.94-2.12v4.09c0,.48.39.86.86.86s.86-.39.86-.86v-4.09l1.94,2.12c.17.19.4.28.64.28.21,0,.42-.07.58-.23.35-.32.38-.87.05-1.22l-3.21-3.51v-5.2l4.49,2.62,1.41,4.54c.11.37.45.61.82.61.08,0,.17-.01.26-.04.45-.14.71-.62.57-1.08l-.85-2.74,3.53,2.06c.14.08.29.12.43.12.3,0,.58-.15.74-.43.24-.41.1-.94-.31-1.18Z"/>
  <path class="cls-1" d="m150.95,168.02l-4.67-2.73,3.72-.8c.62-.13,1.01-.74.88-1.36-.13-.62-.74-1.01-1.36-.88l-6.16,1.32-5.98-3.5,5.98-3.49,6.16,1.32c.08.02.16.03.24.03.53,0,1-.37,1.11-.9.13-.62-.26-1.22-.88-1.36l-3.72-.8,4.67-2.73c.54-.32.73-1.02.41-1.56-.32-.54-1.02-.73-1.56-.41l-4.67,2.73,1.13-3.64c.19-.6-.15-1.24-.75-1.43-.6-.19-1.24.15-1.43.75l-1.87,6.02-5.94,3.48v-6.89l4.25-4.65c.43-.46.39-1.19-.07-1.61-.46-.43-1.19-.39-1.61.07l-2.57,2.81v-5.41c0-.63-.51-1.14-1.14-1.14s-1.14.51-1.14,1.14v5.41l-2.57-2.81c-.43-.47-1.15-.5-1.61-.07-.47.43-.5,1.15-.07,1.61l4.25,4.65v6.89l-5.94-3.48-1.87-6.02c-.19-.6-.82-.94-1.43-.75-.6.19-.94.83-.75,1.43l1.13,3.64-4.67-2.73c-.54-.32-1.24-.13-1.56.41-.32.54-.14,1.24.41,1.56l4.67,2.73-3.72.8c-.62.13-1.01.74-.88,1.36.11.54.59.9,1.11.9.08,0,.16,0,.24-.03l6.16-1.32,5.98,3.49-5.98,3.5-6.16-1.32c-.62-.13-1.22.26-1.36.88-.13.62.26,1.22.88,1.36l3.72.8-4.67,2.73c-.54.32-.73,1.02-.41,1.56.21.36.59.57.99.57.2,0,.39-.05.58-.16l4.67-2.73-1.13,3.64c-.19.6.15,1.24.75,1.43.11.03.23.05.34.05.49,0,.94-.31,1.09-.8l1.87-6.02,5.94-3.48v6.89l-4.25,4.65c-.43.46-.39,1.19.07,1.61.46.43,1.19.39,1.61-.07l2.57-2.81v5.41c0,.63.51,1.14,1.14,1.14s1.14-.51,1.14-1.14v-5.41l2.57,2.81c.23.25.53.37.84.37.27,0,.55-.1.77-.3.47-.43.5-1.15.07-1.61l-4.25-4.65v-6.89l5.94,3.48,1.87,6.02c.15.49.6.8,1.09.8.11,0,.23-.02.34-.05.6-.19.94-.83.75-1.43l-1.13-3.64,4.67,2.73c.18.11.38.16.58.16.39,0,.77-.2.99-.57.32-.54.14-1.24-.41-1.56Z"/>
  <path class="cls-1" d="m116.44,138.78l-8.19-4.79,6.52-1.4c1.08-.23,1.77-1.29,1.54-2.38-.23-1.08-1.29-1.77-2.38-1.54l-10.8,2.32-10.47-6.13,10.47-6.13,10.8,2.32c.14.03.28.04.42.04.92,0,1.75-.64,1.95-1.58.23-1.08-.46-2.14-1.54-2.38l-6.52-1.4,8.19-4.79c.95-.56,1.27-1.78.72-2.74-.56-.95-1.78-1.27-2.74-.72l-8.19,4.79,1.98-6.37c.33-1.05-.26-2.18-1.32-2.5-1.06-.32-2.18.26-2.5,1.32l-3.28,10.55-10.42,6.09v-12.07l7.45-8.16c.75-.81.69-2.08-.13-2.83-.81-.75-2.08-.69-2.83.13l-4.5,4.93v-9.49c0-1.1-.9-2-2-2s-2,.9-2,2v9.49l-4.5-4.93c-.75-.82-2.01-.87-2.83-.13-.82.75-.87,2.01-.13,2.83l7.45,8.16v12.07l-10.42-6.09-3.28-10.55c-.33-1.05-1.45-1.64-2.5-1.32-1.05.33-1.64,1.45-1.32,2.5l1.98,6.37-8.19-4.79c-.96-.56-2.18-.24-2.74.72-.56.95-.24,2.18.72,2.74l8.19,4.79-6.52,1.4c-1.08.23-1.77,1.29-1.54,2.38.2.94,1.03,1.58,1.95,1.58.14,0,.28-.01.42-.04l10.8-2.32,10.47,6.13-10.47,6.13-10.8-2.32c-1.08-.23-2.14.46-2.38,1.54-.23,1.08.46,2.14,1.54,2.38l6.52,1.4-8.19,4.79c-.95.56-1.27,1.78-.72,2.74.37.64,1.04.99,1.73.99.34,0,.69-.09,1.01-.27l8.19-4.79-1.98,6.37c-.33,1.05.26,2.18,1.32,2.5.2.06.4.09.59.09.85,0,1.64-.55,1.91-1.41l3.28-10.55,10.42-6.09v12.07l-7.45,8.15c-.75.81-.69,2.08.13,2.83.81.75,2.08.69,2.83-.13l4.5-4.92v9.49c0,1.1.9,2,2,2s2-.9,2-2v-9.49l4.5,4.92c.39.43.93.65,1.48.65.48,0,.97-.17,1.35-.52.82-.75.87-2.01.13-2.83l-7.45-8.15v-12.07l10.42,6.09,3.28,10.55c.27.86,1.06,1.41,1.91,1.41.2,0,.4-.03.59-.09,1.05-.33,1.64-1.45,1.32-2.5l-1.98-6.37,8.19,4.79c.32.19.67.27,1.01.27.69,0,1.36-.35,1.73-.99.56-.95.24-2.18-.72-2.74Z"/>
</svg>