<?xml version="1.0" encoding="UTF-8"?>
<svg id="_レイヤー_2" data-name="レイヤー 2" xmlns="http://www.w3.org/2000/svg" viewBox="0 0 220 220">
  <defs>
    <style>
      .cls-1 {
        fill: #224d8d;
      }
    </style>
  </defs>
  <path class="cls-1" d="m156.69,174.22H40.26c-3.04,0-5.5-2.46-5.5-5.5s2.46-5.5,5.5-5.5h116.43c9.68,0,15.14-6.21,16.27-9.21,1.57-4.19,1.72-9.36.38-13.5-1.95-6.04-7.53-11.26-12.7-11.89-4.08-.49-10-.69-14.18,3.34-2.82,2.72-3.78,6.15-3.79,6.18-.74,2.95-3.73,4.7-6.67,3.96-2.95-.74-4.72-3.76-3.98-6.7.16-.65,1.75-6.49,6.81-11.37,5.59-5.39,13.37-7.52,23.13-6.33,9.38,1.14,18.57,9.31,21.84,19.42,2.1,6.49,1.9,14.24-.54,20.74-3.05,8.12-13.15,16.35-26.57,16.35Z"/>
  <path class="cls-1" d="m96.57,154.98h-56.31c-3.04,0-5.5-2.46-5.5-5.5s2.46-5.5,5.5-5.5h56.31c7.29,0,11.5-4.7,12.31-6.85,1.22-3.24,1.3-5.83.29-8.95-1.48-4.58-5.66-8.53-9.51-9-3.12-.38-7.63-.54-10.73,2.44-2.06,1.99-2.79,4.49-2.8,4.51-.74,2.94-3.73,4.74-6.68,3.99-2.95-.74-4.73-3.73-3.99-6.68.14-.56,1.5-5.58,5.83-9.75,4.79-4.61,11.41-6.44,19.68-5.44,8.15.99,15.82,7.79,18.65,16.53,1.78,5.48,1.63,10.63-.46,16.2-2.61,6.95-11.21,13.99-22.61,13.99Z"/>
  <path class="cls-1" d="m64.84,109.13l-3.59-2.1,2.86-.61c.47-.1.77-.57.67-1.04-.1-.47-.57-.77-1.04-.67l-4.73,1.01-4.59-2.68,4.59-2.68,4.73,1.01c.06.01.12.02.18.02.4,0,.77-.28.86-.69.1-.47-.2-.94-.67-1.04l-2.86-.61,3.59-2.1c.42-.24.56-.78.31-1.2-.24-.42-.78-.56-1.2-.31l-3.59,2.1.87-2.79c.14-.46-.11-.95-.58-1.1-.46-.14-.95.11-1.1.58l-1.43,4.62-4.56,2.67v-5.28l3.26-3.57c.33-.36.3-.91-.06-1.24-.36-.33-.91-.3-1.24.06l-1.97,2.16v-4.15c0-.48-.39-.88-.88-.88s-.88.39-.88.88v4.15l-1.97-2.16c-.33-.36-.88-.38-1.24-.06-.36.33-.38.88-.06,1.24l3.26,3.57v5.28l-4.56-2.67-1.43-4.62c-.14-.46-.63-.72-1.1-.58-.46.14-.72.63-.58,1.1l.87,2.79-3.59-2.1c-.42-.24-.95-.1-1.2.31-.24.42-.1.95.31,1.2l3.59,2.1-2.86.61c-.47.1-.77.57-.67,1.04.09.41.45.69.86.69.06,0,.12,0,.18-.02l4.73-1.01,4.59,2.68-4.59,2.68-4.73-1.01c-.47-.1-.94.2-1.04.67-.1.47.2.94.67,1.04l2.86.61-3.59,2.1c-.42.24-.56.78-.31,1.2.16.28.46.43.76.43.15,0,.3-.04.44-.12l3.59-2.1-.87,2.79c-.14.46.11.95.58,1.1.09.03.17.04.26.04.37,0,.72-.24.84-.62l1.43-4.62,4.56-2.67v5.28l-3.26,3.57c-.33.36-.3.91.06,1.24.36.33.91.3,1.24-.06l1.97-2.16v4.15c0,.48.39.88.88.88s.88-.39.88-.88v-4.15l1.97,2.16c.17.19.41.28.65.28.21,0,.42-.08.59-.23.36-.33.38-.88.06-1.24l-3.26-3.57v-5.28l4.56,2.67,1.43,4.62c.12.38.46.62.84.62.09,0,.17-.01.26-.04.46-.14.72-.63.58-1.1l-.87-2.79,3.59,2.1c.14.08.29.12.44.12.3,0,.59-.16.76-.43.24-.42.1-.95-.31-1.2Z"/>
  <path class="cls-1" d="m106.35,82.03l-3.59-2.1,2.86-.61c.47-.1.77-.57.67-1.04-.1-.47-.57-.77-1.04-.67l-4.73,1.01-4.59-2.68,4.59-2.68,4.73,1.01c.06.01.12.02.18.02.4,0,.77-.28.86-.69.1-.47-.2-.94-.67-1.04l-2.86-.61,3.59-2.1c.42-.24.56-.78.31-1.2-.24-.42-.78-.56-1.2-.31l-3.59,2.1.87-2.79c.14-.46-.11-.95-.58-1.1-.46-.14-.95.11-1.1.58l-1.43,4.62-4.56,2.67v-5.28l3.26-3.57c.33-.36.3-.91-.06-1.24-.36-.33-.91-.3-1.24.06l-1.97,2.16v-4.15c0-.48-.39-.88-.88-.88s-.88.39-.88.88v4.15l-1.97-2.16c-.33-.36-.88-.38-1.24-.06-.36.33-.38.88-.06,1.24l3.26,3.57v5.28l-4.56-2.67-1.43-4.62c-.14-.46-.63-.72-1.1-.58-.46.14-.72.63-.58,1.1l.87,2.79-3.59-2.1c-.42-.24-.95-.1-1.2.31-.24.42-.1.95.31,1.2l3.59,2.1-2.86.61c-.47.1-.77.57-.67,1.04.09.41.45.69.86.69.06,0,.12,0,.18-.02l4.73-1.01,4.59,2.68-4.59,2.68-4.73-1.01c-.47-.1-.94.2-1.04.67-.1.47.2.94.67,1.04l2.86.61-3.59,2.1c-.42.24-.56.78-.31,1.2.16.28.46.43.76.43.15,0,.3-.04.44-.12l3.59-2.1-.87,2.79c-.14.46.11.95.58,1.1.09.03.17.04.26.04.37,0,.72-.24.84-.62l1.43-4.62,4.56-2.67v5.28l-3.26,3.57c-.33.36-.3.91.06,1.24.36.33.91.3,1.24-.06l1.97-2.16v4.15c0,.48.39.88.88.88s.88-.39.88-.88v-4.15l1.97,2.16c.17.19.41.28.65.28.21,0,.42-.08.59-.23.36-.33.38-.88.06-1.24l-3.26-3.57v-5.28l4.56,2.67,1.43,4.62c.12.38.46.62.84.62.09,0,.17-.01.26-.04.46-.14.72-.63.58-1.1l-.87-2.79,3.59,2.1c.14.08.29.12.44.12.3,0,.59-.16.76-.43.24-.42.1-.95-.31-1.2Z"/>
  <path class="cls-1" d="m174.48,85.01l-8.33-4.87,6.63-1.42c1.1-.24,1.8-1.32,1.56-2.42-.23-1.1-1.32-1.8-2.42-1.56l-10.98,2.36-10.65-6.23,10.65-6.23,10.99,2.36c.14.03.29.05.43.05.94,0,1.78-.65,1.99-1.61.24-1.1-.46-2.18-1.56-2.42l-6.63-1.42,8.33-4.87c.97-.57,1.3-1.81.73-2.78-.57-.97-1.81-1.29-2.78-.73l-8.33,4.87,2.01-6.48c.33-1.07-.27-2.21-1.34-2.55-1.07-.33-2.21.27-2.55,1.34l-3.33,10.73-10.59,6.19v-12.27l7.58-8.29c.76-.83.7-2.12-.13-2.87-.83-.76-2.12-.7-2.87.13l-4.58,5.01v-9.65c0-1.12-.91-2.03-2.03-2.03s-2.03.91-2.03,2.03v9.65l-4.58-5.01c-.76-.83-2.04-.89-2.87-.13-.83.76-.89,2.04-.13,2.87l7.58,8.29v12.27l-10.59-6.19-3.33-10.73c-.33-1.07-1.47-1.67-2.55-1.34-1.07.33-1.67,1.47-1.34,2.55l2.01,6.48-8.33-4.87c-.97-.57-2.22-.24-2.78.73-.57.97-.24,2.22.73,2.78l8.33,4.87-6.63,1.42c-1.1.24-1.8,1.32-1.56,2.42.2.95,1.05,1.61,1.99,1.61.14,0,.28-.01.43-.05l10.99-2.36,10.65,6.23-10.65,6.23-10.98-2.36c-1.1-.23-2.18.46-2.42,1.56-.24,1.1.46,2.18,1.56,2.42l6.63,1.42-8.33,4.87c-.97.57-1.3,1.81-.73,2.78.38.65,1.06,1.01,1.76,1.01.35,0,.7-.09,1.02-.28l8.33-4.87-2.01,6.48c-.33,1.07.27,2.21,1.34,2.55.2.06.4.09.6.09.87,0,1.67-.56,1.94-1.43l3.33-10.73,10.59-6.19v12.27l-7.58,8.29c-.76.83-.7,2.12.13,2.87.83.76,2.11.7,2.87-.13l4.58-5.01v9.65c0,1.12.91,2.03,2.03,2.03s2.03-.91,2.03-2.03v-9.65l4.58,5.01c.4.44.95.66,1.5.66.49,0,.98-.18,1.37-.53.83-.76.89-2.04.13-2.87l-7.58-8.29v-12.27l10.59,6.19,3.33,10.73c.27.87,1.07,1.43,1.94,1.43.2,0,.4-.03.6-.09,1.07-.33,1.67-1.47,1.34-2.55l-2.01-6.48,8.33,4.87c.32.19.68.28,1.02.28.7,0,1.38-.36,1.76-1.01.57-.97.24-2.22-.73-2.78Z"/>
</svg>