<?xml version="1.0" encoding="UTF-8"?>
<svg id="_レイヤー_2" data-name="レイヤー 2" xmlns="http://www.w3.org/2000/svg" viewBox="0 0 220 220">
  <defs>
    <style>
      .cls-1 {
        fill: #224d8d;
      }
    </style>
  </defs>
  <path class="cls-1" d="m110,73.8c19.96,0,36.2,16.24,36.2,36.2s-16.24,36.2-36.2,36.2-36.2-16.24-36.2-36.2,16.24-36.2,36.2-36.2m0-11c-26.07,0-47.2,21.13-47.2,47.2s21.13,47.2,47.2,47.2,47.2-21.13,47.2-47.2-21.13-47.2-47.2-47.2h0Z"/>
  <g>
    <g>
      <path class="cls-1" d="m168.6,45.21c-1.59,0-3.17.6-4.38,1.81-2.42,2.42-2.42,6.34,0,8.76,1.21,1.21,2.79,1.81,4.38,1.81s3.17-.6,4.38-1.81c2.42-2.42,2.42-6.34,0-8.76-1.21-1.21-2.79-1.81-4.38-1.81h0Z"/>
      <path class="cls-1" d="m156.92,56.89c-1.59,0-3.17.6-4.38,1.81-2.42,2.42-2.42,6.34,0,8.76,1.21,1.21,2.79,1.81,4.38,1.81s3.17-.6,4.38-1.81c2.42-2.42,2.42-6.34,0-8.76-1.21-1.21-2.79-1.81-4.38-1.81h0Z"/>
    </g>
    <g>
      <path class="cls-1" d="m63.08,150.73c-1.59,0-3.17.6-4.38,1.81-2.42,2.42-2.42,6.34,0,8.76,1.21,1.21,2.79,1.81,4.38,1.81s3.17-.6,4.38-1.81c2.42-2.42,2.42-6.34,0-8.76-1.21-1.21-2.79-1.81-4.38-1.81h0Z"/>
      <path class="cls-1" d="m51.4,162.41c-1.59,0-3.17.6-4.38,1.81-2.42,2.42-2.42,6.34,0,8.76,1.21,1.21,2.79,1.81,4.38,1.81s3.17-.6,4.38-1.81c2.42-2.42,2.42-6.34,0-8.76-1.21-1.21-2.79-1.81-4.38-1.81h0Z"/>
    </g>
  </g>
  <g>
    <g>
      <path class="cls-1" d="m192.87,103.81c-3.42,0-6.19,2.77-6.19,6.19s2.77,6.19,6.19,6.19,6.19-2.77,6.19-6.19-2.77-6.19-6.19-6.19h0Z"/>
      <path class="cls-1" d="m176.35,103.81c-3.42,0-6.19,2.77-6.19,6.19s2.77,6.19,6.19,6.19,6.19-2.77,6.19-6.19-2.77-6.19-6.19-6.19h0Z"/>
    </g>
    <g>
      <path class="cls-1" d="m43.65,103.81c-3.42,0-6.19,2.77-6.19,6.19s2.77,6.19,6.19,6.19,6.19-2.77,6.19-6.19-2.77-6.19-6.19-6.19h0Z"/>
      <path class="cls-1" d="m27.13,103.81c-3.42,0-6.19,2.77-6.19,6.19s2.77,6.19,6.19,6.19,6.19-2.77,6.19-6.19-2.77-6.19-6.19-6.19h0Z"/>
    </g>
  </g>
  <g>
    <g>
      <path class="cls-1" d="m168.6,162.41c-1.59,0-3.17.6-4.38,1.81-2.42,2.42-2.42,6.34,0,8.76,1.21,1.21,2.79,1.81,4.38,1.81s3.17-.6,4.38-1.81c2.42-2.42,2.42-6.34,0-8.76-1.21-1.21-2.79-1.81-4.38-1.81h0Z"/>
      <path class="cls-1" d="m156.92,150.73c-1.59,0-3.17.6-4.38,1.81-2.42,2.42-2.42,6.34,0,8.76,1.21,1.21,2.79,1.81,4.38,1.81s3.17-.6,4.38-1.81c2.42-2.42,2.42-6.34,0-8.76-1.21-1.21-2.79-1.81-4.38-1.81h0Z"/>
    </g>
    <g>
      <path class="cls-1" d="m63.08,56.89c-1.59,0-3.17.6-4.38,1.81-2.42,2.42-2.42,6.34,0,8.76,1.21,1.21,2.79,1.81,4.38,1.81s3.17-.6,4.38-1.81c2.42-2.42,2.42-6.34,0-8.76-1.21-1.21-2.79-1.81-4.38-1.81h0Z"/>
      <path class="cls-1" d="m51.4,45.21c-1.59,0-3.17.6-4.38,1.81-2.42,2.42-2.42,6.34,0,8.76,1.21,1.21,2.79,1.81,4.38,1.81s3.17-.6,4.38-1.81c2.42-2.42,2.42-6.34,0-8.76-1.21-1.21-2.79-1.81-4.38-1.81h0Z"/>
    </g>
  </g>
  <g>
    <g>
      <path class="cls-1" d="m110,186.68c-3.42,0-6.19,2.77-6.19,6.19s2.77,6.19,6.19,6.19,6.19-2.77,6.19-6.19-2.77-6.19-6.19-6.19h0Z"/>
      <path class="cls-1" d="m110,170.16c-3.42,0-6.19,2.77-6.19,6.19s2.77,6.19,6.19,6.19,6.19-2.77,6.19-6.19-2.77-6.19-6.19-6.19h0Z"/>
    </g>
    <g>
      <path class="cls-1" d="m110,37.45c-3.42,0-6.19,2.77-6.19,6.19s2.77,6.19,6.19,6.19,6.19-2.77,6.19-6.19-2.77-6.19-6.19-6.19h0Z"/>
      <path class="cls-1" d="m110,20.93c-3.42,0-6.19,2.77-6.19,6.19s2.77,6.19,6.19,6.19,6.19-2.77,6.19-6.19-2.77-6.19-6.19-6.19h0Z"/>
    </g>
  </g>
</svg>